{
.appVersion = "1342";
DisplayStrings = (

glyphs = (
{
glyphname = .notdef;
lastChange = "2020-04-10 15:55:21 +0000";
layers = (
{
background = {
paths = (
{
closed = 1;
nodes = (
"160 141 LINE",
"285 256 LINE",
"160 379 LINE",
"201 421 LINE",
"322 293 LINE",
"441 421 LINE",
"485 379 LINE",
"358 257 LINE",
"485 133 LINE",
"444 92 LINE",
"321 220 LINE",
"203 92 LINE"
);
},
{
closed = 1;
nodes = (
"64 0 LINE",
"579 0 LINE",
"579 515 LINE",
"64 515 LINE"
);
}
);
};
layerId = "DAAEA780-4710-4479-B303-5C05B40621B2";
paths = (
{
closed = 1;
nodes = (
"64 0 LINE",
"579 0 LINE",
"579 515 LINE",
"64 515 LINE"
);
},
{
closed = 1;
nodes = (
"442 94 LINE",
"321 222 LINE",
"200 94 LINE",
"157 137 LINE",
"285 258 LINE",
"159 381 LINE",
"201 422 LINE",
"322 294 LINE",
"443 422 LINE",
"486 379 LINE",
"358 258 LINE",
"484 135 LINE"
);
}
);
width = 643;
},
{
background = {
paths = (
{
closed = 1;
nodes = (
"160 141 LINE",
"285 256 LINE",
"160 379 LINE",
"201 421 LINE",
"322 293 LINE",
"441 421 LINE",
"485 379 LINE",
"358 257 LINE",
"485 133 LINE",
"444 92 LINE",
"321 220 LINE",
"203 92 LINE"
);
},
{
closed = 1;
nodes = (
"64 0 LINE",
"579 0 LINE",
"579 515 LINE",
"64 515 LINE"
);
}
);
};
layerId = "925CB40E-795E-477B-BAE7-1EE7D58841B5";
paths = (
{
closed = 1;
nodes = (
"64 0 LINE",
"579 0 LINE",
"579 515 LINE",
"64 515 LINE"
);
},
{
closed = 1;
nodes = (
"442 94 LINE",
"321 222 LINE",
"200 94 LINE",
"157 137 LINE",
"285 258 LINE",
"159 381 LINE",
"201 422 LINE",
"322 294 LINE",
"443 422 LINE",
"486 379 LINE",
"358 258 LINE",
"484 135 LINE"
);
}
);
width = 643;
}
);
rightMetricsKey = "=|";
userData = {
com.typemytype.robofont.layerData = {
background = {
anchors = (
);
components = (
);
contours = (
{
points = (
{
segmentType = line;
smooth = 0;
x = 440;
y = 387;
},
{
segmentType = line;
smooth = 0;
x = 783;
y = 705;
},
{
segmentType = line;
smooth = 0;
x = 439;
y = 1043;
},
{
segmentType = line;
smooth = 0;
x = 553;
y = 1159;
},
{
segmentType = line;
smooth = 0;
x = 886;
y = 807;
},
{
segmentType = line;
smooth = 0;
x = 1214;
y = 1158;
},
{
segmentType = line;
smooth = 0;
x = 1333;
y = 1042;
},
{
segmentType = line;
smooth = 0;
x = 985;
y = 708;
},
{
segmentType = line;
smooth = 0;
x = 1333;
y = 365;
},
{
segmentType = line;
smooth = 0;
x = 1220;
y = 252;
},
{
segmentType = line;
smooth = 0;
x = 883;
y = 605;
},
{
segmentType = line;
smooth = 0;
x = 559;
y = 252;
}
);
},
{
points = (
{
segmentType = line;
smooth = 0;
x = 177;
y = 0;
},
{
segmentType = line;
smooth = 0;
x = 1593;
y = 0;
},
{
segmentType = line;
smooth = 0;
x = 1593;
y = 1416;
},
{
segmentType = line;
smooth = 0;
x = 177;
y = 1416;
}
);
}
);
lib = {
};
name = .notdef;
unicodes = (
);
width = 1770;
};
};
};
},
{
glyphname = A;
lastChange = "2020-05-30 21:56:43 +0000";
layers = (
{
anchors = (
{
name = btm;
position = "{270, 0}";
},
{
name = top;
position = "{277, 568}";
}
);
background = {
paths = (
{
closed = 1;
nodes = (
"128 176 LINE",
"405 176 LINE",
"390 214 LINE",
"140 214 LINE"
);
},
{
closed = 1;
nodes = (
"305 570 LINE",
"244 570 LINE",
"68 62 LINE SMOOTH",
"65 51 OFFCURVE",
"57 45 OFFCURVE",
"46 42 CURVE SMOOTH",
"3 32 LINE",
"3 0 LINE",
"184 0 LINE",
"184 32 LINE",
"112 46 LINE",
"278 543 LINE",
"252 543 LINE",
"431 46 LINE",
"358 32 LINE",
"358 0 LINE",
"554 0 LINE",
"554 32 LINE",
"513 42 LINE SMOOTH",
"502 45 OFFCURVE",
"495 51 OFFCURVE",
"491 62 CURVE SMOOTH"
);
}
);
};
layerId = "DAAEA780-4710-4479-B303-5C05B40621B2";
paths = (
{
closed = 1;
nodes = (
"128 176 LINE",
"405 176 LINE",
"390 214 LINE",
"140 214 LINE"
);
},
{
closed = 1;
nodes = (
"305 570 LINE",
"244 570 LINE",
"68 62 LINE SMOOTH",
"65 51 OFFCURVE",
"57 45 OFFCURVE",
"46 42 CURVE SMOOTH",
"3 32 LINE",
"3 0 LINE",
"184 0 LINE",
"184 32 LINE",
"112 46 LINE",
"278 543 LINE",
"252 543 LINE",
"431 46 LINE",
"358 32 LINE",
"358 0 LINE",
"554 0 LINE",
"554 32 LINE",
"513 42 LINE SMOOTH",
"502 45 OFFCURVE",
"495 51 OFFCURVE",
"491 62 CURVE SMOOTH"
);
}
);
width = 555;
},
{
anchors = (
{
name = btm;
position = "{258, 0}";
},
{
name = top;
position = "{293, 573}";
}
);
layerId = "925CB40E-795E-477B-BAE7-1EE7D58841B5";
paths = (
{
closed = 1;
nodes = (
"133 166 LINE",
"399 166 LINE",
"378 228 LINE",
"150 228 LINE"
);
},
{
closed = 1;
nodes = (
"357 575 LINE",
"228 575 LINE",
"62 82 LINE SMOOTH",
"59 72 OFFCURVE",
"53 67 OFFCURVE",
"43 64 CURVE SMOOTH",
"-6 52 LINE",
"-6 0 LINE",
"206 0 LINE",
"206 52 LINE",
"137 64 LINE",
"275 522 LINE",
"244 522 LINE",
"385 64 LINE",
"315 52 LINE",
"315 0 LINE",
"588 0 LINE",
"588 52 LINE",
"543 64 LINE SMOOTH",
"533 67 OFFCURVE",
"526 72 OFFCURVE",
"523 82 CURVE SMOOTH"
);
}
);
width = 584;
}
);
leftKerningGroup = A;
rightKerningGroup = A;
unicode = 0041;
userData = {
com.typemytype.robofont.layerData = {
background = {
anchors = (
{
name = btm;
x = 757;
y = -170;
},
{
name = top;
x = 786;
y = 1700;
}
);
components = (
);
contours = (
{
points = (
{
segmentType = line;
smooth = 0;
x = 60;
y = 0;
},
{
segmentType = line;
smooth = 0;
x = 521;
y = 0;
},
{
segmentType = line;
smooth = 0;
x = 521;
y = 88;
},
{
segmentType = line;
smooth = 0;
x = 317;
y = 111;
},
{
segmentType = line;
smooth = 0;
x = 325;
y = 64;
},
{
segmentType = line;
smooth = 0;
x = 707;
y = 1214;
},
{
segmentType = line;
smooth = 0;
x = 763;
y = 1415;
},
{
segmentType = line;
smooth = 0;
x = 820;
y = 1220;
},
{
segmentType = line;
smooth = 0;
x = 1209;
y = 68;
},
{
segmentType = line;
smooth = 0;
x = 1226;
y = 111;
},
{
segmentType = line;
smooth = 0;
x = 1015;
y = 88;
},
{
segmentType = line;
smooth = 0;
x = 1015;
y = 0;
},
{
segmentType = line;
smooth = 0;
x = 1515;
y = 0;
},
{
segmentType = line;
smooth = 0;
x = 1515;
y = 88;
},
{
segmentType = line;
smooth = 0;
x = 1354;
y = 111;
},
{
segmentType = line;
smooth = 0;
x = 1397;
y = 62;
},
{
segmentType = line;
smooth = 0;
x = 870;
y = 1537;
},
{
segmentType = line;
smooth = 0;
x = 702;
y = 1537;
},
{
segmentType = line;
smooth = 0;
x = 178;
y = 68;
},
{
segmentType = line;
smooth = 0;
x = 221;
y = 112;
},
{
segmentType = line;
smooth = 0;
x = 60;
y = 88;
}
);
},
{
points = (
{
segmentType = line;
smooth = 0;
x = 384;
y = 433;
},
{
segmentType = line;
smooth = 0;
x = 1126;
y = 433;
},
{
segmentType = line;
smooth = 0;
x = 1084;
y = 539;
},
{
segmentType = line;
smooth = 0;
x = 418;
y = 539;
}
);
}
);
lib = {
};
name = A;
unicodes = (
);
width = 1486;
};
};
};
},
{
glyphname = B;
lastChange = "2020-05-30 21:56:39 +0000";
layers = (
{
anchors = (
{
name = btm;
position = "{287, 0}";
},
{
name = top;
position = "{287, 568}";
}
);
layerId = "DAAEA780-4710-4479-B303-5C05B40621B2";
paths = (
{
closed = 1;
nodes = (
"453 441 CURVE SMOOTH",
"453 527 OFFCURVE",
"400 574 OFFCURVE",
"271 574 CURVE SMOOTH",
"230 574 OFFCURVE",
"196 568 OFFCURVE",
"151 568 CURVE SMOOTH",
"42 568 LINE",
"42 536 LINE",
"104 524 LINE SMOOTH",
"114 521 OFFCURVE",
"120 513 OFFCURVE",
"120 503 CURVE SMOOTH",
"120 64 LINE SMOOTH",
"120 53 OFFCURVE",
"113 45 OFFCURVE",
"103 43 CURVE SMOOTH",
"42 32 LINE",
"42 0 LINE",
"148 0 LINE SMOOTH",
"205 0 OFFCURVE",
"230 -4 OFFCURVE",
"266 -4 CURVE SMOOTH",
"439 -4 OFFCURVE",
"493 71 OFFCURVE",
"493 167 CURVE SMOOTH",
"493 255 OFFCURVE",
"430 311 OFFCURVE",
"327 301 CURVE",
"327 297 LINE",
"411 307 OFFCURVE",
"453 367 OFFCURVE"
);
},
{
closed = 1;
nodes = (
"160 274 LINE",
"197 275 OFFCURVE",
"260 276 OFFCURVE",
"288 276 CURVE SMOOTH",
"384 276 OFFCURVE",
"426 241 OFFCURVE",
"426 156 CURVE SMOOTH",
"426 71 OFFCURVE",
"381 31 OFFCURVE",
"266 31 CURVE SMOOTH",
"240 31 OFFCURVE",
"203 34 OFFCURVE",
"181 37 CURVE",
"181 535 LINE",
"196 535 OFFCURVE",
"223 540 OFFCURVE",
"259 540 CURVE SMOOTH",
"358 540 OFFCURVE",
"392 504 OFFCURVE",
"392 432 CURVE SMOOTH",
"392 351 OFFCURVE",
"349 314 OFFCURVE",
"273 314 CURVE SMOOTH",
"253 314 OFFCURVE",
"198 313 OFFCURVE",
"160 315 CURVE"
);
}
);
width = 537;
},
{
anchors = (
{
name = btm;
position = "{301, 0}";
},
{
name = top;
position = "{301, 573}";
}
);
layerId = "925CB40E-795E-477B-BAE7-1EE7D58841B5";
paths = (
{
closed = 1;
nodes = (
"511 443 CURVE SMOOTH",
"511 532 OFFCURVE",
"468 577 OFFCURVE",
"308 577 CURVE SMOOTH",
"257 577 OFFCURVE",
"221 573 OFFCURVE",
"174 573 CURVE SMOOTH",
"32 573 LINE",
"32 518 LINE",
"91 506 LINE SMOOTH",
"100 505 OFFCURVE",
"106 498 OFFCURVE",
"106 489 CURVE SMOOTH",
"106 81 LINE SMOOTH",
"106 72 OFFCURVE",
"100 65 OFFCURVE",
"91 63 CURVE SMOOTH",
"32 52 LINE",
"32 0 LINE",
"176 0 LINE SMOOTH",
"223 0 OFFCURVE",
"251 -4 OFFCURVE",
"305 -4 CURVE SMOOTH",
"493 -4 OFFCURVE",
"549 70 OFFCURVE",
"549 170 CURVE SMOOTH",
"549 269 OFFCURVE",
"470 313 OFFCURVE",
"371 306 CURVE",
"371 300 LINE",
"454 304 OFFCURVE",
"511 352 OFFCURVE"
);
},
{
closed = 1;
nodes = (
"219 263 LINE",
"250 264 OFFCURVE",
"281 266 OFFCURVE",
"304 266 CURVE SMOOTH",
"365 266 OFFCURVE",
"397 241 OFFCURVE",
"397 166 CURVE SMOOTH",
"397 92 OFFCURVE",
"369 49 OFFCURVE",
"298 49 CURVE SMOOTH",
"279 49 OFFCURVE",
"257 51 OFFCURVE",
"243 54 CURVE",
"243 523 LINE",
"252 525 OFFCURVE",
"283 526 OFFCURVE",
"291 526 CURVE SMOOTH",
"348 526 OFFCURVE",
"375 499 OFFCURVE",
"375 431 CURVE SMOOTH",
"375 362 OFFCURVE",
"352 324 OFFCURVE",
"298 324 CURVE SMOOTH",
"279 324 OFFCURVE",
"250 324 OFFCURVE",
"219 326 CURVE"
);
}
);
width = 578;
}
);
leftKerningGroup = H;
unicode = 0042;
userData = {
com.typemytype.robofont.layerData = {
background = {
anchors = (
{
name = btm;
x = 737;
y = -170;
},
{
name = top;
x = 737;
y = 1700;
}
);
components = (
);
contours = (
{
points = (
{
segmentType = line;
smooth = 0;
x = 103;
y = 0;
},
{
segmentType = line;
smooth = 0;
x = 355;
y = 0;
},
{
smooth = 0;
x = 511;
y = 0;
},
{
smooth = 0;
x = 580;
y = -12;
},
{
segmentType = curve;
smooth = 1;
x = 679;
y = -12;
},
{
smooth = 0;
x = 1154;
y = -12;
},
{
smooth = 0;
x = 1296;
y = 215;
},
{
segmentType = curve;
smooth = 1;
x = 1296;
y = 455;
},
{
smooth = 0;
x = 1296;
y = 671;
},
{
smooth = 0;
x = 1144;
y = 820;
},
{
segmentType = curve;
smooth = 0;
x = 885;
y = 810;
},
{
smooth = 0;
x = 1084;
y = 850;
},
{
smooth = 0;
x = 1187;
y = 1009;
},
{
segmentType = curve;
smooth = 1;
x = 1187;
y = 1194;
},
{
smooth = 0;
x = 1187;
y = 1410;
},
{
smooth = 0;
x = 1048;
y = 1538;
},
{
segmentType = curve;
smooth = 1;
x = 681;
y = 1538;
},
{
smooth = 0;
x = 580;
y = 1538;
},
{
smooth = 0;
x = 485;
y = 1522;
},
{
segmentType = curve;
smooth = 0;
x = 363;
y = 1522;
},
{
segmentType = line;
smooth = 0;
x = 107;
y = 1522;
},
{
segmentType = line;
smooth = 0;
x = 107;
y = 1434;
},
{
segmentType = line;
smooth = 0;
x = 299;
y = 1409;
},
{
segmentType = line;
smooth = 0;
x = 278;
y = 1450;
},
{
segmentType = line;
smooth = 0;
x = 278;
y = 65;
},
{
segmentType = line;
smooth = 0;
x = 317;
y = 111;
},
{
segmentType = line;
smooth = 0;
x = 103;
y = 88;
}
);
},
{
points = (
{
segmentType = line;
smooth = 0;
x = 447;
y = 736;
},
{
smooth = 0;
x = 508;
y = 739;
},
{
smooth = 0;
x = 666;
y = 738;
},
{
segmentType = curve;
smooth = 1;
x = 740;
y = 738;
},
{
smooth = 0;
x = 1004;
y = 738;
},
{
smooth = 0;
x = 1113;
y = 642;
},
{
segmentType = curve;
smooth = 1;
x = 1113;
y = 423;
},
{
smooth = 0;
x = 1113;
y = 216;
},
{
smooth = 0;
x = 996;
y = 85;
},
{
segmentType = curve;
smooth = 1;
x = 678;
y = 85;
},
{
smooth = 0;
x = 608;
y = 85;
},
{
smooth = 0;
x = 499;
y = 87;
},
{
segmentType = curve;
smooth = 0;
x = 447;
y = 103;
}
);
},
{
points = (
{
segmentType = line;
smooth = 0;
x = 447;
y = 1431;
},
{
smooth = 0;
x = 487;
y = 1432;
},
{
smooth = 0;
x = 560;
y = 1444;
},
{
segmentType = curve;
smooth = 1;
x = 660;
y = 1444;
},
{
smooth = 0;
x = 931;
y = 1444;
},
{
smooth = 0;
x = 1018;
y = 1346;
},
{
segmentType = curve;
smooth = 1;
x = 1018;
y = 1156;
},
{
smooth = 0;
x = 1018;
y = 955;
},
{
smooth = 0;
x = 906;
y = 843;
},
{
segmentType = curve;
smooth = 1;
x = 699;
y = 843;
},
{
smooth = 0;
x = 645;
y = 843;
},
{
smooth = 0;
x = 509;
y = 842;
},
{
segmentType = curve;
smooth = 0;
x = 447;
y = 846;
}
);
}
);
lib = {
};
name = B;
unicodes = (
);
width = 1437;
};
};
};
},
{
glyphname = C;
lastChange = "2020-05-30 21:56:35 +0000";
layers = (
{
anchors = (
{
name = btm;
position = "{300, 0}";
},
{
name = top;
position = "{304, 568}";
}
);
layerId = "DAAEA780-4710-4479-B303-5C05B40621B2";
paths = (
{
closed = 1;
nodes = (
"308 -8 CURVE SMOOTH",
"365 -8 OFFCURVE",
"424 3 OFFCURVE",
"464 20 CURVE",
"471 59 OFFCURVE",
"475 105 OFFCURVE",
"474 143 CURVE",
"438 147 LINE",
"413 75 LINE SMOOTH",
"409 64 OFFCURVE",
"404 57 OFFCURVE",
"394 50 CURVE SMOOTH",
"372 35 OFFCURVE",
"335 28 OFFCURVE",
"300 28 CURVE SMOOTH",
"170 28 OFFCURVE",
"119 139 OFFCURVE",
"119 288 CURVE SMOOTH",
"119 463 OFFCURVE",
"189 540 OFFCURVE",
"299 540 CURVE SMOOTH",
"339 540 OFFCURVE",
"378 530 OFFCURVE",
"395 520 CURVE SMOOTH",
"405 514 OFFCURVE",
"410 508 OFFCURVE",
"413 496 CURVE SMOOTH",
"429 419 LINE",
"465 419 LINE",
"471 462 OFFCURVE",
"474 510 OFFCURVE",
"473 550 CURVE",
"424 569 OFFCURVE",
"363 576 OFFCURVE",
"320 576 CURVE SMOOTH",
"154 576 OFFCURVE",
"49 473 OFFCURVE",
"49 275 CURVE SMOOTH",
"49 99 OFFCURVE",
"132 -8 OFFCURVE"
);
}
);
width = 520;
},
{
anchors = (
{
name = btm;
position = "{288, 0}";
},
{
name = top;
position = "{305, 573}";
}
);
layerId = "925CB40E-795E-477B-BAE7-1EE7D58841B5";
paths = (
{
closed = 1;
nodes = (
"294 -10 CURVE SMOOTH",
"359 -10 OFFCURVE",
"435 4 OFFCURVE",
"487 22 CURVE",
"495 76 OFFCURVE",
"496 129 OFFCURVE",
"493 174 CURVE",
"413 180 LINE",
"388 96 LINE SMOOTH",
"383 81 OFFCURVE",
"378 74 OFFCURVE",
"372 68 CURVE SMOOTH",
"356 53 OFFCURVE",
"332 46 OFFCURVE",
"308 46 CURVE SMOOTH",
"225 46 OFFCURVE",
"189 130 OFFCURVE",
"189 288 CURVE SMOOTH",
"189 461 OFFCURVE",
"232 528 OFFCURVE",
"305 528 CURVE SMOOTH",
"328 528 OFFCURVE",
"350 521 OFFCURVE",
"363 512 CURVE SMOOTH",
"376 504 OFFCURVE",
"380 492 OFFCURVE",
"383 483 CURVE SMOOTH",
"404 388 LINE",
"485 388 LINE",
"495 449 OFFCURVE",
"497 504 OFFCURVE",
"493 552 CURVE",
"440 572 OFFCURVE",
"374 583 OFFCURVE",
"316 583 CURVE SMOOTH",
"146 583 OFFCURVE",
"34 486 OFFCURVE",
"34 274 CURVE SMOOTH",
"34 91 OFFCURVE",
"119 -10 OFFCURVE"
);
}
);
width = 531;
}
);
leftKerningGroup = O;
rightKerningGroup = C;
unicode = 0043;
userData = {
com.typemytype.robofont.layerData = {
background = {
anchors = (
{
name = btm;
x = 765;
y = -170;
},
{
name = top;
x = 784;
y = 1700;
}
);
components = (
);
contours = (
{
points = (
{
segmentType = curve;
smooth = 1;
x = 772;
y = -23;
},
{
smooth = 0;
x = 1017;
y = -23;
},
{
smooth = 0;
x = 1093;
y = 51;
},
{
segmentType = curve;
smooth = 0;
x = 1201;
y = 56;
},
{
segmentType = line;
smooth = 0;
x = 1251;
y = 329;
},
{
segmentType = line;
smooth = 0;
x = 1151;
y = 344;
},
{
segmentType = line;
smooth = 0;
x = 1069;
y = 151;
},
{
smooth = 0;
x = 1015;
y = 108;
},
{
smooth = 0;
x = 946;
y = 75;
},
{
segmentType = curve;
smooth = 1;
x = 776;
y = 75;
},
{
smooth = 0;
x = 426;
y = 75;
},
{
smooth = 0;
x = 267;
y = 416;
},
{
segmentType = curve;
smooth = 1;
x = 267;
y = 786;
},
{
smooth = 0;
x = 267;
y = 1207;
},
{
smooth = 0;
x = 484;
y = 1439;
},
{
segmentType = curve;
smooth = 1;
x = 762;
y = 1439;
},
{
smooth = 0;
x = 924;
y = 1439;
},
{
smooth = 0;
x = 1031;
y = 1410;
},
{
segmentType = curve;
smooth = 0;
x = 1068;
y = 1376;
},
{
segmentType = line;
smooth = 0;
x = 1112;
y = 1139;
},
{
segmentType = line;
smooth = 0;
x = 1218;
y = 1139;
},
{
segmentType = line;
smooth = 0;
x = 1235;
y = 1473;
},
{
smooth = 0;
x = 1164;
y = 1489;
},
{
smooth = 0;
x = 986;
y = 1538;
},
{
segmentType = curve;
smooth = 1;
x = 803;
y = 1538;
},
{
smooth = 0;
x = 391;
y = 1538;
},
{
smooth = 0;
x = 74;
y = 1224;
},
{
segmentType = curve;
smooth = 1;
x = 74;
y = 768;
},
{
smooth = 0;
x = 74;
y = 293;
},
{
smooth = 0;
x = 325;
y = -23;
}
);
}
);
lib = {
};
name = C;
unicodes = (
);
width = 1391;
};
};
};
},
{
color = 11;
glyphname = D;
lastChange = "2020-05-30 21:56:32 +0000";
layers = (
{
anchors = (
{
name = btm;
position = "{299, 0}";
},
{
name = top;
position = "{291, 568}";
}
);
layerId = "DAAEA780-4710-4479-B303-5C05B40621B2";
paths = (
{
closed = 1;
nodes = (
"151 568 CURVE SMOOTH",
"42 568 LINE",
"42 536 LINE",
"104 524 LINE SMOOTH",
"114 521 OFFCURVE",
"120 513 OFFCURVE",
"120 503 CURVE SMOOTH",
"120 65 LINE SMOOTH",
"120 53 OFFCURVE",
"113 45 OFFCURVE",
"101 43 CURVE SMOOTH",
"42 32 LINE",
"42 0 LINE",
"152 0 LINE SMOOTH",
"195 0 OFFCURVE",
"241 -5 OFFCURVE",
"273 -5 CURVE SMOOTH",
"445 -9 OFFCURVE",
"556 96 OFFCURVE",
"556 300 CURVE SMOOTH",
"556 475 OFFCURVE",
"473 574 OFFCURVE",
"284 574 CURVE SMOOTH",
"238 574 OFFCURVE",
"197 568 OFFCURVE"
);
},
{
closed = 1;
nodes = (
"182 37 CURVE",
"182 533 LINE",
"202 534 OFFCURVE",
"231 537 OFFCURVE",
"264 537 CURVE SMOOTH",
"415 537 OFFCURVE",
"490 464 OFFCURVE",
"490 288 CURVE SMOOTH",
"490 113 OFFCURVE",
"415 35 OFFCURVE",
"283 31 CURVE SMOOTH",
"252 30 OFFCURVE",
"206 33 OFFCURVE"
);
}
);
width = 605;
},
{
anchors = (
{
name = btm;
position = "{299, 0}";
},
{
name = top;
position = "{298, 573}";
}
);
layerId = "925CB40E-795E-477B-BAE7-1EE7D58841B5";
paths = (
{
closed = 1;
nodes = (
"173 573 CURVE SMOOTH",
"32 573 LINE",
"32 518 LINE",
"91 506 LINE SMOOTH",
"100 505 OFFCURVE",
"106 498 OFFCURVE",
"106 489 CURVE SMOOTH",
"106 81 LINE SMOOTH",
"106 72 OFFCURVE",
"100 65 OFFCURVE",
"91 63 CURVE SMOOTH",
"32 52 LINE",
"32 0 LINE",
"174 0 LINE SMOOTH",
"203 0 OFFCURVE",
"261 -5 OFFCURVE",
"294 -6 CURVE SMOOTH",
"474 -9 OFFCURVE",
"580 102 OFFCURVE",
"580 306 CURVE SMOOTH",
"580 494 OFFCURVE",
"488 577 OFFCURVE",
"303 577 CURVE SMOOTH",
"261 577 OFFCURVE",
"222 573 OFFCURVE"
);
},
{
closed = 1;
nodes = (
"244 59 CURVE",
"244 517 LINE",
"248 518 OFFCURVE",
"268 524 OFFCURVE",
"293 524 CURVE SMOOTH",
"392 524 OFFCURVE",
"429 435 OFFCURVE",
"429 285 CURVE SMOOTH",
"429 108 OFFCURVE",
"380 52 OFFCURVE",
"296 51 CURVE SMOOTH",
"279 51 OFFCURVE",
"256 53 OFFCURVE"
);
}
);
width = 614;
}
);
leftKerningGroup = H;
rightKerningGroup = D;
unicode = 0044;
userData = {
com.typemytype.robofont.layerData = {
background = {
anchors = (
{
name = btm;
x = 805;
y = -170;
},
{
name = top;
x = 806;
y = 1700;
}
);
components = (
);
contours = (
{
points = (
{
segmentType = line;
smooth = 0;
x = 102;
y = 0;
},
{
smooth = 0;
x = 194;
y = 0;
},
{
smooth = 0;
x = 274;
y = 0;
},
{
segmentType = curve;
smooth = 1;
x = 365;
y = 0;
},
{
smooth = 0;
x = 483;
y = 0;
},
{
smooth = 0;
x = 600;
y = -14;
},
{
segmentType = curve;
smooth = 1;
x = 698;
y = -16;
},
{
smooth = 0;
x = 1154;
y = -27;
},
{
smooth = 0;
x = 1475;
y = 305;
},
{
segmentType = curve;
smooth = 1;
x = 1475;
y = 806;
},
{
smooth = 0;
x = 1475;
y = 1246;
},
{
smooth = 0;
x = 1256;
y = 1538;
},
{
segmentType = curve;
smooth = 1;
x = 724;
y = 1538;
},
{
smooth = 0;
x = 603;
y = 1538;
},
{
smooth = 0;
x = 488;
y = 1522;
},
{
segmentType = curve;
smooth = 1;
x = 362;
y = 1522;
},
{
segmentType = line;
smooth = 0;
x = 114;
y = 1522;
},
{
segmentType = line;
smooth = 0;
x = 114;
y = 1434;
},
{
segmentType = line;
smooth = 0;
x = 302;
y = 1408;
},
{
segmentType = line;
smooth = 0;
x = 278;
y = 1445;
},
{
segmentType = line;
smooth = 0;
x = 278;
y = 67;
},
{
segmentType = line;
smooth = 0;
x = 318;
y = 112;
},
{
segmentType = line;
smooth = 0;
x = 102;
y = 88;
}
);
},
{
points = (
{
segmentType = line;
smooth = 0;
x = 447;
y = 1427;
},
{
smooth = 0;
x = 503;
y = 1430;
},
{
smooth = 0;
x = 579;
y = 1440;
},
{
segmentType = curve;
smooth = 1;
x = 672;
y = 1440;
},
{
smooth = 0;
x = 1087;
y = 1440;
},
{
smooth = 0;
x = 1294;
y = 1217;
},
{
segmentType = curve;
smooth = 1;
x = 1294;
y = 771;
},
{
smooth = 0;
x = 1294;
y = 326;
},
{
smooth = 0;
x = 1053;
y = 89;
},
{
segmentType = curve;
smooth = 1;
x = 723;
y = 83;
},
{
smooth = 0;
x = 629;
y = 81;
},
{
smooth = 0;
x = 545;
y = 82;
},
{
segmentType = curve;
smooth = 0;
x = 447;
y = 100;
}
);
}
);
lib = {
};
name = D;
unicodes = (
);
width = 1624;
};
};
};
},
{
glyphname = E;
lastChange = "2020-06-25 13:45:18 +0000";
layers = (
{
anchors = (
{
name = btm;
position = "{268, 0}";
},
{
name = top;
position = "{265, 568}";
}
);
guideLines = (
{
angle = 180;
position = "{220, 272}";
},
{
position = "{220, 311}";
}
);
layerId = "DAAEA780-4710-4479-B303-5C05B40621B2";
paths = (
{
closed = 1;
nodes = (
"433 433 LINE",
"437 482 OFFCURVE",
"437 524 OFFCURVE",
"435 568 CURVE",
"42 568 LINE",
"42 536 LINE",
"101 524 LINE SMOOTH",
"113 522 OFFCURVE",
"120 513 OFFCURVE",
"120 501 CURVE SMOOTH",
"120 66 LINE SMOOTH",
"120 53 OFFCURVE",
"114 45 OFFCURVE",
"101 43 CURVE SMOOTH",
"42 32 LINE",
"42 0 LINE",
"453 0 LINE",
"462 47 OFFCURVE",
"468 96 OFFCURVE",
"469 140 CURVE",
"437 144 LINE",
"411 69 LINE SMOOTH",
"407 59 OFFCURVE",
"402 52 OFFCURVE",
"390 48 CURVE SMOOTH",
"372 41 OFFCURVE",
"340 39 OFFCURVE",
"305 39 CURVE SMOOTH",
"182 39 LINE",
"182 272 LINE",
"366 268 LINE",
"366 317 LINE",
"182 311 LINE",
"182 532 LINE",
"283 532 LINE SMOOTH",
"317 532 OFFCURVE",
"346 530 OFFCURVE",
"364 524 CURVE SMOOTH",
"376 519 OFFCURVE",
"382 513 OFFCURVE",
"385 503 CURVE SMOOTH",
"400 433 LINE"
);
}
);
width = 505;
},
{
anchors = (
{
name = btm;
position = "{276, 0}";
},
{
name = top;
position = "{271, 573}";
}
);
layerId = "925CB40E-795E-477B-BAE7-1EE7D58841B5";
paths = (
{
closed = 1;
nodes = (
"472 418 LINE",
"476 471 OFFCURVE",
"476 522 OFFCURVE",
"469 573 CURVE",
"32 573 LINE",
"32 518 LINE",
"89 507 LINE SMOOTH",
"100 505 OFFCURVE",
"106 498 OFFCURVE",
"106 486 CURVE SMOOTH",
"106 83 LINE SMOOTH",
"106 72 OFFCURVE",
"100 65 OFFCURVE",
"89 63 CURVE SMOOTH",
"32 52 LINE",
"32 0 LINE",
"488 0 LINE",
"497 59 OFFCURVE",
"502 112 OFFCURVE",
"502 171 CURVE",
"437 181 LINE",
"406 91 LINE SMOOTH",
"401 78 OFFCURVE",
"397 72 OFFCURVE",
"387 67 CURVE SMOOTH",
"374 62 OFFCURVE",
"345 59 OFFCURVE",
"321 59 CURVE SMOOTH",
"244 59 LINE",
"244 259 LINE",
"400 255 LINE",
"400 330 LINE",
"244 324 LINE",
"244 517 LINE",
"305 517 LINE SMOOTH",
"329 517 OFFCURVE",
"353 513 OFFCURVE",
"366 509 CURVE SMOOTH",
"378 505 OFFCURVE",
"383 498 OFFCURVE",
"387 485 CURVE SMOOTH",
"407 418 LINE"
);
}
);
width = 528;
}
);
leftKerningGroup = H;
rightKerningGroup = E;
unicode = 0045;
userData = {
com.typemytype.robofont.guides = (
{
angle = 180;
isGlobal = 0;
x = 605;
y = 749;
},
{
angle = 0;
isGlobal = 0;
x = 605;
y = 855;
}
);
com.typemytype.robofont.layerData = {
background = {
anchors = (
{
name = btm;
x = 698;
y = -170;
},
{
name = top;
x = 696;
y = 1700;
}
);
components = (
);
contours = (
{
points = (
{
segmentType = line;
smooth = 0;
x = 103;
y = 0;
},
{
segmentType = line;
smooth = 0;
x = 1212;
y = 0;
},
{
segmentType = line;
smooth = 0;
x = 1275;
y = 346;
},
{
segmentType = line;
smooth = 0;
x = 1178;
y = 377;
},
{
segmentType = line;
smooth = 0;
x = 1074;
y = 121;
},
{
segmentType = line;
smooth = 0;
x = 447;
y = 104;
},
{
segmentType = line;
smooth = 0;
x = 447;
y = 735;
},
{
segmentType = line;
smooth = 0;
x = 824;
y = 730;
},
{
segmentType = line;
smooth = 0;
x = 849;
y = 555;
},
{
segmentType = line;
smooth = 0;
x = 953;
y = 555;
},
{
segmentType = line;
smooth = 0;
x = 953;
y = 1007;
},
{
segmentType = line;
smooth = 0;
x = 849;
y = 1007;
},
{
segmentType = line;
smooth = 0;
x = 824;
y = 837;
},
{
segmentType = line;
smooth = 0;
x = 447;
y = 831;
},
{
segmentType = line;
smooth = 0;
x = 447;
y = 1427;
},
{
segmentType = line;
smooth = 0;
x = 995;
y = 1418;
},
{
segmentType = line;
smooth = 0;
x = 1051;
y = 1221;
},
{
segmentType = line;
smooth = 0;
x = 1148;
y = 1221;
},
{
segmentType = line;
smooth = 0;
x = 1120;
y = 1522;
},
{
segmentType = line;
smooth = 0;
x = 107;
y = 1522;
},
{
segmentType = line;
smooth = 0;
x = 107;
y = 1434;
},
{
segmentType = line;
smooth = 0;
x = 299;
y = 1409;
},
{
segmentType = line;
smooth = 0;
x = 278;
y = 1453;
},
{
segmentType = line;
smooth = 0;
x = 278;
y = 66;
},
{
segmentType = line;
smooth = 0;
x = 325;
y = 113;
},
{
segmentType = line;
smooth = 0;
x = 103;
y = 88;
}
);
}
);
lib = {
};
name = E;
unicodes = (
);
width = 1348;
};
};
};
},
{
glyphname = F;
lastChange = "2020-05-30 21:56:24 +0000";
layers = (
{
anchors = (
{
name = btm;
position = "{254, 0}";
},
{
name = top;
position = "{254, 568}";
}
);
layerId = "DAAEA780-4710-4479-B303-5C05B40621B2";
paths = (
{
closed = 1;
nodes = (
"366 260 LINE",
"366 310 LINE",
"182 304 LINE",
"182 532 LINE",
"283 532 LINE SMOOTH",
"317 532 OFFCURVE",
"346 530 OFFCURVE",
"364 524 CURVE SMOOTH",
"376 519 OFFCURVE",
"382 513 OFFCURVE",
"385 503 CURVE SMOOTH",
"400 433 LINE",
"433 433 LINE",
"437 482 OFFCURVE",
"437 524 OFFCURVE",
"435 568 CURVE",
"42 568 LINE",
"42 536 LINE",
"101 524 LINE SMOOTH",
"113 522 OFFCURVE",
"120 513 OFFCURVE",
"120 501 CURVE SMOOTH",
"120 66 LINE SMOOTH",
"120 53 OFFCURVE",
"114 45 OFFCURVE",
"101 43 CURVE SMOOTH",
"42 32 LINE",
"42 0 LINE",
"293 0 LINE",
"293 32 LINE",
"201 44 LINE SMOOTH",
"190 45 OFFCURVE",
"182 54 OFFCURVE",
"182 65 CURVE SMOOTH",
"182 265 LINE"
);
}
);
width = 464;
},
{
anchors = (
{
name = btm;
position = "{234, -62}";
},
{
name = top;
position = "{234, 618}";
}
);
associatedMasterId = "DAAEA780-4710-4479-B303-5C05B40621B2";
layerId = "250A3C6B-31B9-4D3E-9872-561517E1DD17";
name = "Light Oct 7 15, 12:37";
paths = (
{
closed = 1;
nodes = (
"163 265 LINE",
"272 265 LINE SMOOTH",
"285 265 OFFCURVE",
"291 257 OFFCURVE",
"295 245 CURVE SMOOTH",
"310 198 LINE",
"342 198 LINE",
"342 370 LINE",
"310 370 LINE",
"295 324 LINE SMOOTH",
"291 311 OFFCURVE",
"285 304 OFFCURVE",
"272 304 CURVE SMOOTH",
"163 304 LINE",
"163 532 LINE",
"263 532 LINE SMOOTH",
"299 532 OFFCURVE",
"329 530 OFFCURVE",
"348 524 CURVE SMOOTH",
"359 520 OFFCURVE",
"365 513 OFFCURVE",
"369 503 CURVE SMOOTH",
"395 433 LINE",
"428 433 LINE",
"429 482 OFFCURVE",
"427 523 OFFCURVE",
"418 568 CURVE",
"23 568 LINE",
"23 536 LINE",
"81 524 LINE SMOOTH",
"94 522 OFFCURVE",
"101 513 OFFCURVE",
"101 501 CURVE SMOOTH",
"101 66 LINE SMOOTH",
"101 53 OFFCURVE",
"94 45 OFFCURVE",
"81 43 CURVE SMOOTH",
"23 32 LINE",
"23 0 LINE",
"273 0 LINE",
"273 32 LINE",
"181 44 LINE SMOOTH",
"170 45 OFFCURVE",
"163 54 OFFCURVE",
"163 65 CURVE SMOOTH"
);
}
);
width = 460;
},
{
anchors = (
{
name = btm;
position = "{267, 0}";
},
{
name = top;
position = "{267, 573}";
}
);
layerId = "925CB40E-795E-477B-BAE7-1EE7D58841B5";
paths = (
{
closed = 1;
nodes = (
"400 246 LINE",
"400 320 LINE",
"244 315 LINE",
"244 517 LINE",
"305 517 LINE SMOOTH",
"329 517 OFFCURVE",
"353 513 OFFCURVE",
"366 509 CURVE SMOOTH",
"378 505 OFFCURVE",
"383 498 OFFCURVE",
"387 485 CURVE SMOOTH",
"407 418 LINE",
"472 418 LINE",
"476 471 OFFCURVE",
"476 522 OFFCURVE",
"469 573 CURVE",
"32 573 LINE",
"32 518 LINE",
"89 507 LINE SMOOTH",
"100 505 OFFCURVE",
"106 498 OFFCURVE",
"106 486 CURVE SMOOTH",
"106 82 LINE SMOOTH",
"106 72 OFFCURVE",
"100 65 OFFCURVE",
"90 63 CURVE SMOOTH",
"32 52 LINE",
"32 0 LINE",
"353 0 LINE",
"353 52 LINE",
"260 64 LINE SMOOTH",
"251 65 OFFCURVE",
"244 72 OFFCURVE",
"244 81 CURVE SMOOTH",
"244 250 LINE"
);
}
);
width = 490;
}
);
leftKerningGroup = H;
unicode = 0046;
userData = {
com.typemytype.robofont.layerData = {
"Light Oct 7 15, 12:37" = {
anchors = (
{
name = btm;
x = 644;
y = -170;
},
{
name = top;
x = 644;
y = 1700;
}
);
components = (
);
contours = (
{
points = (
{
segmentType = line;
smooth = 0;
x = 447;
y = 729;
},
{
segmentType = line;
smooth = 1;
x = 748;
y = 729;
},
{
smooth = 0;
x = 785;
y = 729;
},
{
smooth = 0;
x = 801;
y = 708;
},
{
segmentType = curve;
smooth = 1;
x = 812;
y = 674;
},
{
segmentType = line;
smooth = 0;
x = 853;
y = 545;
},
{
segmentType = line;
smooth = 0;
x = 941;
y = 545;
},
{
segmentType = line;
smooth = 0;
x = 941;
y = 1017;
},
{
segmentType = line;
smooth = 0;
x = 853;
y = 1017;
},
{
segmentType = line;
smooth = 1;
x = 812;
y = 890;
},
{
smooth = 0;
x = 801;
y = 856;
},
{
smooth = 0;
x = 785;
y = 835;
},
{
segmentType = curve;
smooth = 1;
x = 748;
y = 835;
},
{
segmentType = line;
smooth = 0;
x = 447;
y = 835;
},
{
segmentType = line;
smooth = 0;
x = 447;
y = 1464;
},
{
segmentType = line;
smooth = 1;
x = 724;
y = 1464;
},
{
smooth = 0;
x = 821;
y = 1464;
},
{
smooth = 0;
x = 906;
y = 1458;
},
{
segmentType = curve;
smooth = 1;
x = 957;
y = 1440;
},
{
smooth = 0;
x = 988;
y = 1429;
},
{
smooth = 0;
x = 1003;
y = 1411;
},
{
segmentType = curve;
smooth = 1;
x = 1014;
y = 1383;
},
{
segmentType = line;
smooth = 0;
x = 1087;
y = 1192;
},
{
segmentType = line;
smooth = 0;
x = 1176;
y = 1192;
},
{
smooth = 0;
x = 1181;
y = 1325;
},
{
smooth = 0;
x = 1173;
y = 1439;
},
{
segmentType = curve;
smooth = 0;
x = 1150;
y = 1562;
},
{
segmentType = line;
smooth = 0;
x = 62;
y = 1562;
},
{
segmentType = line;
smooth = 0;
x = 62;
y = 1474;
},
{
segmentType = line;
smooth = 1;
x = 223;
y = 1442;
},
{
smooth = 0;
x = 258;
y = 1435;
},
{
smooth = 0;
x = 277;
y = 1412;
},
{
segmentType = curve;
smooth = 1;
x = 277;
y = 1377;
},
{
segmentType = line;
smooth = 1;
x = 277;
y = 182;
},
{
smooth = 0;
x = 277;
y = 146;
},
{
smooth = 0;
x = 259;
y = 124;
},
{
segmentType = curve;
smooth = 1;
x = 223;
y = 117;
},
{
segmentType = line;
smooth = 0;
x = 62;
y = 88;
},
{
segmentType = line;
smooth = 0;
x = 62;
y = 0;
},
{
segmentType = line;
smooth = 0;
x = 751;
y = 0;
},
{
segmentType = line;
smooth = 0;
x = 751;
y = 88;
},
{
segmentType = line;
smooth = 1;
x = 498;
y = 121;
},
{
smooth = 0;
x = 468;
y = 125;
},
{
smooth = 0;
x = 447;
y = 149;
},
{
segmentType = curve;
smooth = 1;
x = 447;
y = 179;
}
);
}
);
lib = {
};
name = F;
unicodes = (
);
width = 1264;
};
background = {
anchors = (
{
name = btm;
x = 644;
y = -170;
},
{
name = top;
x = 644;
y = 1700;
}
);
components = (
);
contours = (
{
points = (
{
segmentType = line;
smooth = 0;
x = 111;
y = 0;
},
{
segmentType = line;
smooth = 0;
x = 767;
y = 0;
},
{
segmentType = line;
smooth = 0;
x = 767;
y = 88;
},
{
segmentType = line;
smooth = 0;
x = 406;
y = 110;
},
{
segmentType = line;
smooth = 0;
x = 447;
y = 66;
},
{
segmentType = line;
smooth = 0;
x = 447;
y = 722;
},
{
segmentType = line;
smooth = 0;
x = 856;
y = 714;
},
{
segmentType = line;
smooth = 0;
x = 890;
y = 541;
},
{
segmentType = line;
smooth = 0;
x = 985;
y = 541;
},
{
segmentType = line;
smooth = 0;
x = 985;
y = 994;
},
{
segmentType = line;
smooth = 0;
x = 890;
y = 994;
},
{
segmentType = line;
smooth = 0;
x = 856;
y = 827;
},
{
segmentType = line;
smooth = 0;
x = 447;
y = 821;
},
{
segmentType = line;
smooth = 0;
x = 447;
y = 1427;
},
{
segmentType = line;
smooth = 0;
x = 1024;
y = 1418;
},
{
segmentType = line;
smooth = 0;
x = 1080;
y = 1185;
},
{
segmentType = line;
smooth = 0;
x = 1192;
y = 1185;
},
{
segmentType = line;
smooth = 0;
x = 1171;
y = 1522;
},
{
segmentType = line;
smooth = 0;
x = 99;
y = 1522;
},
{
segmentType = line;
smooth = 0;
x = 99;
y = 1434;
},
{
segmentType = line;
smooth = 0;
x = 321;
y = 1406;
},
{
segmentType = line;
smooth = 0;
x = 278;
y = 1450;
},
{
segmentType = line;
smooth = 0;
x = 278;
y = 66;
},
{
segmentType = line;
smooth = 0;
x = 322;
y = 111;
},
{
segmentType = line;
smooth = 0;
x = 111;
y = 88;
}
);
}
);
lib = {
};
name = F;
unicodes = (
);
width = 1236;
};
};
};
},
{
color = 11;
glyphname = G;
lastChange = "2020-05-30 21:57:03 +0000";
layers = (
{
anchors = (
{
name = btm;
position = "{294, 0}";
},
{
name = top;
position = "{321, 568}";
}
);
guideLines = (
{
angle = 270;
position = "{498, 372}";
}
);
layerId = "DAAEA780-4710-4479-B303-5C05B40621B2";
paths = (
{
closed = 1;
nodes = (
"375 -8 OFFCURVE",
"432 20 OFFCURVE",
"472 79 CURVE",
"464 114 LINE",
"431 55 OFFCURVE",
"373 37 OFFCURVE",
"315 37 CURVE SMOOTH",
"174 37 OFFCURVE",
"118 150 OFFCURVE",
"118 289 CURVE SMOOTH",
"118 461 OFFCURVE",
"201 541 OFFCURVE",
"312 541 CURVE SMOOTH",
"356 541 OFFCURVE",
"393 531 OFFCURVE",
"415 518 CURVE SMOOTH",
"427 512 OFFCURVE",
"431 504 OFFCURVE",
"434 490 CURVE SMOOTH",
"450 420 LINE",
"486 420 LINE",
"492 461 OFFCURVE",
"496 499 OFFCURVE",
"494 540 CURVE",
"445 567 OFFCURVE",
"387 576 OFFCURVE",
"329 576 CURVE SMOOTH",
"165 576 OFFCURVE",
"48 475 OFFCURVE",
"48 277 CURVE SMOOTH",
"48 110 OFFCURVE",
"133 -8 OFFCURVE",
"296 -8 CURVE SMOOTH"
);
},
{
closed = 1;
nodes = (
"498 4 LINE",
"498 239 LINE",
"544 246 LINE",
"544 285 LINE",
"325 285 LINE",
"325 246 LINE",
"435 239 LINE",
"435 47 LINE",
"439 47 LINE",
"481 -3 LINE"
);
}
);
width = 579;
},
{
anchors = (
{
name = btm;
position = "{295, 0}";
},
{
name = top;
position = "{317, 573}";
}
);
layerId = "925CB40E-795E-477B-BAE7-1EE7D58841B5";
paths = (
{
closed = 1;
nodes = (
"359 -10 OFFCURVE",
"418 31 OFFCURVE",
"446 80 CURVE",
"424 120 LINE",
"401 85 OFFCURVE",
"365 61 OFFCURVE",
"312 61 CURVE SMOOTH",
"221 61 OFFCURVE",
"195 138 OFFCURVE",
"195 277 CURVE SMOOTH",
"195 453 OFFCURVE",
"236 528 OFFCURVE",
"319 528 CURVE SMOOTH",
"346 528 OFFCURVE",
"365 520 OFFCURVE",
"378 510 CURVE SMOOTH",
"387 503 OFFCURVE",
"392 497 OFFCURVE",
"396 482 CURVE SMOOTH",
"416 399 LINE",
"500 399 LINE",
"507 450 OFFCURVE",
"511 501 OFFCURVE",
"507 549 CURVE",
"458 569 OFFCURVE",
"390 583 OFFCURVE",
"323 583 CURVE SMOOTH",
"139 583 OFFCURVE",
"35 487 OFFCURVE",
"35 280 CURVE SMOOTH",
"35 98 OFFCURVE",
"117 -10 OFFCURVE",
"269 -10 CURVE SMOOTH"
);
},
{
closed = 1;
nodes = (
"520 9 LINE",
"520 232 LINE",
"557 238 LINE",
"557 294 LINE",
"320 294 LINE",
"320 238 LINE",
"389 230 LINE",
"389 53 LINE",
"416 53 LINE",
"494 -6 LINE"
);
}
);
width = 580;
}
);
leftKerningGroup = O;
rightKerningGroup = G;
unicode = 0047;
userData = {
com.typemytype.robofont.layerData = {
background = {
anchors = (
{
name = btm;
x = 784;
y = -170;
},
{
name = top;
x = 820;
y = 1700;
}
);
components = (
);
contours = (
{
points = (
{
segmentType = curve;
smooth = 1;
x = 803;
y = -23;
},
{
smooth = 0;
x = 1077;
y = -23;
},
{
smooth = 0;
x = 1237;
y = 77;
},
{
segmentType = curve;
smooth = 0;
x = 1345;
y = 82;
},
{
segmentType = line;
smooth = 0;
x = 1345;
y = 669;
},
{
segmentType = line;
smooth = 0;
x = 1292;
y = 627;
},
{
segmentType = line;
smooth = 0;
x = 1471;
y = 657;
},
{
segmentType = line;
smooth = 0;
x = 1471;
y = 765;
},
{
segmentType = line;
smooth = 0;
x = 889;
y = 765;
},
{
segmentType = line;
smooth = 0;
x = 889;
y = 657;
},
{
segmentType = line;
smooth = 0;
x = 1233;
y = 632;
},
{
segmentType = line;
smooth = 0;
x = 1173;
y = 671;
},
{
segmentType = line;
smooth = 0;
x = 1173;
y = 170;
},
{
smooth = 0;
x = 1100;
y = 113;
},
{
smooth = 0;
x = 961;
y = 76;
},
{
segmentType = curve;
smooth = 1;
x = 816;
y = 76;
},
{
smooth = 0;
x = 458;
y = 76;
},
{
smooth = 0;
x = 291;
y = 428;
},
{
segmentType = curve;
smooth = 1;
x = 291;
y = 789;
},
{
smooth = 0;
x = 291;
y = 1220;
},
{
smooth = 0;
x = 531;
y = 1440;
},
{
segmentType = curve;
smooth = 1;
x = 847;
y = 1440;
},
{
smooth = 0;
x = 1040;
y = 1440;
},
{
smooth = 0;
x = 1130;
y = 1394;
},
{
segmentType = curve;
smooth = 0;
x = 1161;
y = 1371;
},
{
segmentType = line;
smooth = 0;
x = 1206;
y = 1134;
},
{
segmentType = line;
smooth = 0;
x = 1313;
y = 1134;
},
{
segmentType = line;
smooth = 0;
x = 1329;
y = 1474;
},
{
smooth = 0;
x = 1259;
y = 1491;
},
{
smooth = 0;
x = 1077;
y = 1538;
},
{
segmentType = curve;
smooth = 1;
x = 866;
y = 1538;
},
{
smooth = 0;
x = 439;
y = 1538;
},
{
smooth = 0;
x = 99;
y = 1250;
},
{
segmentType = curve;
smooth = 1;
x = 99;
y = 736;
},
{
smooth = 0;
x = 99;
y = 304;
},
{
smooth = 0;
x = 359;
y = -23;
}
);
}
);
lib = {
};
name = G;
unicodes = (
);
width = 1552;
};
};
};
},
{
color = 11;
glyphname = H;
lastChange = "2020-05-31 17:45:10 +0000";
layers = (
{
anchors = (
{
name = btm;
position = "{329, 0}";
},
{
name = top;
position = "{329, 568}";
}
);
layerId = "DAAEA780-4710-4479-B303-5C05B40621B2";
paths = (
{
closed = 1;
nodes = (
"613 568 LINE",
"400 568 LINE",
"400 536 LINE",
"454 524 LINE SMOOTH",
"467 521 OFFCURVE",
"473 514 OFFCURVE",
"473 501 CURVE SMOOTH",
"473 311 LINE",
"182 311 LINE",
"182 501 LINE SMOOTH",
"182 514 OFFCURVE",
"189 522 OFFCURVE",
"201 524 CURVE SMOOTH",
"258 536 LINE",
"258 568 LINE",
"42 568 LINE",
"42 536 LINE",
"101 524 LINE SMOOTH",
"113 522 OFFCURVE",
"120 513 OFFCURVE",
"120 500 CURVE SMOOTH",
"120 67 LINE SMOOTH",
"120 53 OFFCURVE",
"114 45 OFFCURVE",
"101 43 CURVE SMOOTH",
"42 32 LINE",
"42 0 LINE",
"258 0 LINE",
"258 32 LINE",
"202 43 LINE SMOOTH",
"189 45 OFFCURVE",
"182 53 OFFCURVE",
"182 66 CURVE SMOOTH",
"182 272 LINE",
"473 272 LINE",
"473 67 LINE SMOOTH",
"473 53 OFFCURVE",
"466 45 OFFCURVE",
"453 43 CURVE SMOOTH",
"400 32 LINE",
"400 0 LINE",
"613 0 LINE",
"613 32 LINE",
"555 43 LINE SMOOTH",
"541 45 OFFCURVE",
"535 53 OFFCURVE",
"535 67 CURVE SMOOTH",
"535 500 LINE SMOOTH",
"535 513 OFFCURVE",
"542 522 OFFCURVE",
"555 524 CURVE SMOOTH",
"613 536 LINE"
);
}
);
width = 655;
},
{
anchors = (
{
name = btm;
position = "{346, 0}";
},
{
name = top;
position = "{346, 573}";
}
);
layerId = "925CB40E-795E-477B-BAE7-1EE7D58841B5";
paths = (
{
closed = 1;
nodes = (
"655 573 LINE",
"385 573 LINE",
"385 518 LINE",
"427 507 LINE SMOOTH",
"437 504 OFFCURVE",
"443 497 OFFCURVE",
"443 486 CURVE SMOOTH",
"443 324 LINE",
"244 324 LINE",
"244 486 LINE SMOOTH",
"244 498 OFFCURVE",
"249 504 OFFCURVE",
"260 507 CURVE SMOOTH",
"306 518 LINE",
"306 573 LINE",
"32 573 LINE",
"32 518 LINE",
"89 507 LINE SMOOTH",
"100 505 OFFCURVE",
"106 498 OFFCURVE",
"106 486 CURVE SMOOTH",
"106 83 LINE SMOOTH",
"106 72 OFFCURVE",
"100 65 OFFCURVE",
"89 63 CURVE SMOOTH",
"32 52 LINE",
"32 0 LINE",
"306 0 LINE",
"306 52 LINE",
"260 63 LINE SMOOTH",
"249 65 OFFCURVE",
"244 72 OFFCURVE",
"244 83 CURVE SMOOTH",
"244 257 LINE",
"443 257 LINE",
"443 83 LINE SMOOTH",
"443 72 OFFCURVE",
"437 66 OFFCURVE",
"426 63 CURVE SMOOTH",
"386 52 LINE",
"386 0 LINE",
"655 0 LINE",
"655 52 LINE",
"598 63 LINE SMOOTH",
"587 65 OFFCURVE",
"581 72 OFFCURVE",
"581 83 CURVE SMOOTH",
"581 486 LINE SMOOTH",
"581 497 OFFCURVE",
"587 505 OFFCURVE",
"597 507 CURVE SMOOTH",
"655 518 LINE"
);
}
);
width = 687;
}
);
leftKerningGroup = H;
rightKerningGroup = H;
rightMetricsKey = "=|";
unicode = 0048;
userData = {
com.schriftgestaltung.Glyphs.rightMetricsKey = "=|";
com.typemytype.robofont.layerData = {
background = {
anchors = (
{
name = btm;
x = 890;
y = -170;
},
{
name = top;
x = 895;
y = 1700;
}
);
components = (
);
contours = (
{
points = (
{
segmentType = line;
smooth = 0;
x = 161;
y = 0;
},
{
segmentType = line;
smooth = 0;
x = 683;
y = 0;
},
{
segmentType = line;
smooth = 0;
x = 683;
y = 88;
},
{
segmentType = line;
smooth = 0;
x = 460;
y = 111;
},
{
segmentType = line;
smooth = 0;
x = 504;
y = 86;
},
{
segmentType = line;
smooth = 0;
x = 504;
y = 728;
},
{
segmentType = line;
smooth = 0;
x = 1285;
y = 728;
},
{
segmentType = line;
smooth = 0;
x = 1285;
y = 76;
},
{
segmentType = line;
smooth = 0;
x = 1341;
y = 113;
},
{
segmentType = line;
smooth = 0;
x = 1114;
y = 88;
},
{
segmentType = line;
smooth = 0;
x = 1114;
y = 0;
},
{
segmentType = line;
smooth = 0;
x = 1623;
y = 0;
},
{
segmentType = line;
smooth = 0;
x = 1623;
y = 88;
},
{
segmentType = line;
smooth = 0;
x = 1400;
y = 113;
},
{
segmentType = line;
smooth = 0;
x = 1455;
y = 76;
},
{
segmentType = line;
smooth = 0;
x = 1455;
y = 1449;
},
{
segmentType = line;
smooth = 0;
x = 1421;
y = 1407;
},
{
segmentType = line;
smooth = 0;
x = 1623;
y = 1434;
},
{
segmentType = line;
smooth = 0;
x = 1623;
y = 1522;
},
{
segmentType = line;
smooth = 0;
x = 1115;
y = 1522;
},
{
segmentType = line;
smooth = 0;
x = 1115;
y = 1434;
},
{
segmentType = line;
smooth = 0;
x = 1320;
y = 1407;
},
{
segmentType = line;
smooth = 0;
x = 1285;
y = 1448;
},
{
segmentType = line;
smooth = 0;
x = 1285;
y = 836;
},
{
segmentType = line;
smooth = 0;
x = 504;
y = 836;
},
{
segmentType = line;
smooth = 0;
x = 504;
y = 1446;
},
{
segmentType = line;
smooth = 0;
x = 473;
y = 1408;
},
{
segmentType = line;
smooth = 0;
x = 682;
y = 1434;
},
{
segmentType = line;
smooth = 0;
x = 682;
y = 1522;
},
{
segmentType = line;
smooth = 0;
x = 167;
y = 1522;
},
{
segmentType = line;
smooth = 0;
x = 167;
y = 1434;
},
{
segmentType = line;
smooth = 0;
x = 369;
y = 1407;
},
{
segmentType = line;
smooth = 0;
x = 335;
y = 1444;
},
{
segmentType = line;
smooth = 0;
x = 335;
y = 92;
},
{
segmentType = line;
smooth = 0;
x = 384;
y = 113;
},
{
segmentType = line;
smooth = 0;
x = 161;
y = 88;
}
);
}
);
lib = {
};
name = H;
unicodes = (
);
width = 1762;
};
};
};
},
{
glyphname = I;
lastChange = "2020-05-30 21:57:25 +0000";
layers = (
{
anchors = (
{
name = btm;
position = "{152, 0}";
},
{
name = top;
position = "{151, 568}";
}
);
layerId = "DAAEA780-4710-4479-B303-5C05B40621B2";
paths = (
{
closed = 1;
nodes = (
"260 568 LINE",
"42 568 LINE",
"42 536 LINE",
"101 524 LINE SMOOTH",
"113 522 OFFCURVE",
"120 513 OFFCURVE",
"120 501 CURVE SMOOTH",
"120 66 LINE SMOOTH",
"120 53 OFFCURVE",
"114 45 OFFCURVE",
"101 43 CURVE SMOOTH",
"42 32 LINE",
"42 0 LINE",
"260 0 LINE",
"260 32 LINE",
"202 43 LINE SMOOTH",
"189 45 OFFCURVE",
"182 53 OFFCURVE",
"182 66 CURVE SMOOTH",
"182 501 LINE SMOOTH",
"182 514 OFFCURVE",
"189 522 OFFCURVE",
"202 524 CURVE SMOOTH",
"260 536 LINE"
);
}
);
width = 302;
},
{
anchors = (
{
name = btm;
position = "{185, 0}";
},
{
name = top;
position = "{175, 573}";
}
);
layerId = "925CB40E-795E-477B-BAE7-1EE7D58841B5";
paths = (
{
closed = 1;
nodes = (
"317 573 LINE",
"32 573 LINE",
"32 518 LINE",
"89 507 LINE SMOOTH",
"100 505 OFFCURVE",
"106 498 OFFCURVE",
"106 486 CURVE SMOOTH",
"106 83 LINE SMOOTH",
"106 72 OFFCURVE",
"100 65 OFFCURVE",
"89 63 CURVE SMOOTH",
"32 52 LINE",
"32 0 LINE",
"317 0 LINE",
"317 52 LINE",
"261 63 LINE SMOOTH",
"249 65 OFFCURVE",
"244 72 OFFCURVE",
"244 84 CURVE SMOOTH",
"244 486 LINE SMOOTH",
"244 498 OFFCURVE",
"249 505 OFFCURVE",
"261 507 CURVE SMOOTH",
"317 518 LINE"
);
}
);
width = 349;
}
);
leftKerningGroup = H;
rightKerningGroup = H;
rightMetricsKey = "=|";
unicode = 0049;
userData = {
com.schriftgestaltung.Glyphs.rightMetricsKey = "=|";
com.typemytype.robofont.layerData = {
background = {
anchors = (
{
name = btm;
x = 423;
y = -170;
},
{
name = top;
x = 423;
y = 1700;
}
);
components = (
);
contours = (
{
points = (
{
segmentType = line;
smooth = 0;
x = 135;
y = 0;
},
{
segmentType = line;
smooth = 0;
x = 704;
y = 0;
},
{
segmentType = line;
smooth = 0;
x = 704;
y = 87;
},
{
segmentType = line;
smooth = 0;
x = 468;
y = 111;
},
{
segmentType = line;
smooth = 0;
x = 505;
y = 59;
},
{
segmentType = line;
smooth = 0;
x = 505;
y = 1452;
},
{
segmentType = line;
smooth = 0;
x = 474;
y = 1409;
},
{
segmentType = line;
smooth = 0;
x = 704;
y = 1434;
},
{
segmentType = line;
smooth = 0;
x = 704;
y = 1522;
},
{
segmentType = line;
smooth = 0;
x = 135;
y = 1522;
},
{
segmentType = line;
smooth = 0;
x = 135;
y = 1434;
},
{
segmentType = line;
smooth = 0;
x = 374;
y = 1407;
},
{
segmentType = line;
smooth = 0;
x = 335;
y = 1452;
},
{
segmentType = line;
smooth = 0;
x = 335;
y = 59;
},
{
segmentType = line;
smooth = 0;
x = 371;
y = 111;
},
{
segmentType = line;
smooth = 0;
x = 135;
y = 88;
}
);
}
);
lib = {
};
name = I;
unicodes = (
);
width = 792;
};
};
};
},
{
glyphname = J;
lastChange = "2020-05-30 21:57:34 +0000";
layers = (
{
anchors = (
{
name = btm;
position = "{106, 0}";
},
{
name = top;
position = "{140, 568}";
}
);
layerId = "DAAEA780-4710-4479-B303-5C05B40621B2";
paths = (
{
closed = 1;
nodes = (
"194 524 CURVE SMOOTH",
"245 536 LINE",
"245 568 LINE",
"34 568 LINE",
"34 536 LINE",
"93 524 LINE SMOOTH",
"105 522 OFFCURVE",
"112 513 OFFCURVE",
"112 501 CURVE SMOOTH",
"112 149 LINE SMOOTH",
"112 13 OFFCURVE",
"91 -32 OFFCURVE",
"1 -102 CURVE",
"19 -132 LINE",
"160 -60 OFFCURVE",
"174 -5 OFFCURVE",
"174 163 CURVE SMOOTH",
"174 501 LINE SMOOTH",
"174 514 OFFCURVE",
"181 521 OFFCURVE"
);
}
);
width = 283;
},
{
anchors = (
{
name = btm;
position = "{130, 0}";
},
{
name = top;
position = "{163, 573}";
}
);
layerId = "925CB40E-795E-477B-BAE7-1EE7D58841B5";
paths = (
{
closed = 1;
nodes = (
"252 507 CURVE SMOOTH",
"301 518 LINE",
"301 573 LINE",
"24 573 LINE",
"24 518 LINE",
"80 507 LINE SMOOTH",
"91 505 OFFCURVE",
"97 498 OFFCURVE",
"97 486 CURVE SMOOTH",
"97 111 LINE SMOOTH",
"97 -9 OFFCURVE",
"82 -48 OFFCURVE",
"-15 -99 CURVE",
"8 -154 LINE",
"193 -106 OFFCURVE",
"235 -41 OFFCURVE",
"235 128 CURVE SMOOTH",
"235 486 LINE SMOOTH",
"235 498 OFFCURVE",
"241 505 OFFCURVE"
);
}
);
width = 329;
}
);
leftKerningGroup = J;
rightKerningGroup = J;
unicode = 004A;
userData = {
com.typemytype.robofont.layerData = {
background = {
anchors = (
{
name = btm;
x = 294;
y = -170;
},
{
name = top;
x = 390;
y = 1700;
}
);
components = (
);
contours = (
{
points = (
{
segmentType = line;
smooth = 0;
x = 42;
y = -354;
},
{
smooth = 0;
x = 219;
y = -321;
},
{
smooth = 0;
x = 413;
y = -192;
},
{
segmentType = curve;
smooth = 1;
x = 460;
y = 43;
},
{
smooth = 0;
x = 485;
y = 169;
},
{
smooth = 0;
x = 482;
y = 336;
},
{
segmentType = curve;
smooth = 1;
x = 482;
y = 563;
},
{
segmentType = line;
smooth = 0;
x = 482;
y = 1457;
},
{
segmentType = line;
smooth = 0;
x = 427;
y = 1404;
},
{
segmentType = line;
smooth = 0;
x = 677;
y = 1434;
},
{
segmentType = line;
smooth = 0;
x = 677;
y = 1522;
},
{
segmentType = line;
smooth = 0;
x = 107;
y = 1522;
},
{
segmentType = line;
smooth = 0;
x = 107;
y = 1434;
},
{
segmentType = line;
smooth = 0;
x = 369;
y = 1404;
},
{
segmentType = line;
smooth = 0;
x = 312;
y = 1457;
},
{
segmentType = line;
smooth = 0;
x = 312;
y = 518;
},
{
smooth = 0;
x = 312;
y = 212;
},
{
smooth = 0;
x = 307;
y = 99;
},
{
segmentType = curve;
smooth = 1;
x = 270;
y = -18;
},
{
smooth = 0;
x = 227;
y = -156;
},
{
smooth = 0;
x = 119;
y = -248;
},
{
segmentType = curve;
smooth = 0;
x = -3;
y = -281;
}
);
}
);
lib = {
};
name = J;
unicodes = (
);
width = 738;
};
};
};
},
{
glyphname = K;
lastChange = "2020-05-30 21:57:57 +0000";
layers = (
{
anchors = (
{
name = btm;
position = "{317, 0}";
},
{
name = top;
position = "{296, 568}";
}
);
layerId = "DAAEA780-4710-4479-B303-5C05B40621B2";
paths = (
{
closed = 1;
nodes = (
"266 0 LINE",
"266 32 LINE",
"203 43 LINE SMOOTH",
"189 46 OFFCURVE",
"182 52 OFFCURVE",
"182 66 CURVE SMOOTH",
"182 501 LINE SMOOTH",
"182 514 OFFCURVE",
"189 522 OFFCURVE",
"202 524 CURVE SMOOTH",
"260 536 LINE",
"260 568 LINE",
"42 568 LINE",
"42 536 LINE",
"100 524 LINE SMOOTH",
"113 522 OFFCURVE",
"120 515 OFFCURVE",
"120 501 CURVE SMOOTH",
"120 66 LINE SMOOTH",
"120 52 OFFCURVE",
"113 45 OFFCURVE",
"100 43 CURVE SMOOTH",
"42 32 LINE",
"42 0 LINE"
);
},
{
closed = 1;
nodes = (
"286 310 LINE",
"469 511 LINE SMOOTH",
"477 519 OFFCURVE",
"484 522 OFFCURVE",
"495 524 CURVE SMOOTH",
"544 536 LINE",
"544 568 LINE",
"356 568 LINE",
"356 536 LINE",
"422 522 LINE",
"164 231 LINE",
"164 177 LINE"
);
},
{
closed = 1;
nodes = (
"561 0 LINE",
"561 32 LINE",
"519 42 LINE SMOOTH",
"502 46 OFFCURVE",
"495 51 OFFCURVE",
"481 72 CURVE SMOOTH",
"386 222 LINE SMOOTH",
"348 283 OFFCURVE",
"324 319 OFFCURVE",
"297 347 CURVE",
"257 304 LINE",
"278 275 OFFCURVE",
"299 242 OFFCURVE",
"324 200 CURVE SMOOTH",
"392 83 LINE SMOOTH",
"423 31 OFFCURVE",
"445 0 OFFCURVE",
"460 0 CURVE SMOOTH"
);
}
);
width = 567;
},
{
anchors = (
{
name = btm;
position = "{334, 0}";
},
{
name = top;
position = "{307, 573}";
}
);
layerId = "925CB40E-795E-477B-BAE7-1EE7D58841B5";
paths = (
{
closed = 1;
nodes = (
"317 0 LINE",
"317 52 LINE",
"261 62 LINE SMOOTH",
"249 64 OFFCURVE",
"243 70 OFFCURVE",
"243 81 CURVE SMOOTH",
"243 486 LINE SMOOTH",
"243 498 OFFCURVE",
"249 505 OFFCURVE",
"260 507 CURVE SMOOTH",
"317 518 LINE",
"317 573 LINE",
"32 573 LINE",
"32 518 LINE",
"89 507 LINE SMOOTH",
"100 505 OFFCURVE",
"106 498 OFFCURVE",
"106 486 CURVE SMOOTH",
"106 83 LINE SMOOTH",
"106 72 OFFCURVE",
"100 65 OFFCURVE",
"89 63 CURVE SMOOTH",
"32 52 LINE",
"32 0 LINE"
);
},
{
closed = 1;
nodes = (
"335 295 LINE",
"510 496 LINE SMOOTH",
"516 502 OFFCURVE",
"523 505 OFFCURVE",
"532 507 CURVE SMOOTH",
"590 518 LINE",
"590 573 LINE",
"366 573 LINE",
"366 518 LINE",
"431 507 LINE",
"225 254 LINE",
"225 166 LINE"
);
},
{
closed = 1;
nodes = (
"605 0 LINE",
"605 52 LINE",
"571 61 LINE SMOOTH",
"554 65 OFFCURVE",
"548 76 OFFCURVE",
"543 86 CURVE SMOOTH",
"463 236 LINE SMOOTH",
"429 298 OFFCURVE",
"410 332 OFFCURVE",
"369 375 CURVE",
"285 276 LINE",
"304 252 OFFCURVE",
"317 227 OFFCURVE",
"342 173 CURVE SMOOTH",
"389 72 LINE SMOOTH",
"409 29 OFFCURVE",
"425 0 OFFCURVE",
"446 0 CURVE SMOOTH"
);
}
);
width = 609;
}
);
leftKerningGroup = H;
rightKerningGroup = K;
unicode = 004B;
userData = {
com.typemytype.robofont.layerData = {
background = {
anchors = (
{
name = btm;
x = 788;
y = -170;
},
{
name = top;
x = 760;
y = 1700;
}
);
components = (
);
contours = (
{
points = (
{
segmentType = line;
smooth = 0;
x = 109;
y = 0;
},
{
segmentType = line;
smooth = 0;
x = 646;
y = 0;
},
{
segmentType = line;
smooth = 0;
x = 646;
y = 85;
},
{
segmentType = line;
smooth = 0;
x = 419;
y = 111;
},
{
segmentType = line;
smooth = 0;
x = 453;
y = 68;
},
{
segmentType = line;
smooth = 0;
x = 453;
y = 630;
},
{
segmentType = line;
smooth = 0;
x = 398;
y = 458;
},
{
segmentType = line;
smooth = 0;
x = 706;
y = 808;
},
{
segmentType = line;
smooth = 0;
x = 750;
y = 858;
},
{
segmentType = line;
smooth = 0;
x = 1289;
y = 1460;
},
{
segmentType = line;
smooth = 0;
x = 1217;
y = 1408;
},
{
segmentType = line;
smooth = 0;
x = 1394;
y = 1434;
},
{
segmentType = line;
smooth = 0;
x = 1394;
y = 1522;
},
{
segmentType = line;
smooth = 0;
x = 920;
y = 1522;
},
{
segmentType = line;
smooth = 0;
x = 920;
y = 1434;
},
{
segmentType = line;
smooth = 0;
x = 1120;
y = 1409;
},
{
segmentType = line;
smooth = 0;
x = 1134;
y = 1460;
},
{
segmentType = line;
smooth = 0;
x = 453;
y = 666;
},
{
segmentType = line;
smooth = 0;
x = 453;
y = 1457;
},
{
segmentType = line;
smooth = 0;
x = 426;
y = 1408;
},
{
segmentType = line;
smooth = 0;
x = 629;
y = 1434;
},
{
segmentType = line;
smooth = 0;
x = 629;
y = 1522;
},
{
segmentType = line;
smooth = 0;
x = 113;
y = 1522;
},
{
segmentType = line;
smooth = 0;
x = 113;
y = 1434;
},
{
segmentType = line;
smooth = 0;
x = 304;
y = 1409;
},
{
segmentType = line;
smooth = 0;
x = 284;
y = 1457;
},
{
segmentType = line;
smooth = 0;
x = 284;
y = 74;
},
{
segmentType = line;
smooth = 0;
x = 314;
y = 111;
},
{
segmentType = line;
smooth = 0;
x = 109;
y = 88;
}
);
},
{
points = (
{
segmentType = line;
smooth = 0;
x = 1460;
y = 0;
},
{
segmentType = line;
smooth = 0;
x = 1460;
y = 85;
},
{
segmentType = line;
smooth = 0;
x = 1364;
y = 108;
},
{
smooth = 0;
x = 1277;
y = 119;
},
{
smooth = 0;
x = 967;
y = 733;
},
{
segmentType = curve;
smooth = 0;
x = 761;
y = 897;
},
{
segmentType = line;
smooth = 0;
x = 702;
y = 856;
},
{
segmentType = line;
smooth = 0;
x = 647;
y = 799;
},
{
smooth = 0;
x = 842;
y = 636;
},
{
smooth = 0;
x = 1103;
y = 0;
},
{
segmentType = curve;
smooth = 0;
x = 1215;
y = 0;
}
);
}
);
lib = {
};
name = K;
unicodes = (
);
width = 1519;
};
};
};
},
{
color = 11;
glyphname = L;
lastChange = "2020-06-25 15:10:40 +0000";
layers = (
{
anchors = (
{
name = btm;
position = "{258, 0}";
},
{
name = top;
position = "{156, 568}";
},
{
name = topright;
position = "{264, 333}";
}
);
layerId = "DAAEA780-4710-4479-B303-5C05B40621B2";
paths = (
{
closed = 1;
nodes = (
"405 69 LINE SMOOTH",
"401 58 OFFCURVE",
"395 52 OFFCURVE",
"384 48 CURVE SMOOTH",
"365 41 OFFCURVE",
"335 39 OFFCURVE",
"299 39 CURVE SMOOTH",
"182 39 LINE",
"182 501 LINE SMOOTH",
"182 514 OFFCURVE",
"189 522 OFFCURVE",
"202 524 CURVE SMOOTH",
"278 536 LINE",
"278 568 LINE",
"42 568 LINE",
"42 536 LINE",
"101 525 LINE SMOOTH",
"114 522 OFFCURVE",
"120 514 OFFCURVE",
"120 501 CURVE SMOOTH",
"120 65 LINE SMOOTH",
"120 52 OFFCURVE",
"114 44 OFFCURVE",
"101 42 CURVE SMOOTH",
"42 32 LINE",
"42 0 LINE",
"451 0 LINE",
"461 48 OFFCURVE",
"466 108 OFFCURVE",
"467 157 CURVE",
"435 161 LINE"
);
}
);
width = 491;
},
{
anchors = (
{
name = btm;
position = "{273, 0}";
},
{
name = top;
position = "{223, 573}";
},
{
name = topright;
position = "{323, 338}";
}
);
guideLines = (
{
angle = 270;
position = "{336, 573}";
}
);
layerId = "925CB40E-795E-477B-BAE7-1EE7D58841B5";
paths = (
{
closed = 1;
nodes = (
"394 93 LINE SMOOTH",
"390 80 OFFCURVE",
"383 73 OFFCURVE",
"373 69 CURVE SMOOTH",
"360 64 OFFCURVE",
"337 60 OFFCURVE",
"307 60 CURVE SMOOTH",
"244 60 LINE",
"244 486 LINE SMOOTH",
"244 497 OFFCURVE",
"250 504 OFFCURVE",
"261 506 CURVE SMOOTH",
"336 518 LINE",
"336 573 LINE",
"32 573 LINE",
"32 518 LINE",
"89 507 LINE SMOOTH",
"100 505 OFFCURVE",
"106 498 OFFCURVE",
"106 487 CURVE SMOOTH",
"106 83 LINE SMOOTH",
"106 72 OFFCURVE",
"100 65 OFFCURVE",
"89 63 CURVE SMOOTH",
"32 52 LINE",
"32 0 LINE",
"484 0 LINE",
"499 70 OFFCURVE",
"499 139 OFFCURVE",
"499 201 CURVE",
"430 210 LINE"
);
}
);
width = 515;
}
);
leftKerningGroup = H;
rightKerningGroup = L;
unicode = 004C;
userData = {
com.typemytype.robofont.layerData = {
background = {
anchors = (
{
name = btm;
x = 695;
y = -170;
},
{
name = top;
x = 577;
y = 1700;
}
);
components = (
);
contours = (
{
points = (
{
segmentType = line;
smooth = 0;
x = 109;
y = 0;
},
{
segmentType = line;
smooth = 0;
x = 1174;
y = 0;
},
{
segmentType = line;
smooth = 0;
x = 1249;
y = 426;
},
{
segmentType = line;
smooth = 0;
x = 1151;
y = 443;
},
{
segmentType = line;
smooth = 0;
x = 1036;
y = 122;
},
{
segmentType = line;
smooth = 0;
x = 407;
y = 106;
},
{
segmentType = line;
smooth = 0;
x = 453;
y = 50;
},
{
segmentType = line;
smooth = 0;
x = 453;
y = 1459;
},
{
segmentType = line;
smooth = 0;
x = 434;
y = 1410;
},
{
segmentType = line;
smooth = 0;
x = 657;
y = 1434;
},
{
segmentType = line;
smooth = 0;
x = 657;
y = 1522;
},
{
segmentType = line;
smooth = 0;
x = 113;
y = 1522;
},
{
segmentType = line;
smooth = 0;
x = 113;
y = 1434;
},
{
segmentType = line;
smooth = 0;
x = 304;
y = 1409;
},
{
segmentType = line;
smooth = 0;
x = 284;
y = 1459;
},
{
segmentType = line;
smooth = 0;
x = 284;
y = 58;
},
{
segmentType = line;
smooth = 0;
x = 327;
y = 112;
},
{
segmentType = line;
smooth = 0;
x = 109;
y = 88;
}
);
}
);
lib = {
};
name = L;
unicodes = (
);
width = 1310;
};
};
};
},
{
color = 11;
glyphname = M;
lastChange = "2020-05-30 21:58:32 +0000";
layers = (
{
anchors = (
{
name = btm;
position = "{389, 0}";
},
{
name = top;
position = "{392, 568}";
}
);
layerId = "DAAEA780-4710-4479-B303-5C05B40621B2";
paths = (
{
closed = 1;
nodes = (
"616 499 LINE SMOOTH",
"614 513 OFFCURVE",
"620 522 OFFCURVE",
"634 524 CURVE SMOOTH",
"701 536 LINE",
"701 568 LINE",
"525 568 LINE",
"380 82 LINE",
"409 82 LINE",
"243 568 LINE",
"68 568 LINE",
"68 536 LINE",
"135 524 LINE SMOOTH",
"148 522 OFFCURVE",
"155 513 OFFCURVE",
"153 500 CURVE SMOOTH",
"100 65 LINE SMOOTH",
"99 52 OFFCURVE",
"92 44 OFFCURVE",
"80 42 CURVE SMOOTH",
"25 32 LINE",
"25 0 LINE",
"220 0 LINE",
"220 32 LINE",
"147 44 LINE",
"205 547 LINE",
"184 547 LINE",
"368 25 LINE",
"408 25 LINE",
"566 547 LINE",
"544 547 LINE",
"627 44 LINE",
"558 32 LINE",
"558 0 LINE",
"762 0 LINE",
"762 32 LINE",
"708 42 LINE SMOOTH",
"696 44 OFFCURVE",
"688 52 OFFCURVE",
"687 64 CURVE SMOOTH"
);
}
);
width = 779;
},
{
anchors = (
{
name = btm;
position = "{393, 0}";
},
{
name = top;
position = "{415, 573}";
}
);
layerId = "925CB40E-795E-477B-BAE7-1EE7D58841B5";
paths = (
{
closed = 1;
nodes = (
"692 485 LINE SMOOTH",
"690 497 OFFCURVE",
"696 505 OFFCURVE",
"708 507 CURVE SMOOTH",
"773 518 LINE",
"773 573 LINE",
"509 573 LINE",
"403 118 LINE",
"439 118 LINE",
"322 573 LINE",
"58 573 LINE",
"58 518 LINE",
"120 507 LINE SMOOTH",
"132 505 OFFCURVE",
"137 497 OFFCURVE",
"136 485 CURVE SMOOTH",
"88 84 LINE SMOOTH",
"87 73 OFFCURVE",
"81 67 OFFCURVE",
"71 64 CURVE SMOOTH",
"15 52 LINE",
"15 0 LINE",
"241 0 LINE",
"241 52 LINE",
"162 63 LINE",
"215 542 LINE",
"191 542 LINE",
"339 20 LINE",
"449 20 LINE",
"571 541 LINE",
"551 541 LINE",
"615 63 LINE",
"549 52 LINE",
"549 0 LINE",
"823 0 LINE",
"823 52 LINE",
"769 64 LINE SMOOTH",
"759 67 OFFCURVE",
"753 73 OFFCURVE",
"751 84 CURVE SMOOTH"
);
}
);
width = 835;
}
);
unicode = 004D;
userData = {
com.typemytype.robofont.layerData = {
background = {
anchors = (
{
name = btm;
x = 1069;
y = -170;
},
{
name = top;
x = 1078;
y = 1700;
}
);
components = (
);
contours = (
{
points = (
{
segmentType = line;
smooth = 0;
x = 78;
y = 0;
},
{
segmentType = line;
smooth = 0;
x = 595;
y = 0;
},
{
segmentType = line;
smooth = 0;
x = 595;
y = 88;
},
{
segmentType = line;
smooth = 0;
x = 348;
y = 111;
},
{
segmentType = line;
smooth = 0;
x = 388;
y = 57;
},
{
segmentType = line;
smooth = 0;
x = 486;
y = 1041;
},
{
segmentType = line;
smooth = 0;
x = 534;
y = 1498;
},
{
segmentType = line;
smooth = 0;
x = 514;
y = 1498;
},
{
segmentType = line;
smooth = 0;
x = 657;
y = 1053;
},
{
segmentType = line;
smooth = 0;
x = 1041;
y = 74;
},
{
segmentType = line;
smooth = 0;
x = 1113;
y = 74;
},
{
segmentType = line;
smooth = 0;
x = 1450;
y = 1167;
},
{
segmentType = line;
smooth = 0;
x = 1542;
y = 1477;
},
{
segmentType = line;
smooth = 0;
x = 1531;
y = 1477;
},
{
segmentType = line;
smooth = 0;
x = 1587;
y = 1040;
},
{
segmentType = line;
smooth = 0;
x = 1744;
y = 47;
},
{
segmentType = line;
smooth = 0;
x = 1772;
y = 111;
},
{
segmentType = line;
smooth = 0;
x = 1545;
y = 88;
},
{
segmentType = line;
smooth = 0;
x = 1545;
y = 0;
},
{
segmentType = line;
smooth = 0;
x = 2091;
y = 0;
},
{
segmentType = line;
smooth = 0;
x = 2091;
y = 88;
},
{
segmentType = line;
smooth = 0;
x = 1883;
y = 111;
},
{
segmentType = line;
smooth = 0;
x = 1918;
y = 48;
},
{
segmentType = line;
smooth = 0;
x = 1689;
y = 1411;
},
{
segmentType = line;
smooth = 0;
x = 1924;
y = 1434;
},
{
segmentType = line;
smooth = 0;
x = 1924;
y = 1522;
},
{
segmentType = line;
smooth = 0;
x = 1448;
y = 1522;
},
{
segmentType = line;
smooth = 0;
x = 1151;
y = 576;
},
{
segmentType = line;
smooth = 0;
x = 1061;
y = 179;
},
{
segmentType = line;
smooth = 0;
x = 1124;
y = 179;
},
{
segmentType = line;
smooth = 0;
x = 1011;
y = 576;
},
{
segmentType = line;
smooth = 0;
x = 666;
y = 1522;
},
{
segmentType = line;
smooth = 0;
x = 187;
y = 1522;
},
{
segmentType = line;
smooth = 0;
x = 187;
y = 1434;
},
{
segmentType = line;
smooth = 0;
x = 419;
y = 1412;
},
{
segmentType = line;
smooth = 0;
x = 251;
y = 56;
},
{
segmentType = line;
smooth = 0;
x = 294;
y = 111;
},
{
segmentType = line;
smooth = 0;
x = 78;
y = 88;
}
);
}
);
lib = {
};
name = M;
unicodes = (
);
width = 2103;
};
};
};
},
{
color = 11;
glyphname = N;
lastChange = "2020-05-30 21:58:41 +0000";
layers = (
{
anchors = (
{
name = btm;
position = "{337, 0}";
},
{
name = top;
position = "{316, 568}";
}
);
layerId = "DAAEA780-4710-4479-B303-5C05B40621B2";
paths = (
{
closed = 1;
nodes = (
"553 524 CURVE SMOOTH",
"605 536 LINE",
"605 568 LINE",
"407 568 LINE",
"407 536 LINE",
"469 524 LINE SMOOTH",
"482 522 OFFCURVE",
"489 513 OFFCURVE",
"489 501 CURVE SMOOTH",
"489 70 LINE",
"510 75 LINE",
"181 568 LINE",
"42 568 LINE",
"42 536 LINE",
"101 524 LINE SMOOTH",
"113 522 OFFCURVE",
"120 513 OFFCURVE",
"120 501 CURVE SMOOTH",
"120 66 LINE SMOOTH",
"120 53 OFFCURVE",
"114 45 OFFCURVE",
"101 43 CURVE SMOOTH",
"42 32 LINE",
"42 0 LINE",
"251 0 LINE",
"251 32 LINE",
"185 43 LINE SMOOTH",
"172 45 OFFCURVE",
"165 53 OFFCURVE",
"165 66 CURVE SMOOTH",
"165 513 LINE",
"144 510 LINE",
"485 0 LINE",
"534 0 LINE",
"534 501 LINE SMOOTH",
"534 514 OFFCURVE",
"541 521 OFFCURVE"
);
}
);
width = 644;
},
{
anchors = (
{
name = btm;
position = "{339, 0}";
},
{
name = top;
position = "{333, 573}";
}
);
layerId = "925CB40E-795E-477B-BAE7-1EE7D58841B5";
paths = (
{
closed = 1;
nodes = (
"579 507 CURVE SMOOTH",
"632 518 LINE",
"632 573 LINE",
"409 573 LINE",
"409 518 LINE",
"469 507 LINE SMOOTH",
"480 505 OFFCURVE",
"486 498 OFFCURVE",
"486 486 CURVE SMOOTH",
"486 134 LINE",
"513 136 LINE",
"248 573 LINE",
"32 573 LINE",
"32 518 LINE",
"89 507 LINE SMOOTH",
"100 505 OFFCURVE",
"106 498 OFFCURVE",
"106 486 CURVE SMOOTH",
"106 83 LINE SMOOTH",
"106 72 OFFCURVE",
"100 65 OFFCURVE",
"89 63 CURVE SMOOTH",
"32 52 LINE",
"32 0 LINE",
"265 0 LINE",
"265 52 LINE",
"199 63 LINE SMOOTH",
"188 65 OFFCURVE",
"182 72 OFFCURVE",
"182 83 CURVE SMOOTH",
"182 471 LINE",
"155 469 LINE",
"437 0 LINE",
"562 0 LINE",
"562 486 LINE SMOOTH",
"562 498 OFFCURVE",
"568 505 OFFCURVE"
);
}
);
width = 657;
}
);
leftKerningGroup = H;
rightKerningGroup = N;
unicode = 004E;
userData = {
com.typemytype.robofont.layerData = {
background = {
anchors = (
{
name = btm;
x = 835;
y = -170;
},
{
name = top;
x = 835;
y = 1700;
}
);
components = (
);
contours = (
{
points = (
{
segmentType = line;
smooth = 0;
x = 115;
y = 0;
},
{
segmentType = line;
smooth = 0;
x = 584;
y = 0;
},
{
segmentType = line;
smooth = 0;
x = 584;
y = 88;
},
{
segmentType = line;
smooth = 0;
x = 380;
y = 109;
},
{
segmentType = line;
smooth = 0;
x = 397;
y = 74;
},
{
segmentType = line;
smooth = 0;
x = 397;
y = 1388;
},
{
segmentType = line;
smooth = 0;
x = 360;
y = 1388;
},
{
segmentType = line;
smooth = 0;
x = 566;
y = 1054;
},
{
segmentType = line;
smooth = 0;
x = 1299;
y = 0;
},
{
segmentType = line;
smooth = 0;
x = 1405;
y = 0;
},
{
segmentType = line;
smooth = 0;
x = 1405;
y = 1446;
},
{
segmentType = line;
smooth = 0;
x = 1380;
y = 1408;
},
{
segmentType = line;
smooth = 0;
x = 1572;
y = 1434;
},
{
segmentType = line;
smooth = 0;
x = 1572;
y = 1522;
},
{
segmentType = line;
smooth = 0;
x = 1106;
y = 1522;
},
{
segmentType = line;
smooth = 0;
x = 1106;
y = 1434;
},
{
segmentType = line;
smooth = 0;
x = 1317;
y = 1407;
},
{
segmentType = line;
smooth = 0;
x = 1286;
y = 1446;
},
{
segmentType = line;
smooth = 0;
x = 1286;
y = 113;
},
{
segmentType = line;
smooth = 0;
x = 1373;
y = 113;
},
{
segmentType = line;
smooth = 0;
x = 1170;
y = 471;
},
{
segmentType = line;
smooth = 0;
x = 445;
y = 1522;
},
{
segmentType = line;
smooth = 0;
x = 115;
y = 1522;
},
{
segmentType = line;
smooth = 0;
x = 115;
y = 1434;
},
{
segmentType = line;
smooth = 0;
x = 320;
y = 1405;
},
{
segmentType = line;
smooth = 0;
x = 278;
y = 1441;
},
{
segmentType = line;
smooth = 0;
x = 278;
y = 74;
},
{
segmentType = line;
smooth = 0;
x = 295;
y = 110;
},
{
segmentType = line;
smooth = 0;
x = 115;
y = 88;
}
);
}
);
lib = {
};
name = N;
unicodes = (
);
width = 1730;
};
};
};
},
{
glyphname = O;
lastChange = "2020-07-16 10:07:09 +0000";
layers = (
{
anchors = (
{
name = btm;
position = "{288, 0}";
},
{
name = top;
position = "{292, 568}";
}
);
layerId = "DAAEA780-4710-4479-B303-5C05B40621B2";
paths = (
{
closed = 1;
nodes = (
"282 -8 CURVE SMOOTH",
"432 -8 OFFCURVE",
"534 101 OFFCURVE",
"534 293 CURVE SMOOTH",
"534 468 OFFCURVE",
"454 576 OFFCURVE",
"301 576 CURVE SMOOTH",
"153 576 OFFCURVE",
"49 470 OFFCURVE",
"49 275 CURVE SMOOTH",
"49 100 OFFCURVE",
"130 -8 OFFCURVE"
);
},
{
closed = 1;
nodes = (
"292 538 CURVE SMOOTH",
"408 538 OFFCURVE",
"464 447 OFFCURVE",
"464 285 CURVE SMOOTH",
"464 116 OFFCURVE",
"399 31 OFFCURVE",
"290 31 CURVE SMOOTH",
"175 31 OFFCURVE",
"118 122 OFFCURVE",
"118 284 CURVE SMOOTH",
"118 453 OFFCURVE",
"183 538 OFFCURVE"
);
}
);
width = 583;
},
{
anchors = (
{
name = btm;
position = "{289, 0}";
},
{
name = top;
position = "{291, 573}";
}
);
layerId = "925CB40E-795E-477B-BAE7-1EE7D58841B5";
paths = (
{
closed = 1;
nodes = (
"281 -10 CURVE SMOOTH",
"455 -10 OFFCURVE",
"547 103 OFFCURVE",
"547 297 CURVE SMOOTH",
"547 473 OFFCURVE",
"471 583 OFFCURVE",
"300 583 CURVE SMOOTH",
"126 583 OFFCURVE",
"34 470 OFFCURVE",
"34 276 CURVE SMOOTH",
"34 99 OFFCURVE",
"110 -10 OFFCURVE"
);
},
{
closed = 1;
nodes = (
"292 526 CURVE SMOOTH",
"362 526 OFFCURVE",
"396 460 OFFCURVE",
"396 292 CURVE SMOOTH",
"396 117 OFFCURVE",
"359 46 OFFCURVE",
"289 46 CURVE SMOOTH",
"219 46 OFFCURVE",
"185 114 OFFCURVE",
"185 283 CURVE SMOOTH",
"185 456 OFFCURVE",
"221 526 OFFCURVE"
);
}
);
width = 581;
}
);
leftKerningGroup = O;
rightKerningGroup = O;
unicode = 004F;
userData = {
com.typemytype.robofont.layerData = {
background = {
anchors = (
{
name = btm;
x = 727;
y = -170;
},
{
name = top;
x = 741;
y = 1700;
}
);
components = (
);
contours = (
{
points = (
{
segmentType = curve;
smooth = 1;
x = 722;
y = -23;
},
{
smooth = 0;
x = 1100;
y = -16;
},
{
smooth = 0;
x = 1398;
y = 292;
},
{
segmentType = curve;
smooth = 1;
x = 1398;
y = 775;
},
{
smooth = 0;
x = 1398;
y = 1234;
},
{
smooth = 0;
x = 1172;
y = 1538;
},
{
segmentType = curve;
smooth = 1;
x = 757;
y = 1538;
},
{
smooth = 0;
x = 377;
y = 1538;
},
{
smooth = 0;
x = 75;
y = 1232;
},
{
segmentType = curve;
smooth = 1;
x = 75;
y = 749;
},
{
smooth = 0;
x = 75;
y = 289;
},
{
smooth = 0;
x = 307;
y = -30;
}
);
},
{
points = (
{
segmentType = curve;
smooth = 1;
x = 740;
y = 1442;
},
{
smooth = 0;
x = 1040;
y = 1442;
},
{
smooth = 0;
x = 1209;
y = 1167;
},
{
segmentType = curve;
smooth = 1;
x = 1209;
y = 774;
},
{
smooth = 0;
x = 1209;
y = 310;
},
{
smooth = 0;
x = 1015;
y = 74;
},
{
segmentType = curve;
smooth = 1;
x = 734;
y = 74;
},
{
smooth = 0;
x = 432;
y = 74;
},
{
smooth = 0;
x = 262;
y = 358;
},
{
segmentType = curve;
smooth = 1;
x = 262;
y = 750;
},
{
smooth = 0;
x = 262;
y = 1214;
},
{
smooth = 0;
x = 456;
y = 1442;
}
);
}
);
lib = {
};
name = O;
unicodes = (
);
width = 1563;
};
};
};
},
{
glyphname = P;
lastChange = "2020-05-30 21:59:08 +0000";
layers = (
{
anchors = (
{
name = btm;
position = "{263, 0}";
},
{
name = top;
position = "{263, 568}";
}
);
layerId = "DAAEA780-4710-4479-B303-5C05B40621B2";
paths = (
{
closed = 1;
nodes = (
"182 533 LINE",
"203 533 OFFCURVE",
"227 537 OFFCURVE",
"263 537 CURVE SMOOTH",
"361 537 OFFCURVE",
"407 505 OFFCURVE",
"407 415 CURVE SMOOTH",
"407 296 OFFCURVE",
"337 260 OFFCURVE",
"262 260 CURVE SMOOTH",
"223 260 OFFCURVE",
"200 262 OFFCURVE",
"163 264 CURVE",
"164 227 LINE",
"197 225 OFFCURVE",
"229 223 OFFCURVE",
"261 223 CURVE SMOOTH",
"380 223 OFFCURVE",
"474 293 OFFCURVE",
"474 415 CURVE SMOOTH",
"474 515 OFFCURVE",
"428 573 OFFCURVE",
"282 573 CURVE SMOOTH",
"217 573 OFFCURVE",
"201 568 OFFCURVE",
"151 568 CURVE SMOOTH",
"42 568 LINE",
"42 536 LINE",
"104 524 LINE SMOOTH",
"114 521 OFFCURVE",
"120 512 OFFCURVE",
"120 502 CURVE SMOOTH",
"120 65 LINE SMOOTH",
"120 53 OFFCURVE",
"113 45 OFFCURVE",
"101 43 CURVE SMOOTH",
"42 32 LINE",
"42 0 LINE",
"289 0 LINE",
"289 32 LINE",
"201 44 LINE SMOOTH",
"190 45 OFFCURVE",
"182 54 OFFCURVE",
"182 65 CURVE SMOOTH"
);
}
);
width = 506;
},
{
anchors = (
{
name = btm;
position = "{276, 0}";
},
{
name = top;
position = "{276, 573}";
}
);
layerId = "925CB40E-795E-477B-BAE7-1EE7D58841B5";
paths = (
{
closed = 1;
nodes = (
"244 521 LINE",
"254 522 OFFCURVE",
"261 525 OFFCURVE",
"287 525 CURVE SMOOTH",
"345 525 OFFCURVE",
"376 489 OFFCURVE",
"376 406 CURVE SMOOTH",
"376 291 OFFCURVE",
"339 257 OFFCURVE",
"288 257 CURVE SMOOTH",
"262 257 OFFCURVE",
"250 259 OFFCURVE",
"226 262 CURVE",
"227 207 LINE",
"247 206 OFFCURVE",
"269 204 OFFCURVE",
"292 204 CURVE SMOOTH",
"439 204 OFFCURVE",
"516 281 OFFCURVE",
"516 410 CURVE SMOOTH",
"516 517 OFFCURVE",
"468 577 OFFCURVE",
"302 577 CURVE SMOOTH",
"246 577 OFFCURVE",
"209 573 OFFCURVE",
"177 573 CURVE SMOOTH",
"32 573 LINE",
"32 518 LINE",
"91 506 LINE SMOOTH",
"100 504 OFFCURVE",
"106 497 OFFCURVE",
"106 489 CURVE SMOOTH",
"106 81 LINE SMOOTH",
"106 72 OFFCURVE",
"100 65 OFFCURVE",
"90 63 CURVE SMOOTH",
"32 52 LINE",
"32 0 LINE",
"350 0 LINE",
"350 52 LINE",
"260 64 LINE SMOOTH",
"251 65 OFFCURVE",
"244 72 OFFCURVE",
"244 81 CURVE SMOOTH"
);
}
);
width = 533;
}
);
leftKerningGroup = H;
unicode = 0050;
userData = {
com.typemytype.robofont.layerData = {
background = {
anchors = (
{
name = btm;
x = 675;
y = -170;
},
{
name = top;
x = 675;
y = 1700;
}
);
components = (
);
contours = (
{
points = (
{
segmentType = line;
smooth = 0;
x = 109;
y = 0;
},
{
segmentType = line;
smooth = 0;
x = 737;
y = 0;
},
{
segmentType = line;
smooth = 0;
x = 737;
y = 88;
},
{
segmentType = line;
smooth = 0;
x = 408;
y = 111;
},
{
segmentType = line;
smooth = 0;
x = 453;
y = 63;
},
{
segmentType = line;
smooth = 0;
x = 453;
y = 590;
},
{
smooth = 0;
x = 472;
y = 586;
},
{
smooth = 0;
x = 589;
y = 581;
},
{
segmentType = curve;
smooth = 1;
x = 670;
y = 581;
},
{
smooth = 0;
x = 996;
y = 581;
},
{
smooth = 0;
x = 1255;
y = 774;
},
{
segmentType = curve;
smooth = 1;
x = 1255;
y = 1105;
},
{
smooth = 0;
x = 1255;
y = 1376;
},
{
smooth = 0;
x = 1128;
y = 1537;
},
{
segmentType = curve;
smooth = 1;
x = 728;
y = 1537;
},
{
smooth = 0;
x = 549;
y = 1537;
},
{
smooth = 0;
x = 504;
y = 1522;
},
{
segmentType = curve;
smooth = 1;
x = 369;
y = 1522;
},
{
segmentType = line;
smooth = 0;
x = 121;
y = 1522;
},
{
segmentType = line;
smooth = 0;
x = 121;
y = 1434;
},
{
segmentType = line;
smooth = 0;
x = 316;
y = 1407;
},
{
segmentType = line;
smooth = 0;
x = 284;
y = 1445;
},
{
segmentType = line;
smooth = 0;
x = 284;
y = 64;
},
{
segmentType = line;
smooth = 0;
x = 317;
y = 111;
},
{
segmentType = line;
smooth = 0;
x = 109;
y = 88;
}
);
},
{
points = (
{
segmentType = curve;
smooth = 0;
x = 453;
y = 691;
},
{
segmentType = line;
smooth = 0;
x = 453;
y = 1425;
},
{
smooth = 0;
x = 509;
y = 1425;
},
{
smooth = 0;
x = 577;
y = 1438;
},
{
segmentType = curve;
smooth = 1;
x = 675;
y = 1438;
},
{
smooth = 0;
x = 946;
y = 1438;
},
{
smooth = 0;
x = 1075;
y = 1349;
},
{
segmentType = curve;
smooth = 1;
x = 1075;
y = 1105;
},
{
smooth = 0;
x = 1075;
y = 781;
},
{
smooth = 0;
x = 880;
y = 682;
},
{
segmentType = curve;
smooth = 1;
x = 673;
y = 682;
},
{
smooth = 0;
x = 572;
y = 682;
},
{
smooth = 0;
x = 491;
y = 684;
}
);
}
);
lib = {
};
name = P;
unicodes = (
);
width = 1352;
};
};
};
},
{
glyphname = Q;
lastChange = "2020-05-30 21:59:34 +0000";
layers = (
{
layerId = "DAAEA780-4710-4479-B303-5C05B40621B2";
paths = (
{
closed = 1;
nodes = (
"350 -1 OFFCURVE",
"387 -150 OFFCURVE",
"505 -150 CURVE SMOOTH",
"541 -150 OFFCURVE",
"573 -137 OFFCURVE",
"587 -128 CURVE",
"580 -97 LINE",
"572 -98 OFFCURVE",
"560 -98 OFFCURVE",
"549 -98 CURVE SMOOTH",
"497 -98 OFFCURVE",
"464 -71 OFFCURVE",
"428 -42 CURVE SMOOTH",
"388 -9 OFFCURVE",
"343 21 OFFCURVE",
"267 21 CURVE",
"243 -1 LINE"
);
},
{
closed = 1;
nodes = (
"49 100 OFFCURVE",
"130 -8 OFFCURVE",
"282 -8 CURVE SMOOTH",
"432 -8 OFFCURVE",
"534 101 OFFCURVE",
"534 293 CURVE SMOOTH",
"534 468 OFFCURVE",
"454 576 OFFCURVE",
"301 576 CURVE SMOOTH",
"153 576 OFFCURVE",
"49 470 OFFCURVE",
"49 275 CURVE SMOOTH"
);
},
{
closed = 1;
nodes = (
"117 456 OFFCURVE",
"182 538 OFFCURVE",
"292 538 CURVE SMOOTH",
"408 538 OFFCURVE",
"465 449 OFFCURVE",
"465 285 CURVE SMOOTH",
"465 113 OFFCURVE",
"400 31 OFFCURVE",
"290 31 CURVE SMOOTH",
"174 31 OFFCURVE",
"117 120 OFFCURVE",
"117 284 CURVE SMOOTH"
);
}
);
width = 583;
},
{
layerId = "925CB40E-795E-477B-BAE7-1EE7D58841B5";
paths = (
{
closed = 1;
nodes = (
"348 -7 OFFCURVE",
"357 -154 OFFCURVE",
"495 -154 CURVE SMOOTH",
"545 -154 OFFCURVE",
"592 -126 OFFCURVE",
"612 -102 CURVE",
"600 -59 LINE",
"588 -61 OFFCURVE",
"574 -63 OFFCURVE",
"557 -63 CURVE SMOOTH",
"521 -63 OFFCURVE",
"488 -53 OFFCURVE",
"449 -31 CURVE SMOOTH",
"396 -2 OFFCURVE",
"360 14 OFFCURVE",
"265 14 CURVE",
"199 9 LINE"
);
},
{
closed = 1;
nodes = (
"34 102 OFFCURVE",
"110 -10 OFFCURVE",
"281 -10 CURVE SMOOTH",
"449 -10 OFFCURVE",
"547 106 OFFCURVE",
"547 297 CURVE SMOOTH",
"547 470 OFFCURVE",
"471 583 OFFCURVE",
"300 583 CURVE SMOOTH",
"126 583 OFFCURVE",
"34 466 OFFCURVE",
"34 276 CURVE SMOOTH"
);
},
{
closed = 1;
nodes = (
"185 456 OFFCURVE",
"221 526 OFFCURVE",
"292 526 CURVE SMOOTH",
"362 526 OFFCURVE",
"396 460 OFFCURVE",
"396 292 CURVE SMOOTH",
"396 117 OFFCURVE",
"359 46 OFFCURVE",
"288 46 CURVE SMOOTH",
"219 46 OFFCURVE",
"185 113 OFFCURVE",
"185 283 CURVE SMOOTH"
);
}
);
width = 581;
}
);
leftKerningGroup = O;
rightKerningGroup = O;
unicode = 0051;
userData = {
com.typemytype.robofont.layerData = {
background = {
anchors = (
{
name = btm;
x = 733;
y = -170;
},
{
name = top;
x = 733;
y = 1700;
}
);
components = (
);
contours = (
{
points = (
{
segmentType = curve;
smooth = 0;
x = 1668;
y = -413;
},
{
segmentType = line;
smooth = 0;
x = 1679;
y = -413;
},
{
smooth = 0;
x = 1749;
y = -413;
},
{
smooth = 0;
x = 1815;
y = -371;
},
{
segmentType = curve;
smooth = 0;
x = 1834;
y = -353;
},
{
segmentType = line;
smooth = 0;
x = 1814;
y = -268;
},
{
smooth = 0;
x = 1801;
y = -269;
},
{
smooth = 0;
x = 1789;
y = -270;
},
{
segmentType = curve;
smooth = 1;
x = 1770;
y = -270;
},
{
segmentType = line;
smooth = 0;
x = 1768;
y = -270;
},
{
smooth = 0;
x = 1491;
y = -270;
},
{
smooth = 0;
x = 1266;
y = 34;
},
{
segmentType = curve;
smooth = 0;
x = 951;
y = 34;
},
{
segmentType = line;
smooth = 0;
x = 865;
y = 28;
},
{
segmentType = line;
smooth = 0;
x = 809;
y = -3;
},
{
smooth = 0;
x = 1102;
y = -3;
},
{
smooth = 0;
x = 1292;
y = -413;
}
);
},
{
points = (
{
segmentType = curve;
smooth = 1;
x = 728;
y = -23;
},
{
smooth = 0;
x = 1106;
y = -16;
},
{
smooth = 0;
x = 1404;
y = 292;
},
{
segmentType = curve;
smooth = 1;
x = 1404;
y = 775;
},
{
smooth = 0;
x = 1404;
y = 1234;
},
{
smooth = 0;
x = 1178;
y = 1538;
},
{
segmentType = curve;
smooth = 1;
x = 763;
y = 1538;
},
{
smooth = 0;
x = 383;
y = 1538;
},
{
smooth = 0;
x = 81;
y = 1232;
},
{
segmentType = curve;
smooth = 1;
x = 81;
y = 749;
},
{
smooth = 0;
x = 81;
y = 289;
},
{
smooth = 0;
x = 313;
y = -30;
}
);
},
{
points = (
{
segmentType = curve;
smooth = 1;
x = 746;
y = 1442;
},
{
smooth = 0;
x = 1046;
y = 1442;
},
{
smooth = 0;
x = 1215;
y = 1167;
},
{
segmentType = curve;
smooth = 1;
x = 1215;
y = 774;
},
{
smooth = 0;
x = 1215;
y = 310;
},
{
smooth = 0;
x = 1021;
y = 74;
},
{
segmentType = curve;
smooth = 1;
x = 740;
y = 74;
},
{
smooth = 0;
x = 438;
y = 74;
},
{
smooth = 0;
x = 268;
y = 358;
},
{
segmentType = curve;
smooth = 1;
x = 268;
y = 750;
},
{
smooth = 0;
x = 268;
y = 1214;
},
{
smooth = 0;
x = 462;
y = 1442;
}
);
}
);
lib = {
};
name = Q;
unicodes = (
);
width = 1563;
};
};
};
},
{
color = 11;
glyphname = R;
lastChange = "2020-05-30 22:00:23 +0000";
layers = (
{
anchors = (
{
name = btm;
position = "{307, 0}";
},
{
name = top;
position = "{265, 568}";
}
);
layerId = "DAAEA780-4710-4479-B303-5C05B40621B2";
paths = (
{
closed = 1;
nodes = (
"266 0 LINE",
"266 32 LINE",
"203 43 LINE SMOOTH",
"189 46 OFFCURVE",
"182 52 OFFCURVE",
"182 66 CURVE SMOOTH",
"182 532 LINE",
"195 533 OFFCURVE",
"228 537 OFFCURVE",
"261 537 CURVE SMOOTH",
"372 537 OFFCURVE",
"401 491 OFFCURVE",
"401 419 CURVE SMOOTH",
"401 330 OFFCURVE",
"356 290 OFFCURVE",
"290 289 CURVE SMOOTH",
"271 289 OFFCURVE",
"201 289 OFFCURVE",
"168 291 CURVE",
"168 253 LINE",
"187 253 OFFCURVE",
"243 253 OFFCURVE",
"302 253 CURVE",
"335 260 LINE",
"380 268 OFFCURVE",
"468 299 OFFCURVE",
"468 424 CURVE SMOOTH",
"468 523 OFFCURVE",
"415 574 OFFCURVE",
"275 574 CURVE SMOOTH",
"227 574 OFFCURVE",
"195 568 OFFCURVE",
"152 568 CURVE SMOOTH",
"42 568 LINE",
"42 536 LINE",
"100 524 LINE SMOOTH",
"113 522 OFFCURVE",
"120 515 OFFCURVE",
"120 501 CURVE SMOOTH",
"120 66 LINE SMOOTH",
"120 52 OFFCURVE",
"113 45 OFFCURVE",
"100 43 CURVE SMOOTH",
"42 32 LINE",
"42 0 LINE"
);
},
{
closed = 1;
nodes = (
"542 0 LINE",
"542 32 LINE",
"500 41 LINE SMOOTH",
"483 45 OFFCURVE",
"475 49 OFFCURVE",
"465 68 CURVE SMOOTH",
"406 179 LINE SMOOTH",
"380 227 OFFCURVE",
"360 256 OFFCURVE",
"325 275 CURVE",
"269 265 LINE",
"292 256 OFFCURVE",
"316 213 OFFCURVE",
"341 164 CURVE SMOOTH",
"377 93 LINE SMOOTH",
"405 36 OFFCURVE",
"422 0 OFFCURVE",
"445 0 CURVE SMOOTH"
);
}
);
width = 555;
},
{
anchors = (
{
name = btm;
position = "{297, -62}";
},
{
name = top;
position = "{281, 618}";
}
);
associatedMasterId = "DAAEA780-4710-4479-B303-5C05B40621B2";
layerId = "C5C366A4-98CE-4A20-820B-334FF14FD6C7";
name = "Light Sep 30 15, 11:17";
paths = (
{
closed = 1;
nodes = (
"184 533 LINE",
"201 533 OFFCURVE",
"227 537 OFFCURVE",
"265 537 CURVE SMOOTH",
"373 537 OFFCURVE",
"403 489 OFFCURVE",
"403 419 CURVE SMOOTH",
"403 330 OFFCURVE",
"357 289 OFFCURVE",
"291 289 CURVE SMOOTH",
"272 289 OFFCURVE",
"203 289 OFFCURVE",
"170 291 CURVE",
"170 253 LINE",
"190 253 OFFCURVE",
"291 253 OFFCURVE",
"305 253 CURVE SMOOTH",
"333 253 OFFCURVE",
"316 257 OFFCURVE",
"329 258 CURVE SMOOTH",
"417 267 OFFCURVE",
"469 342 OFFCURVE",
"469 424 CURVE SMOOTH",
"469 525 OFFCURVE",
"417 574 OFFCURVE",
"271 574 CURVE SMOOTH",
"235 574 OFFCURVE",
"193 568 OFFCURVE",
"154 568 CURVE SMOOTH",
"44 568 LINE",
"44 536 LINE",
"101 524 LINE SMOOTH",
"114 522 OFFCURVE",
"122 515 OFFCURVE",
"122 501 CURVE SMOOTH",
"122 66 LINE SMOOTH",
"122 52 OFFCURVE",
"114 45 OFFCURVE",
"101 43 CURVE SMOOTH",
"44 32 LINE",
"44 0 LINE",
"267 0 LINE",
"267 32 LINE",
"204 43 LINE SMOOTH",
"191 46 OFFCURVE",
"184 52 OFFCURVE",
"184 66 CURVE SMOOTH"
);
},
{
closed = 1;
nodes = (
"544 0 LINE",
"544 32 LINE",
"496 43 LINE SMOOTH",
"458 52 OFFCURVE",
"400 241 OFFCURVE",
"343 268 CURVE",
"293 270 LINE",
"282 256 LINE",
"339 239 OFFCURVE",
"403 0 OFFCURVE",
"442 0 CURVE SMOOTH"
);
}
);
width = 543;
},
{
anchors = (
{
name = btm;
position = "{312, 0}";
},
{
name = top;
position = "{289, 573}";
}
);
layerId = "925CB40E-795E-477B-BAE7-1EE7D58841B5";
paths = (
{
closed = 1;
nodes = (
"317 0 LINE",
"317 52 LINE",
"261 62 LINE SMOOTH",
"249 64 OFFCURVE",
"243 70 OFFCURVE",
"243 81 CURVE SMOOTH",
"243 522 LINE",
"256 524 OFFCURVE",
"272 526 OFFCURVE",
"288 526 CURVE SMOOTH",
"352 526 OFFCURVE",
"383 497 OFFCURVE",
"383 418 CURVE SMOOTH",
"383 331 OFFCURVE",
"347 294 OFFCURVE",
"299 293 CURVE SMOOTH",
"284 293 OFFCURVE",
"248 292 OFFCURVE",
"226 298 CURVE",
"226 243 LINE",
"266 243 OFFCURVE",
"306 243 OFFCURVE",
"341 243 CURVE",
"376 258 LINE",
"441 273 OFFCURVE",
"528 295 OFFCURVE",
"528 424 CURVE SMOOTH",
"528 535 OFFCURVE",
"463 577 OFFCURVE",
"300 577 CURVE SMOOTH",
"248 577 OFFCURVE",
"213 573 OFFCURVE",
"171 573 CURVE SMOOTH",
"32 573 LINE",
"32 518 LINE",
"89 507 LINE SMOOTH",
"100 505 OFFCURVE",
"106 498 OFFCURVE",
"106 487 CURVE SMOOTH",
"106 83 LINE SMOOTH",
"106 72 OFFCURVE",
"100 65 OFFCURVE",
"89 63 CURVE SMOOTH",
"32 52 LINE",
"32 0 LINE"
);
},
{
closed = 1;
nodes = (
"592 0 LINE",
"592 52 LINE",
"558 61 LINE SMOOTH",
"545 64 OFFCURVE",
"539 69 OFFCURVE",
"532 85 CURVE SMOOTH",
"492 175 LINE SMOOTH",
"464 239 OFFCURVE",
"427 264 OFFCURVE",
"361 280 CURVE",
"282 261 LINE",
"307 251 OFFCURVE",
"325 221 OFFCURVE",
"345 171 CURVE SMOOTH",
"382 73 LINE SMOOTH",
"400 29 OFFCURVE",
"415 0 OFFCURVE",
"436 0 CURVE SMOOTH"
);
}
);
width = 602;
}
);
leftKerningGroup = H;
rightKerningGroup = R;
unicode = 0052;
userData = {
com.typemytype.robofont.layerData = {
"Light Sep 30 15, 11:17" = {
anchors = (
{
name = btm;
x = 817;
y = -170;
},
{
name = top;
x = 774;
y = 1700;
}
);
components = (
);
contours = (
{
points = (
{
segmentType = line;
smooth = 0;
x = 505;
y = 1465;
},
{
smooth = 0;
x = 552;
y = 1465;
},
{
smooth = 0;
x = 624;
y = 1477;
},
{
segmentType = curve;
smooth = 1;
x = 730;
y = 1477;
},
{
smooth = 0;
x = 1026;
y = 1477;
},
{
smooth = 0;
x = 1107;
y = 1345;
},
{
segmentType = curve;
smooth = 1;
x = 1107;
y = 1153;
},
{
smooth = 0;
x = 1107;
y = 908;
},
{
smooth = 0;
x = 983;
y = 796;
},
{
segmentType = curve;
smooth = 1;
x = 801;
y = 796;
},
{
smooth = 0;
x = 748;
y = 796;
},
{
smooth = 0;
x = 558;
y = 794;
},
{
segmentType = curve;
smooth = 0;
x = 467;
y = 800;
},
{
segmentType = line;
smooth = 0;
x = 467;
y = 697;
},
{
smooth = 0;
x = 523;
y = 696;
},
{
smooth = 0;
x = 799;
y = 695;
},
{
segmentType = curve;
smooth = 1;
x = 838;
y = 695;
},
{
smooth = 0;
x = 916;
y = 695;
},
{
smooth = 0;
x = 868;
y = 706;
},
{
segmentType = curve;
smooth = 1;
x = 906;
y = 710;
},
{
smooth = 0;
x = 1146;
y = 735;
},
{
smooth = 0;
x = 1291;
y = 940;
},
{
segmentType = curve;
smooth = 1;
x = 1291;
y = 1167;
},
{
smooth = 0;
x = 1291;
y = 1443;
},
{
smooth = 0;
x = 1146;
y = 1578;
},
{
segmentType = curve;
smooth = 1;
x = 746;
y = 1578;
},
{
smooth = 0;
x = 645;
y = 1578;
},
{
smooth = 0;
x = 532;
y = 1562;
},
{
segmentType = curve;
smooth = 1;
x = 423;
y = 1562;
},
{
segmentType = line;
smooth = 0;
x = 120;
y = 1562;
},
{
segmentType = line;
smooth = 0;
x = 120;
y = 1474;
},
{
segmentType = line;
smooth = 1;
x = 279;
y = 1442;
},
{
smooth = 0;
x = 314;
y = 1435;
},
{
smooth = 0;
x = 335;
y = 1415;
},
{
segmentType = curve;
smooth = 1;
x = 335;
y = 1378;
},
{
segmentType = line;
smooth = 1;
x = 335;
y = 181;
},
{
smooth = 0;
x = 335;
y = 144;
},
{
smooth = 0;
x = 314;
y = 125;
},
{
segmentType = curve;
smooth = 1;
x = 278;
y = 118;
},
{
segmentType = line;
smooth = 0;
x = 120;
y = 88;
},
{
segmentType = line;
smooth = 0;
x = 120;
y = 0;
},
{
segmentType = line;
smooth = 0;
x = 735;
y = 0;
},
{
segmentType = line;
smooth = 0;
x = 735;
y = 88;
},
{
segmentType = line;
smooth = 1;
x = 562;
y = 119;
},
{
smooth = 0;
x = 525;
y = 126;
},
{
smooth = 0;
x = 505;
y = 144;
},
{
segmentType = curve;
smooth = 1;
x = 505;
y = 181;
}
);
},
{
points = (
{
segmentType = line;
smooth = 0;
x = 1495;
y = 0;
},
{
segmentType = line;
smooth = 0;
x = 1495;
y = 88;
},
{
segmentType = line;
smooth = 1;
x = 1364;
y = 118;
},
{
smooth = 0;
x = 1259;
y = 142;
},
{
smooth = 0;
x = 1101;
y = 663;
},
{
segmentType = curve;
smooth = 0;
x = 942;
y = 736;
},
{
segmentType = line;
smooth = 0;
x = 806;
y = 742;
},
{
segmentType = line;
smooth = 0;
x = 775;
y = 703;
},
{
smooth = 0;
x = 933;
y = 657;
},
{
smooth = 0;
x = 1109;
y = 0;
},
{
segmentType = curve;
smooth = 1;
x = 1216;
y = 0;
}
);
}
);
lib = {
};
name = R;
unicodes = (
);
width = 1494;
};
background = {
anchors = (
{
name = btm;
x = 817;
y = -170;
},
{
name = top;
x = 774;
y = 1700;
}
);
components = (
);
contours = (
{
points = (
{
smooth = 0;
x = 1236;
y = 0;
},
{
smooth = 0;
x = 1276;
y = 0;
},
{
segmentType = curve;
smooth = 0;
x = 1474;
y = 0;
},
{
segmentType = line;
smooth = 0;
x = 1474;
y = 85;
},
{
segmentType = line;
smooth = 0;
x = 1388;
y = 108;
},
{
smooth = 0;
x = 1283;
y = 133;
},
{
smooth = 0;
x = 1100;
y = 643;
},
{
segmentType = curve;
smooth = 0;
x = 941;
y = 716;
},
{
segmentType = line;
smooth = 0;
x = 805;
y = 722;
},
{
segmentType = line;
smooth = 0;
x = 774;
y = 683;
},
{
smooth = 0;
x = 932;
y = 637;
},
{
smooth = 0;
x = 1128;
y = 0;
},
{
segmentType = curve;
smooth = 1;
x = 1235;
y = 0;
}
);
},
{
points = (
{
segmentType = line;
smooth = 0;
x = 160;
y = 0;
},
{
segmentType = line;
smooth = 0;
x = 714;
y = 0;
},
{
segmentType = line;
smooth = 0;
x = 714;
y = 88;
},
{
segmentType = line;
smooth = 0;
x = 463;
y = 110;
},
{
segmentType = line;
smooth = 0;
x = 504;
y = 63;
},
{
segmentType = line;
smooth = 0;
x = 504;
y = 677;
},
{
smooth = 0;
x = 547;
y = 676;
},
{
smooth = 0;
x = 780;
y = 675;
},
{
segmentType = curve;
smooth = 0;
x = 817;
y = 675;
},
{
smooth = 0;
x = 895;
y = 675;
},
{
smooth = 0;
x = 847;
y = 686;
},
{
segmentType = curve;
smooth = 0;
x = 885;
y = 690;
},
{
smooth = 0;
x = 1125;
y = 715;
},
{
smooth = 0;
x = 1268;
y = 921;
},
{
segmentType = curve;
smooth = 1;
x = 1268;
y = 1137;
},
{
smooth = 0;
x = 1268;
y = 1402;
},
{
smooth = 0;
x = 1125;
y = 1538;
},
{
segmentType = curve;
smooth = 1;
x = 725;
y = 1538;
},
{
smooth = 0;
x = 624;
y = 1538;
},
{
smooth = 0;
x = 531;
y = 1522;
},
{
segmentType = curve;
smooth = 1;
x = 422;
y = 1522;
},
{
segmentType = line;
smooth = 0;
x = 171;
y = 1522;
},
{
segmentType = line;
smooth = 0;
x = 171;
y = 1437;
},
{
segmentType = line;
smooth = 0;
x = 367;
y = 1410;
},
{
segmentType = line;
smooth = 0;
x = 335;
y = 1447;
},
{
segmentType = line;
smooth = 0;
x = 335;
y = 63;
},
{
segmentType = line;
smooth = 0;
x = 366;
y = 110;
},
{
segmentType = line;
smooth = 0;
x = 160;
y = 88;
}
);
},
{
points = (
{
smooth = 0;
x = 730;
y = 776;
},
{
smooth = 0;
x = 576;
y = 774;
},
{
segmentType = curve;
smooth = 0;
x = 504;
y = 779;
},
{
segmentType = line;
smooth = 0;
x = 504;
y = 1425;
},
{
smooth = 0;
x = 551;
y = 1425;
},
{
smooth = 0;
x = 603;
y = 1437;
},
{
segmentType = curve;
smooth = 1;
x = 709;
y = 1437;
},
{
smooth = 0;
x = 1005;
y = 1437;
},
{
smooth = 0;
x = 1086;
y = 1305;
},
{
segmentType = curve;
smooth = 1;
x = 1086;
y = 1123;
},
{
smooth = 0;
x = 1086;
y = 889;
},
{
smooth = 0;
x = 962;
y = 776;
},
{
segmentType = curve;
smooth = 1;
x = 780;
y = 776;
}
);
}
);
lib = {
};
name = R;
unicodes = (
);
width = 1485;
};
};
};
},
{
glyphname = S;
lastChange = "2020-07-04 12:30:39 +0000";
layers = (
{
anchors = (
{
name = btm;
position = "{220, 0}";
},
{
name = top;
position = "{233, 568}";
}
);
layerId = "DAAEA780-4710-4479-B303-5C05B40621B2";
paths = (
{
closed = 1;
nodes = (
"416 152 CURVE SMOOTH",
"416 245 OFFCURVE",
"337 280 OFFCURVE",
"260 316 CURVE SMOOTH",
"171 358 OFFCURVE",
"121 380 OFFCURVE",
"121 450 CURVE SMOOTH",
"121 508 OFFCURVE",
"157 541 OFFCURVE",
"227 541 CURVE SMOOTH",
"266 541 OFFCURVE",
"300 529 OFFCURVE",
"316 514 CURVE SMOOTH",
"326 505 OFFCURVE",
"329 496 OFFCURVE",
"331 488 CURVE SMOOTH",
"345 416 LINE",
"382 416 LINE",
"388 457 OFFCURVE",
"390 498 OFFCURVE",
"387 546 CURVE",
"350 565 OFFCURVE",
"294 576 OFFCURVE",
"243 576 CURVE SMOOTH",
"125 576 OFFCURVE",
"63 516 OFFCURVE",
"63 433 CURVE SMOOTH",
"63 333 OFFCURVE",
"152 293 OFFCURVE",
"221 263 CURVE SMOOTH",
"301 227 OFFCURVE",
"352 208 OFFCURVE",
"352 134 CURVE SMOOTH",
"352 68 OFFCURVE",
"311 28 OFFCURVE",
"232 28 CURVE SMOOTH",
"183 28 OFFCURVE",
"143 49 OFFCURVE",
"122 70 CURVE SMOOTH",
"113 79 OFFCURVE",
"110 88 OFFCURVE",
"109 95 CURVE SMOOTH",
"96 177 LINE",
"58 177 LINE",
"52 129 OFFCURVE",
"50 85 OFFCURVE",
"52 40 CURVE",
"86 17 OFFCURVE",
"148 -8 OFFCURVE",
"225 -8 CURVE SMOOTH",
"356 -8 OFFCURVE",
"416 71 OFFCURVE"
);
}
);
width = 461;
},
{
anchors = (
{
name = btm;
position = "{225, 0}";
},
{
name = top;
position = "{248, 573}";
}
);
layerId = "925CB40E-795E-477B-BAE7-1EE7D58841B5";
paths = (
{
closed = 1;
nodes = (
"449 164 CURVE SMOOTH",
"449 254 OFFCURVE",
"379 304 OFFCURVE",
"296 347 CURVE SMOOTH",
"221 386 OFFCURVE",
"175 408 OFFCURVE",
"175 464 CURVE SMOOTH",
"175 504 OFFCURVE",
"201 531 OFFCURVE",
"244 531 CURVE SMOOTH",
"265 531 OFFCURVE",
"288 524 OFFCURVE",
"301 515 CURVE SMOOTH",
"310 509 OFFCURVE",
"314 500 OFFCURVE",
"317 485 CURVE SMOOTH",
"332 403 LINE",
"408 403 LINE",
"416 450 OFFCURVE",
"420 505 OFFCURVE",
"416 553 CURVE",
"372 571 OFFCURVE",
"309 583 OFFCURVE",
"251 583 CURVE SMOOTH",
"113 583 OFFCURVE",
"45 511 OFFCURVE",
"45 416 CURVE SMOOTH",
"45 320 OFFCURVE",
"115 283 OFFCURVE",
"191 243 CURVE SMOOTH",
"258 208 OFFCURVE",
"312 178 OFFCURVE",
"312 116 CURVE SMOOTH",
"312 72 OFFCURVE",
"284 43 OFFCURVE",
"236 43 CURVE SMOOTH",
"203 43 OFFCURVE",
"173 57 OFFCURVE",
"159 71 CURVE SMOOTH",
"150 80 OFFCURVE",
"145 87 OFFCURVE",
"143 99 CURVE SMOOTH",
"129 193 LINE",
"51 193 LINE",
"43 150 OFFCURVE",
"38 86 OFFCURVE",
"41 33 CURVE",
"89 10 OFFCURVE",
"157 -10 OFFCURVE",
"233 -10 CURVE SMOOTH",
"391 -10 OFFCURVE",
"449 82 OFFCURVE"
);
}
);
width = 481;
}
);
leftKerningGroup = S;
rightKerningGroup = S;
unicode = 0053;
userData = {
com.typemytype.robofont.layerData = {
background = {
anchors = (
{
name = btm;
x = 560;
y = -170;
},
{
name = top;
x = 605;
y = 1700;
}
);
components = (
);
contours = (
{
points = (
{
segmentType = curve;
smooth = 1;
x = 545;
y = -23;
},
{
smooth = 0;
x = 883;
y = -23;
},
{
smooth = 0;
x = 1075;
y = 196;
},
{
segmentType = curve;
smooth = 1;
x = 1075;
y = 408;
},
{
smooth = 0;
x = 1075;
y = 654;
},
{
smooth = 0;
x = 838;
y = 757;
},
{
segmentType = curve;
smooth = 1;
x = 636;
y = 853;
},
{
smooth = 0;
x = 421;
y = 955;
},
{
smooth = 0;
x = 274;
y = 1018;
},
{
segmentType = curve;
smooth = 1;
x = 274;
y = 1194;
},
{
smooth = 0;
x = 274;
y = 1360;
},
{
smooth = 0;
x = 384;
y = 1441;
},
{
segmentType = curve;
smooth = 1;
x = 586;
y = 1441;
},
{
smooth = 0;
x = 702;
y = 1441;
},
{
smooth = 0;
x = 803;
y = 1407;
},
{
segmentType = curve;
smooth = 0;
x = 831;
y = 1383;
},
{
segmentType = line;
smooth = 0;
x = 869;
y = 1128;
},
{
segmentType = line;
smooth = 0;
x = 970;
y = 1128;
},
{
segmentType = line;
smooth = 0;
x = 983;
y = 1465;
},
{
smooth = 0;
x = 923;
y = 1475;
},
{
smooth = 0;
x = 779;
y = 1538;
},
{
segmentType = curve;
smooth = 1;
x = 595;
y = 1538;
},
{
smooth = 0;
x = 312;
y = 1538;
},
{
smooth = 0;
x = 113;
y = 1383;
},
{
segmentType = curve;
smooth = 1;
x = 113;
y = 1152;
},
{
smooth = 0;
x = 113;
y = 888;
},
{
smooth = 0;
x = 361;
y = 778;
},
{
segmentType = curve;
smooth = 1;
x = 530;
y = 705;
},
{
smooth = 0;
x = 737;
y = 616;
},
{
smooth = 0;
x = 898;
y = 542;
},
{
segmentType = curve;
smooth = 1;
x = 898;
y = 362;
},
{
smooth = 0;
x = 898;
y = 189;
},
{
smooth = 0;
x = 781;
y = 77;
},
{
segmentType = curve;
smooth = 1;
x = 555;
y = 77;
},
{
smooth = 0;
x = 414;
y = 77;
},
{
smooth = 0;
x = 293;
y = 122;
},
{
segmentType = curve;
smooth = 0;
x = 245;
y = 168;
},
{
segmentType = line;
smooth = 0;
x = 214;
y = 437;
},
{
segmentType = line;
smooth = 0;
x = 109;
y = 437;
},
{
segmentType = line;
smooth = 0;
x = 92;
y = 71;
},
{
smooth = 0;
x = 156;
y = 65;
},
{
smooth = 0;
x = 313;
y = -23;
}
);
}
);
lib = {
};
name = S;
unicodes = (
);
width = 1227;
};
};
};
},
{
glyphname = T;
lastChange = "2020-05-30 22:01:00 +0000";
layers = (
{
anchors = (
{
name = btm;
position = "{269, 0}";
},
{
name = top;
position = "{271, 568}";
}
);
layerId = "DAAEA780-4710-4479-B303-5C05B40621B2";
paths = (
{
closed = 1;
nodes = (
"406 0 LINE",
"406 32 LINE",
"321 45 LINE SMOOTH",
"307 47 OFFCURVE",
"300 54 OFFCURVE",
"300 68 CURVE SMOOTH",
"300 532 LINE",
"349 532 LINE SMOOTH",
"387 532 OFFCURVE",
"415 529 OFFCURVE",
"431 524 CURVE SMOOTH",
"441 520 OFFCURVE",
"448 514 OFFCURVE",
"450 501 CURVE SMOOTH",
"471 406 LINE",
"506 406 LINE",
"511 464 OFFCURVE",
"509 516 OFFCURVE",
"503 568 CURVE",
"37 568 LINE",
"31 516 OFFCURVE",
"28 464 OFFCURVE",
"31 406 CURVE",
"67 406 LINE",
"88 501 LINE SMOOTH",
"91 514 OFFCURVE",
"97 520 OFFCURVE",
"109 524 CURVE SMOOTH",
"123 529 OFFCURVE",
"155 532 OFFCURVE",
"192 532 CURVE SMOOTH",
"239 532 LINE",
"239 68 LINE SMOOTH",
"239 54 OFFCURVE",
"232 47 OFFCURVE",
"218 45 CURVE SMOOTH",
"133 32 LINE",
"133 0 LINE"
);
}
);
width = 539;
},
{
anchors = (
{
name = btm;
position = "{293, 0}";
},
{
name = top;
position = "{293, 573}";
}
);
layerId = "925CB40E-795E-477B-BAE7-1EE7D58841B5";
paths = (
{
closed = 1;
nodes = (
"464 0 LINE",
"464 52 LINE",
"379 66 LINE SMOOTH",
"368 68 OFFCURVE",
"362 74 OFFCURVE",
"362 85 CURVE SMOOTH",
"362 517 LINE",
"391 517 LINE SMOOTH",
"411 517 OFFCURVE",
"430 514 OFFCURVE",
"441 510 CURVE SMOOTH",
"451 506 OFFCURVE",
"456 500 OFFCURVE",
"458 491 CURVE SMOOTH",
"491 365 LINE",
"558 365 LINE",
"565 438 OFFCURVE",
"568 498 OFFCURVE",
"560 573 CURVE",
"25 573 LINE",
"17 498 OFFCURVE",
"20 440 OFFCURVE",
"28 365 CURVE",
"95 365 LINE",
"126 490 LINE SMOOTH",
"128 500 OFFCURVE",
"133 506 OFFCURVE",
"143 510 CURVE SMOOTH",
"155 515 OFFCURVE",
"174 517 OFFCURVE",
"193 517 CURVE SMOOTH",
"224 517 LINE",
"224 85 LINE SMOOTH",
"224 74 OFFCURVE",
"218 68 OFFCURVE",
"207 66 CURVE SMOOTH",
"121 52 LINE",
"121 0 LINE"
);
}
);
width = 585;
}
);
leftKerningGroup = T;
rightKerningGroup = T;
rightMetricsKey = "=|";
unicode = 0054;
userData = {
com.schriftgestaltung.Glyphs.rightMetricsKey = "=|";
com.typemytype.robofont.layerData = {
background = {
anchors = (
{
name = btm;
x = 712;
y = -170;
},
{
name = top;
x = 712;
y = 1700;
}
);
components = (
);
contours = (
{
points = (
{
segmentType = line;
smooth = 0;
x = 336;
y = 0;
},
{
segmentType = line;
smooth = 0;
x = 1073;
y = 0;
},
{
segmentType = line;
smooth = 0;
x = 1073;
y = 88;
},
{
segmentType = line;
smooth = 0;
x = 731;
y = 111;
},
{
segmentType = line;
smooth = 0;
x = 781;
y = 58;
},
{
segmentType = line;
smooth = 0;
x = 781;
y = 1429;
},
{
segmentType = line;
smooth = 0;
x = 1175;
y = 1418;
},
{
segmentType = line;
smooth = 0;
x = 1232;
y = 1001;
},
{
segmentType = line;
smooth = 0;
x = 1342;
y = 1001;
},
{
segmentType = line;
smooth = 0;
x = 1319;
y = 1522;
},
{
segmentType = line;
smooth = 0;
x = 71;
y = 1522;
},
{
segmentType = line;
smooth = 0;
x = 37;
y = 1001;
},
{
segmentType = line;
smooth = 0;
x = 149;
y = 1001;
},
{
segmentType = line;
smooth = 0;
x = 215;
y = 1418;
},
{
segmentType = line;
smooth = 0;
x = 604;
y = 1429;
},
{
segmentType = line;
smooth = 0;
x = 604;
y = 61;
},
{
segmentType = line;
smooth = 0;
x = 653;
y = 111;
},
{
segmentType = line;
smooth = 0;
x = 336;
y = 88;
}
);
}
);
lib = {
};
name = T;
unicodes = (
);
width = 1442;
};
};
};
},
{
glyphname = U;
lastChange = "2020-05-30 22:01:07 +0000";
layers = (
{
anchors = (
{
name = btm;
position = "{305, 0}";
},
{
name = top;
position = "{313, 568}";
}
);
layerId = "DAAEA780-4710-4479-B303-5C05B40621B2";
paths = (
{
closed = 1;
nodes = (
"378 568 LINE",
"378 536 LINE",
"442 524 LINE SMOOTH",
"455 522 OFFCURVE",
"461 514 OFFCURVE",
"461 501 CURVE SMOOTH",
"461 205 LINE SMOOTH",
"461 88 OFFCURVE",
"417 28 OFFCURVE",
"312 28 CURVE SMOOTH",
"227 28 OFFCURVE",
"165 70 OFFCURVE",
"165 211 CURVE SMOOTH",
"165 500 LINE SMOOTH",
"165 513 OFFCURVE",
"172 522 OFFCURVE",
"184 524 CURVE SMOOTH",
"251 536 LINE",
"251 568 LINE",
"39 568 LINE",
"39 536 LINE",
"83 525 LINE SMOOTH",
"95 522 OFFCURVE",
"101 514 OFFCURVE",
"101 501 CURVE SMOOTH",
"101 218 LINE SMOOTH",
"101 68 OFFCURVE",
"161 -8 OFFCURVE",
"300 -8 CURVE SMOOTH",
"433 -8 OFFCURVE",
"509 58 OFFCURVE",
"509 208 CURVE SMOOTH",
"509 501 LINE SMOOTH",
"509 514 OFFCURVE",
"515 522 OFFCURVE",
"528 525 CURVE SMOOTH",
"573 536 LINE",
"573 568 LINE"
);
}
);
width = 612;
},
{
anchors = (
{
name = btm;
position = "{312, 0}";
},
{
name = top;
position = "{323, 573}";
}
);
layerId = "925CB40E-795E-477B-BAE7-1EE7D58841B5";
paths = (
{
closed = 1;
nodes = (
"380 573 LINE",
"380 518 LINE",
"441 507 LINE SMOOTH",
"452 505 OFFCURVE",
"457 498 OFFCURVE",
"457 486 CURVE SMOOTH",
"457 203 LINE SMOOTH",
"457 110 OFFCURVE",
"429 45 OFFCURVE",
"340 45 CURVE SMOOTH",
"255 45 OFFCURVE",
"225 104 OFFCURVE",
"225 203 CURVE SMOOTH",
"225 485 LINE SMOOTH",
"225 496 OFFCURVE",
"231 504 OFFCURVE",
"242 506 CURVE SMOOTH",
"300 518 LINE",
"300 573 LINE",
"31 573 LINE",
"31 518 LINE",
"67 508 LINE SMOOTH",
"77 505 OFFCURVE",
"83 498 OFFCURVE",
"83 487 CURVE SMOOTH",
"83 215 LINE SMOOTH",
"83 56 OFFCURVE",
"160 -9 OFFCURVE",
"318 -9 CURVE SMOOTH",
"455 -9 OFFCURVE",
"542 50 OFFCURVE",
"542 210 CURVE SMOOTH",
"542 487 LINE SMOOTH",
"542 498 OFFCURVE",
"547 505 OFFCURVE",
"558 508 CURVE SMOOTH",
"598 518 LINE",
"598 573 LINE"
);
}
);
width = 629;
}
);
leftKerningGroup = U;
rightKerningGroup = U;
rightMetricsKey = "=|";
unicode = 0055;
userData = {
com.schriftgestaltung.Glyphs.rightMetricsKey = "=|";
com.typemytype.robofont.layerData = {
background = {
anchors = (
{
name = btm;
x = 793;
y = -170;
},
{
name = top;
x = 799;
y = 1700;
}
);
components = (
);
contours = (
{
points = (
{
segmentType = curve;
smooth = 1;
x = 781;
y = -16;
},
{
smooth = 0;
x = 1092;
y = -16;
},
{
smooth = 0;
x = 1322;
y = 181;
},
{
segmentType = curve;
smooth = 1;
x = 1322;
y = 625;
},
{
segmentType = line;
smooth = 0;
x = 1322;
y = 1460;
},
{
segmentType = line;
smooth = 0;
x = 1294;
y = 1407;
},
{
segmentType = line;
smooth = 0;
x = 1479;
y = 1434;
},
{
segmentType = line;
smooth = 0;
x = 1479;
y = 1522;
},
{
segmentType = line;
smooth = 0;
x = 1024;
y = 1522;
},
{
segmentType = line;
smooth = 0;
x = 1024;
y = 1434;
},
{
segmentType = line;
smooth = 0;
x = 1227;
y = 1406;
},
{
segmentType = line;
smooth = 0;
x = 1193;
y = 1460;
},
{
segmentType = line;
smooth = 0;
x = 1193;
y = 617;
},
{
smooth = 0;
x = 1193;
y = 269;
},
{
smooth = 0;
x = 1059;
y = 83;
},
{
segmentType = curve;
smooth = 1;
x = 797;
y = 83;
},
{
smooth = 0;
x = 557;
y = 83;
},
{
smooth = 0;
x = 385;
y = 208;
},
{
segmentType = curve;
smooth = 1;
x = 385;
y = 633;
},
{
segmentType = line;
smooth = 0;
x = 385;
y = 1460;
},
{
segmentType = line;
smooth = 0;
x = 356;
y = 1407;
},
{
segmentType = line;
smooth = 0;
x = 561;
y = 1434;
},
{
segmentType = line;
smooth = 0;
x = 561;
y = 1522;
},
{
segmentType = line;
smooth = 0;
x = 60;
y = 1522;
},
{
segmentType = line;
smooth = 0;
x = 60;
y = 1434;
},
{
segmentType = line;
smooth = 0;
x = 238;
y = 1407;
},
{
segmentType = line;
smooth = 0;
x = 212;
y = 1460;
},
{
segmentType = line;
smooth = 0;
x = 212;
y = 651;
},
{
smooth = 0;
x = 212;
y = 199;
},
{
smooth = 0;
x = 385;
y = -16;
}
);
}
);
lib = {
};
name = U;
unicodes = (
);
width = 1638;
};
};
};
},
{
glyphname = V;
lastChange = "2020-05-30 22:03:15 +0000";
layers = (
{
anchors = (
{
name = bottom;
position = "{274, -65}";
},
{
name = btm;
position = "{282, 0}";
},
{
name = top;
position = "{270, 568}";
}
);
layerId = "DAAEA780-4710-4479-B303-5C05B40621B2";
paths = (
{
closed = 1;
nodes = (
"253 -2 LINE",
"311 -2 LINE",
"484 505 LINE SMOOTH",
"488 516 OFFCURVE",
"496 521 OFFCURVE",
"507 524 CURVE SMOOTH",
"549 536 LINE",
"549 568 LINE",
"364 568 LINE",
"364 536 LINE",
"440 521 LINE",
"276 28 LINE",
"305 28 LINE",
"122 521 LINE",
"199 536 LINE",
"199 568 LINE",
"-2 568 LINE",
"-2 536 LINE",
"38 524 LINE SMOOTH",
"50 521 OFFCURVE",
"56 516 OFFCURVE",
"61 505 CURVE SMOOTH"
);
}
);
width = 553;
},
{
anchors = (
{
name = bottom;
position = "{293, -65}";
},
{
name = btm;
position = "{298, 0}";
},
{
name = top;
position = "{306, 573}";
}
);
layerId = "925CB40E-795E-477B-BAE7-1EE7D58841B5";
paths = (
{
closed = 1;
nodes = (
"236 -2 LINE",
"359 -2 LINE",
"518 490 LINE SMOOTH",
"521 500 OFFCURVE",
"528 505 OFFCURVE",
"537 507 CURVE SMOOTH",
"587 518 LINE",
"587 573 LINE",
"375 573 LINE",
"375 518 LINE",
"445 505 LINE",
"311 58 LINE",
"347 58 LINE",
"197 505 LINE",
"267 518 LINE",
"267 573 LINE",
"-7 573 LINE",
"-7 518 LINE",
"39 507 LINE SMOOTH",
"48 505 OFFCURVE",
"54 500 OFFCURVE",
"58 490 CURVE SMOOTH"
);
}
);
width = 585;
}
);
unicode = 0056;
userData = {
com.typemytype.robofont.layerData = {
background = {
anchors = (
{
name = btm;
x = 703;
y = -170;
},
{
name = top;
x = 672;
y = 1700;
}
);
components = (
);
contours = (
{
points = (
{
segmentType = line;
smooth = 0;
x = 633;
y = -16;
},
{
segmentType = line;
smooth = 0;
x = 768;
y = -16;
},
{
segmentType = line;
smooth = 0;
x = 1271;
y = 1455;
},
{
segmentType = line;
smooth = 0;
x = 1228;
y = 1407;
},
{
segmentType = line;
smooth = 0;
x = 1386;
y = 1434;
},
{
segmentType = line;
smooth = 0;
x = 1386;
y = 1522;
},
{
segmentType = line;
smooth = 0;
x = 955;
y = 1522;
},
{
segmentType = line;
smooth = 0;
x = 955;
y = 1434;
},
{
segmentType = line;
smooth = 0;
x = 1139;
y = 1409;
},
{
segmentType = line;
smooth = 0;
x = 1134;
y = 1457;
},
{
segmentType = line;
smooth = 0;
x = 805;
y = 428;
},
{
segmentType = line;
smooth = 0;
x = 727;
y = 145;
},
{
segmentType = line;
smooth = 0;
x = 641;
y = 423;
},
{
segmentType = line;
smooth = 0;
x = 263;
y = 1454;
},
{
segmentType = line;
smooth = 0;
x = 244;
y = 1408;
},
{
segmentType = line;
smooth = 0;
x = 467;
y = 1434;
},
{
segmentType = line;
smooth = 0;
x = 467;
y = 1522;
},
{
segmentType = line;
smooth = 0;
x = -30;
y = 1522;
},
{
segmentType = line;
smooth = 0;
x = -30;
y = 1434;
},
{
segmentType = line;
smooth = 0;
x = 135;
y = 1405;
},
{
segmentType = line;
smooth = 0;
x = 83;
y = 1450;
}
);
}
);
lib = {
};
name = V;
unicodes = (
);
width = 1482;
};
};
};
},
{
glyphname = W;
lastChange = "2020-05-30 22:02:16 +0000";
layers = (
{
anchors = (
{
name = btm;
position = "{406, 0}";
},
{
name = top;
position = "{400, 568}";
}
);
layerId = "DAAEA780-4710-4479-B303-5C05B40621B2";
paths = (
{
closed = 1;
nodes = (
"389 488 LINE",
"257 46 LINE",
"272 46 LINE",
"126 521 LINE",
"202 536 LINE",
"202 568 LINE",
"0 568 LINE",
"0 536 LINE",
"42 524 LINE SMOOTH",
"54 521 OFFCURVE",
"61 515 OFFCURVE",
"64 504 CURVE SMOOTH",
"227 -4 LINE",
"287 -4 LINE",
"414 425 LINE"
);
},
{
closed = 1;
nodes = (
"395 425 LINE",
"524 -4 LINE",
"585 -4 LINE",
"735 504 LINE SMOOTH",
"739 517 OFFCURVE",
"746 521 OFFCURVE",
"757 524 CURVE SMOOTH",
"800 536 LINE",
"800 568 LINE",
"616 568 LINE",
"616 536 LINE",
"692 521 LINE",
"555 44 LINE",
"571 44 LINE",
"428 521 LINE",
"503 536 LINE",
"503 568 LINE",
"307 568 LINE",
"307 536 LINE",
"345 524 LINE SMOOTH",
"357 521 OFFCURVE",
"363 515 OFFCURVE",
"367 504 CURVE SMOOTH"
);
}
);
width = 805;
},
{
anchors = (
{
name = btm;
position = "{426, 0}";
},
{
name = top;
position = "{427, 573}";
}
);
layerId = "925CB40E-795E-477B-BAE7-1EE7D58841B5";
paths = (
{
closed = 1;
nodes = (
"396 464 LINE",
"292 83 LINE",
"308 83 LINE",
"199 505 LINE",
"262 518 LINE",
"262 573 LINE",
"-4 573 LINE",
"-4 518 LINE",
"44 507 LINE SMOOTH",
"53 505 OFFCURVE",
"59 498 OFFCURVE",
"62 489 CURVE SMOOTH",
"211 -2 LINE",
"334 -2 LINE",
"437 385 LINE"
);
},
{
closed = 1;
nodes = (
"408 388 LINE",
"518 -2 LINE",
"641 -2 LINE",
"777 489 LINE SMOOTH",
"780 499 OFFCURVE",
"786 505 OFFCURVE",
"796 507 CURVE SMOOTH",
"847 518 LINE",
"847 573 LINE",
"644 573 LINE",
"644 518 LINE",
"707 505 LINE",
"598 83 LINE",
"618 83 LINE",
"510 505 LINE",
"582 518 LINE",
"582 573 LINE",
"323 573 LINE",
"323 518 LINE",
"356 507 LINE SMOOTH",
"365 504 OFFCURVE",
"371 498 OFFCURVE",
"374 489 CURVE SMOOTH"
);
}
);
width = 845;
}
);
leftKerningGroup = W;
rightKerningGroup = W;
unicode = 0057;
userData = {
com.typemytype.robofont.layerData = {
background = {
anchors = (
{
name = btm;
x = 1109;
y = -170;
},
{
name = top;
x = 1119;
y = 1700;
}
);
components = (
);
contours = (
{
points = (
{
segmentType = line;
smooth = 0;
x = 655;
y = -11;
},
{
segmentType = line;
smooth = 0;
x = 804;
y = -11;
},
{
segmentType = line;
smooth = 0;
x = 1149;
y = 1122;
},
{
segmentType = line;
smooth = 0;
x = 1118;
y = 1101;
},
{
segmentType = line;
smooth = 0;
x = 1461;
y = -11;
},
{
segmentType = line;
smooth = 0;
x = 1620;
y = -11;
},
{
segmentType = line;
smooth = 0;
x = 2052;
y = 1453;
},
{
segmentType = line;
smooth = 0;
x = 2026;
y = 1409;
},
{
segmentType = line;
smooth = 0;
x = 2177;
y = 1434;
},
{
segmentType = line;
smooth = 0;
x = 2177;
y = 1522;
},
{
segmentType = line;
smooth = 0;
x = 1692;
y = 1522;
},
{
segmentType = line;
smooth = 0;
x = 1692;
y = 1434;
},
{
segmentType = line;
smooth = 0;
x = 1927;
y = 1409;
},
{
segmentType = line;
smooth = 0;
x = 1922;
y = 1463;
},
{
segmentType = line;
smooth = 0;
x = 1633;
y = 439;
},
{
segmentType = line;
smooth = 0;
x = 1555;
y = 34;
},
{
segmentType = line;
smooth = 0;
x = 1579;
y = 34;
},
{
segmentType = line;
smooth = 0;
x = 1486;
y = 439;
},
{
segmentType = line;
smooth = 0;
x = 1179;
y = 1474;
},
{
segmentType = line;
smooth = 0;
x = 1169;
y = 1408;
},
{
segmentType = line;
smooth = 0;
x = 1400;
y = 1434;
},
{
segmentType = line;
smooth = 0;
x = 1400;
y = 1522;
},
{
segmentType = line;
smooth = 0;
x = 868;
y = 1522;
},
{
segmentType = line;
smooth = 0;
x = 868;
y = 1434;
},
{
segmentType = line;
smooth = 0;
x = 1042;
y = 1408;
},
{
segmentType = line;
smooth = 0;
x = 1003;
y = 1463;
},
{
segmentType = line;
smooth = 0;
x = 1089;
y = 1195;
},
{
segmentType = line;
smooth = 0;
x = 1089;
y = 1285;
},
{
segmentType = line;
smooth = 0;
x = 829;
y = 439;
},
{
segmentType = line;
smooth = 0;
x = 732;
y = 44;
},
{
segmentType = line;
smooth = 0;
x = 764;
y = 44;
},
{
segmentType = line;
smooth = 0;
x = 682;
y = 439;
},
{
segmentType = line;
smooth = 0;
x = 369;
y = 1462;
},
{
segmentType = line;
smooth = 0;
x = 359;
y = 1408;
},
{
segmentType = line;
smooth = 0;
x = 585;
y = 1434;
},
{
segmentType = line;
smooth = 0;
x = 585;
y = 1522;
},
{
segmentType = line;
smooth = 0;
x = 70;
y = 1522;
},
{
segmentType = line;
smooth = 0;
x = 70;
y = 1434;
},
{
segmentType = line;
smooth = 0;
x = 235;
y = 1407;
},
{
segmentType = line;
smooth = 0;
x = 195;
y = 1466;
}
);
}
);
lib = {
};
name = W;
unicodes = (
);
width = 2173;
};
};
};
},
{
glyphname = X;
lastChange = "2020-05-30 22:03:28 +0000";
layers = (
{
anchors = (
{
name = btm;
position = "{268, 0}";
},
{
name = top;
position = "{268, 568}";
}
);
guideLines = (
{
angle = 123.098;
position = "{-31, -21}";
},
{
angle = 55.848;
position = "{638, 405}";
}
);
layerId = "DAAEA780-4710-4479-B303-5C05B40621B2";
paths = (
{
closed = 1;
nodes = (
"529 0 LINE",
"529 32 LINE",
"486 43 LINE SMOOTH",
"476 45 OFFCURVE",
"468 49 OFFCURVE",
"462 59 CURVE SMOOTH",
"292 312 LINE",
"288 312 LINE",
"156 523 LINE",
"232 536 LINE",
"232 568 LINE",
"23 568 LINE",
"23 536 LINE",
"65 524 LINE SMOOTH",
"76 521 OFFCURVE",
"83 516 OFFCURVE",
"89 507 CURVE SMOOTH",
"247 268 LINE",
"252 267 LINE",
"395 44 LINE",
"322 32 LINE",
"322 0 LINE"
);
},
{
closed = 1;
nodes = (
"206 0 LINE",
"206 32 LINE",
"129 44 LINE",
"277 269 LINE",
"283 269 LINE",
"449 508 LINE SMOOTH",
"455 517 OFFCURVE",
"462 521 OFFCURVE",
"472 524 CURVE SMOOTH",
"516 536 LINE",
"516 568 LINE",
"338 568 LINE",
"338 536 LINE",
"405 523 LINE",
"264 306 LINE",
"255 306 LINE",
"83 59 LINE SMOOTH",
"76 49 OFFCURVE",
"70 45 OFFCURVE",
"59 43 CURVE SMOOTH",
"10 32 LINE",
"10 0 LINE"
);
}
);
width = 540;
},
{
anchors = (
{
name = btm;
position = "{278, 0}";
},
{
name = top;
position = "{288, 573}";
}
);
layerId = "925CB40E-795E-477B-BAE7-1EE7D58841B5";
paths = (
{
closed = 1;
nodes = (
"562 0 LINE",
"562 52 LINE",
"521 63 LINE SMOOTH",
"512 65 OFFCURVE",
"505 69 OFFCURVE",
"500 77 CURVE SMOOTH",
"336 332 LINE",
"330 332 LINE",
"226 505 LINE",
"282 518 LINE",
"282 573 LINE",
"15 573 LINE",
"15 518 LINE",
"56 507 LINE SMOOTH",
"65 505 OFFCURVE",
"71 500 OFFCURVE",
"76 492 CURVE SMOOTH",
"229 252 LINE",
"235 252 LINE",
"348 64 LINE",
"292 52 LINE",
"292 0 LINE"
);
},
{
closed = 1;
nodes = (
"219 0 LINE",
"219 52 LINE",
"151 64 LINE",
"279 264 LINE",
"313 264 LINE",
"475 493 LINE SMOOTH",
"480 501 OFFCURVE",
"487 505 OFFCURVE",
"496 507 CURVE SMOOTH",
"545 518 LINE",
"545 573 LINE",
"344 573 LINE",
"344 518 LINE",
"406 505 LINE",
"284 319 LINE",
"248 319 LINE",
"80 77 LINE SMOOTH",
"74 68 OFFCURVE",
"69 65 OFFCURVE",
"60 63 CURVE SMOOTH",
"6 52 LINE",
"6 0 LINE"
);
}
);
width = 565;
}
);
unicode = 0058;
userData = {
com.typemytype.robofont.guides = (
{
angle = 123.098;
isGlobal = 0;
x = -85;
y = -57;
},
{
angle = 55.848;
isGlobal = 0;
x = 1754;
y = 1115;
}
);
com.typemytype.robofont.layerData = {
background = {
anchors = (
{
name = btm;
x = 759;
y = -170;
},
{
name = top;
x = 759;
y = 1700;
}
);
components = (
);
contours = (
{
points = (
{
segmentType = line;
smooth = 0;
x = 50;
y = 0;
},
{
segmentType = line;
smooth = 0;
x = 588;
y = 0;
},
{
segmentType = line;
smooth = 0;
x = 588;
y = 90;
},
{
segmentType = line;
smooth = 0;
x = 341;
y = 113;
},
{
segmentType = line;
smooth = 0;
x = 346;
y = 54;
},
{
segmentType = line;
smooth = 0;
x = 753;
y = 749;
},
{
segmentType = line;
smooth = 0;
x = 721;
y = 744;
},
{
segmentType = line;
smooth = 0;
x = 1135;
y = 67;
},
{
segmentType = line;
smooth = 0;
x = 1149;
y = 114;
},
{
segmentType = line;
smooth = 0;
x = 908;
y = 90;
},
{
segmentType = line;
smooth = 0;
x = 908;
y = 0;
},
{
segmentType = line;
smooth = 0;
x = 1478;
y = 0;
},
{
segmentType = line;
smooth = 0;
x = 1478;
y = 90;
},
{
segmentType = line;
smooth = 0;
x = 1259;
y = 116;
},
{
segmentType = line;
smooth = 0;
x = 1343;
y = 69;
},
{
segmentType = line;
smooth = 0;
x = 829;
y = 844;
},
{
segmentType = line;
smooth = 0;
x = 834;
y = 786;
},
{
segmentType = line;
smooth = 0;
x = 1313;
y = 1498;
},
{
segmentType = line;
smooth = 0;
x = 1233;
y = 1441;
},
{
segmentType = line;
smooth = 0;
x = 1440;
y = 1472;
},
{
segmentType = line;
smooth = 0;
x = 1440;
y = 1562;
},
{
segmentType = line;
smooth = 0;
x = 951;
y = 1562;
},
{
segmentType = line;
smooth = 0;
x = 951;
y = 1472;
},
{
segmentType = line;
smooth = 0;
x = 1161;
y = 1445;
},
{
segmentType = line;
smooth = 0;
x = 1160;
y = 1491;
},
{
segmentType = line;
smooth = 0;
x = 771;
y = 841;
},
{
segmentType = line;
smooth = 0;
x = 823;
y = 835;
},
{
segmentType = line;
smooth = 0;
x = 419;
y = 1499;
},
{
segmentType = line;
smooth = 0;
x = 408;
y = 1443;
},
{
segmentType = line;
smooth = 0;
x = 660;
y = 1472;
},
{
segmentType = line;
smooth = 0;
x = 660;
y = 1562;
},
{
segmentType = line;
smooth = 0;
x = 86;
y = 1562;
},
{
segmentType = line;
smooth = 0;
x = 86;
y = 1472;
},
{
segmentType = line;
smooth = 0;
x = 289;
y = 1441;
},
{
segmentType = line;
smooth = 0;
x = 214;
y = 1493;
},
{
segmentType = line;
smooth = 0;
x = 699;
y = 758;
},
{
segmentType = line;
smooth = 0;
x = 689;
y = 810;
},
{
segmentType = line;
smooth = 0;
x = 200;
y = 69;
},
{
segmentType = line;
smooth = 0;
x = 269;
y = 114;
},
{
segmentType = line;
smooth = 0;
x = 50;
y = 90;
}
);
}
);
lib = {
};
name = X;
unicodes = (
);
width = 1445;
};
};
};
},
{
glyphname = Y;
lastChange = "2020-05-30 22:02:53 +0000";
layers = (
{
anchors = (
{
name = btm;
position = "{268, 0}";
},
{
name = top;
position = "{261, 568}";
}
);
layerId = "DAAEA780-4710-4479-B303-5C05B40621B2";
paths = (
{
closed = 1;
nodes = (
"288 196 LINE",
"452 508 LINE SMOOTH",
"457 519 OFFCURVE",
"465 523 OFFCURVE",
"476 526 CURVE SMOOTH",
"522 536 LINE",
"522 568 LINE",
"340 568 LINE",
"340 536 LINE",
"409 523 LINE",
"265 246 LINE",
"289 246 LINE",
"133 523 LINE",
"203 536 LINE",
"203 568 LINE",
"0 568 LINE",
"0 536 LINE",
"45 525 LINE SMOOTH",
"56 522 OFFCURVE",
"64 517 OFFCURVE",
"69 507 CURVE SMOOTH",
"248 196 LINE"
);
},
{
closed = 1;
nodes = (
"389 0 LINE",
"389 32 LINE",
"319 45 LINE SMOOTH",
"305 47 OFFCURVE",
"299 54 OFFCURVE",
"299 68 CURVE SMOOTH",
"299 223 LINE",
"237 223 LINE",
"237 68 LINE SMOOTH",
"237 54 OFFCURVE",
"230 47 OFFCURVE",
"216 45 CURVE SMOOTH",
"146 32 LINE",
"146 0 LINE"
);
}
);
width = 529;
},
{
anchors = (
{
name = btm;
position = "{278, 0}";
},
{
name = top;
position = "{287, 573}";
}
);
layerId = "925CB40E-795E-477B-BAE7-1EE7D58841B5";
paths = (
{
closed = 1;
nodes = (
"333 191 LINE",
"484 493 LINE SMOOTH",
"488 501 OFFCURVE",
"495 506 OFFCURVE",
"504 508 CURVE SMOOTH",
"546 518 LINE",
"546 573 LINE",
"343 573 LINE",
"343 518 LINE",
"407 504 LINE",
"294 266 LINE",
"332 266 LINE",
"211 504 LINE",
"268 518 LINE",
"268 573 LINE",
"-9 573 LINE",
"-9 518 LINE",
"36 507 LINE SMOOTH",
"45 505 OFFCURVE",
"52 500 OFFCURVE",
"57 492 CURVE SMOOTH",
"226 191 LINE"
);
},
{
closed = 1;
nodes = (
"436 0 LINE",
"436 52 LINE",
"367 66 LINE SMOOTH",
"355 68 OFFCURVE",
"349 74 OFFCURVE",
"349 85 CURVE SMOOTH",
"349 241 LINE",
"207 241 LINE",
"207 85 LINE SMOOTH",
"207 74 OFFCURVE",
"201 68 OFFCURVE",
"190 66 CURVE SMOOTH",
"121 52 LINE",
"121 0 LINE"
);
}
);
width = 549;
}
);
leftKerningGroup = Y;
rightKerningGroup = Y;
unicode = 0059;
userData = {
com.typemytype.robofont.layerData = {
background = {
anchors = (
{
name = btm;
x = 734;
y = -170;
},
{
name = top;
x = 787;
y = 1700;
}
);
components = (
);
contours = (
{
points = (
{
segmentType = line;
smooth = 0;
x = 463;
y = 0;
},
{
segmentType = line;
smooth = 0;
x = 1096;
y = 0;
},
{
segmentType = line;
smooth = 0;
x = 1096;
y = 88;
},
{
segmentType = line;
smooth = 0;
x = 826;
y = 111;
},
{
segmentType = line;
smooth = 0;
x = 863;
y = 75;
},
{
segmentType = line;
smooth = 0;
x = 863;
y = 639;
},
{
segmentType = line;
smooth = 0;
x = 831;
y = 528;
},
{
segmentType = line;
smooth = 0;
x = 1333;
y = 1463;
},
{
segmentType = line;
smooth = 0;
x = 1264;
y = 1404;
},
{
segmentType = line;
smooth = 0;
x = 1441;
y = 1434;
},
{
segmentType = line;
smooth = 0;
x = 1441;
y = 1522;
},
{
segmentType = line;
smooth = 0;
x = 996;
y = 1522;
},
{
segmentType = line;
smooth = 0;
x = 996;
y = 1434;
},
{
segmentType = line;
smooth = 0;
x = 1192;
y = 1408;
},
{
segmentType = line;
smooth = 0;
x = 1199;
y = 1473;
},
{
segmentType = line;
smooth = 0;
x = 870;
y = 831;
},
{
segmentType = line;
smooth = 0;
x = 786;
y = 655;
},
{
segmentType = line;
smooth = 0;
x = 797;
y = 655;
},
{
segmentType = line;
smooth = 0;
x = 718;
y = 831;
},
{
segmentType = line;
smooth = 0;
x = 377;
y = 1470;
},
{
segmentType = line;
smooth = 0;
x = 381;
y = 1408;
},
{
segmentType = line;
smooth = 0;
x = 581;
y = 1434;
},
{
segmentType = line;
smooth = 0;
x = 581;
y = 1522;
},
{
segmentType = line;
smooth = 0;
x = 90;
y = 1522;
},
{
segmentType = line;
smooth = 0;
x = 90;
y = 1434;
},
{
segmentType = line;
smooth = 0;
x = 266;
y = 1401;
},
{
segmentType = line;
smooth = 0;
x = 182;
y = 1474;
},
{
segmentType = line;
smooth = 0;
x = 725;
y = 526;
},
{
segmentType = line;
smooth = 0;
x = 691;
y = 639;
},
{
segmentType = line;
smooth = 0;
x = 691;
y = 74;
},
{
segmentType = line;
smooth = 0;
x = 729;
y = 111;
},
{
segmentType = line;
smooth = 0;
x = 463;
y = 88;
}
);
}
);
lib = {
};
name = Y;
unicodes = (
);
width = 1415;
};
};
};
},
{
glyphname = Z;
lastChange = "2020-05-30 22:03:40 +0000";
layers = (
{
anchors = (
{
name = btm;
position = "{229, 0}";
},
{
name = top;
position = "{257, 568}";
}
);
layerId = "DAAEA780-4710-4479-B303-5C05B40621B2";
paths = (
{
closed = 1;
nodes = (
"432 0 LINE",
"440 46 OFFCURVE",
"445 111 OFFCURVE",
"444 159 CURVE",
"411 162 LINE",
"383 69 LINE SMOOTH",
"380 58 OFFCURVE",
"374 52 OFFCURVE",
"363 48 CURVE SMOOTH",
"344 41 OFFCURVE",
"313 39 OFFCURVE",
"278 39 CURVE SMOOTH",
"84 39 LINE",
"99 24 LINE",
"443 540 LINE",
"427 568 LINE",
"72 568 LINE",
"65 519 OFFCURVE",
"61 463 OFFCURVE",
"64 414 CURVE",
"98 414 LINE",
"121 501 LINE SMOOTH",
"124 512 OFFCURVE",
"130 518 OFFCURVE",
"141 522 CURVE SMOOTH",
"160 529 OFFCURVE",
"191 530 OFFCURVE",
"226 530 CURVE SMOOTH",
"383 530 LINE",
"371 544 LINE",
"27 29 LINE",
"44 0 LINE"
);
}
);
width = 490;
},
{
anchors = (
{
name = btm;
position = "{247, 0}";
},
{
name = top;
position = "{276, 573}";
}
);
layerId = "925CB40E-795E-477B-BAE7-1EE7D58841B5";
paths = (
{
closed = 1;
nodes = (
"467 0 LINE",
"477 55 OFFCURVE",
"483 137 OFFCURVE",
"481 188 CURVE",
"407 198 LINE",
"370 92 LINE SMOOTH",
"366 79 OFFCURVE",
"359 72 OFFCURVE",
"349 68 CURVE SMOOTH",
"336 63 OFFCURVE",
"313 60 OFFCURVE",
"283 60 CURVE SMOOTH",
"150 60 LINE",
"175 40 LINE",
"484 527 LINE",
"465 573 LINE",
"68 573 LINE",
"57 515 OFFCURVE",
"53 447 OFFCURVE",
"56 385 CURVE",
"132 385 LINE",
"165 487 LINE SMOOTH",
"169 499 OFFCURVE",
"176 506 OFFCURVE",
"187 510 CURVE SMOOTH",
"200 515 OFFCURVE",
"223 518 OFFCURVE",
"253 518 CURVE SMOOTH",
"348 518 LINE",
"331 532 LINE",
"18 45 LINE",
"44 0 LINE"
);
}
);
width = 519;
}
);
leftKerningGroup = Z;
rightKerningGroup = Z;
unicode = 005A;
userData = {
com.typemytype.robofont.layerData = {
background = {
anchors = (
{
name = btm;
x = 683;
y = -170;
},
{
name = top;
x = 706;
y = 1700;
}
);
components = (
);
contours = (
{
points = (
{
segmentType = line;
smooth = 0;
x = 135;
y = 0;
},
{
segmentType = line;
smooth = 0;
x = 1201;
y = 0;
},
{
segmentType = line;
smooth = 0;
x = 1249;
y = 433;
},
{
segmentType = line;
smooth = 0;
x = 1151;
y = 454;
},
{
segmentType = line;
smooth = 0;
x = 1049;
y = 132;
},
{
segmentType = line;
smooth = 0;
x = 291;
y = 96;
},
{
segmentType = line;
smooth = 0;
x = 424;
y = 256;
},
{
segmentType = line;
smooth = 0;
x = 1226;
y = 1452;
},
{
segmentType = line;
smooth = 0;
x = 1182;
y = 1528;
},
{
segmentType = line;
smooth = 0;
x = 217;
y = 1528;
},
{
segmentType = line;
smooth = 0;
x = 174;
y = 1157;
},
{
segmentType = line;
smooth = 0;
x = 268;
y = 1146;
},
{
segmentType = line;
smooth = 0;
x = 369;
y = 1413;
},
{
segmentType = line;
smooth = 0;
x = 1019;
y = 1434;
},
{
segmentType = line;
smooth = 0;
x = 903;
y = 1286;
},
{
segmentType = line;
smooth = 0;
x = 87;
y = 80;
}
);
}
);
lib = {
};
name = Z;
unicodes = (
);
width = 1307;
};
};
};
},
{
glyphname = a;
lastChange = "2020-05-30 22:05:15 +0000";
layers = (
{
anchors = (
{
name = btm;
position = "{192, 0}";
},
{
name = top;
position = "{207, 413}";
}
);
layerId = "DAAEA780-4710-4479-B303-5C05B40621B2";
paths = (
{
closed = 1;
nodes = (
"154 -8 CURVE SMOOTH",
"221 -8 OFFCURVE",
"282 29 OFFCURVE",
"309 78 CURVE",
"301 94 LINE",
"277 61 OFFCURVE",
"221 36 OFFCURVE",
"173 36 CURVE SMOOTH",
"128 36 OFFCURVE",
"105 59 OFFCURVE",
"105 96 CURVE SMOOTH",
"105 145 OFFCURVE",
"143 164 OFFCURVE",
"206 169 CURVE SMOOTH",
"298 178 LINE",
"298 213 LINE",
"199 204 LINE SMOOTH",
"128 198 OFFCURVE",
"39 178 OFFCURVE",
"39 91 CURVE SMOOTH",
"39 25 OFFCURVE",
"90 -8 OFFCURVE"
);
},
{
closed = 1;
nodes = (
"66 324 LINE",
"102 358 OFFCURVE",
"144 372 OFFCURVE",
"191 372 CURVE SMOOTH",
"256 372 OFFCURVE",
"285 344 OFFCURVE",
"285 263 CURVE SMOOTH",
"285 58 LINE",
"289 19 OFFCURVE",
"309 -6 OFFCURVE",
"346 -6 CURVE SMOOTH",
"367 -6 OFFCURVE",
"400 3 OFFCURVE",
"410 7 CURVE",
"410 36 LINE",
"367 40 LINE SMOOTH",
"352 41 OFFCURVE",
"345 48 OFFCURVE",
"345 64 CURVE SMOOTH",
"345 277 LINE SMOOTH",
"345 376 OFFCURVE",
"297 421 OFFCURVE",
"207 421 CURVE SMOOTH",
"137 421 OFFCURVE",
"69 394 OFFCURVE",
"51 340 CURVE"
);
}
);
width = 433;
},
{
anchors = (
{
name = btm;
position = "{212, 0}";
},
{
name = top;
position = "{220, 423}";
}
);
layerId = "925CB40E-795E-477B-BAE7-1EE7D58841B5";
paths = (
{
closed = 1;
nodes = (
"145 -8 CURVE SMOOTH",
"210 -8 OFFCURVE",
"261 20 OFFCURVE",
"287 71 CURVE",
"277 99 LINE",
"259 77 OFFCURVE",
"232 64 OFFCURVE",
"201 64 CURVE SMOOTH",
"170 64 OFFCURVE",
"158 80 OFFCURVE",
"158 113 CURVE SMOOTH",
"158 147 OFFCURVE",
"172 174 OFFCURVE",
"219 176 CURVE SMOOTH",
"280 180 LINE",
"280 228 LINE",
"185 223 LINE SMOOTH",
"100 218 OFFCURVE",
"24 178 OFFCURVE",
"24 98 CURVE SMOOTH",
"24 34 OFFCURVE",
"71 -8 OFFCURVE"
);
},
{
closed = 1;
nodes = (
"66 305 LINE",
"98 334 OFFCURVE",
"136 348 OFFCURVE",
"180 348 CURVE SMOOTH",
"231 348 OFFCURVE",
"259 329 OFFCURVE",
"259 270 CURVE SMOOTH",
"259 69 LINE",
"270 12 OFFCURVE",
"304 -7 OFFCURVE",
"355 -7 CURVE SMOOTH",
"384 -7 OFFCURVE",
"421 2 OFFCURVE",
"441 7 CURVE",
"441 56 LINE",
"405 61 LINE SMOOTH",
"393 62 OFFCURVE",
"386 68 OFFCURVE",
"386 83 CURVE SMOOTH",
"386 272 LINE SMOOTH",
"386 378 OFFCURVE",
"337 433 OFFCURVE",
"219 433 CURVE SMOOTH",
"120 433 OFFCURVE",
"60 394 OFFCURVE",
"36 331 CURVE"
);
}
);
width = 455;
}
);
leftKerningGroup = a;
rightKerningGroup = a;
unicode = 0061;
userData = {
com.typemytype.robofont.layerData = {
background = {
anchors = (
{
name = btm;
x = 493;
y = -170;
},
{
name = top;
x = 517;
y = 1700;
}
);
components = (
);
contours = (
{
points = (
{
segmentType = curve;
smooth = 1;
x = 70;
y = 299;
},
{
smooth = 0;
x = 70;
y = 76;
},
{
smooth = 0;
x = 230;
y = -23;
},
{
segmentType = curve;
smooth = 1;
x = 412;
y = -23;
},
{
smooth = 0;
x = 585;
y = -23;
},
{
smooth = 0;
x = 720;
y = 99;
},
{
segmentType = curve;
smooth = 0;
x = 770;
y = 143;
},
{
segmentType = line;
smooth = 0;
x = 797;
y = 200;
},
{
segmentType = line;
smooth = 0;
x = 757;
y = 223;
},
{
smooth = 0;
x = 675;
y = 159;
},
{
smooth = 0;
x = 555;
y = 99;
},
{
segmentType = curve;
smooth = 1;
x = 473;
y = 99;
},
{
smooth = 0;
x = 349;
y = 99;
},
{
smooth = 0;
x = 252;
y = 156;
},
{
segmentType = curve;
smooth = 1;
x = 252;
y = 319;
},
{
smooth = 0;
x = 252;
y = 475;
},
{
smooth = 0;
x = 416;
y = 584;
},
{
segmentType = curve;
smooth = 0;
x = 757;
y = 586;
},
{
segmentType = line;
smooth = 0;
x = 796;
y = 637;
},
{
segmentType = line;
smooth = 0;
x = 757;
y = 682;
},
{
smooth = 0;
x = 419;
y = 676;
},
{
smooth = 0;
x = 70;
y = 585;
}
);
},
{
points = (
{
segmentType = line;
smooth = 0;
x = 757;
y = 186;
},
{
segmentType = line;
smooth = 0;
x = 770;
y = 186;
},
{
segmentType = line;
smooth = 0;
x = 770;
y = 68;
},
{
smooth = 0;
x = 770;
y = -13;
},
{
smooth = 0;
x = 797;
y = -19;
},
{
segmentType = curve;
smooth = 1;
x = 856;
y = -19;
},
{
smooth = 0;
x = 918;
y = -19;
},
{
smooth = 0;
x = 1003;
y = 1;
},
{
segmentType = curve;
smooth = 0;
x = 1048;
y = 13;
},
{
segmentType = line;
smooth = 0;
x = 1048;
y = 89;
},
{
segmentType = line;
smooth = 0;
x = 920;
y = 89;
},
{
segmentType = line;
smooth = 0;
x = 920;
y = 764;
},
{
smooth = 0;
x = 920;
y = 1051;
},
{
smooth = 0;
x = 825;
y = 1160;
},
{
segmentType = curve;
smooth = 1;
x = 547;
y = 1160;
},
{
smooth = 0;
x = 359;
y = 1160;
},
{
smooth = 0;
x = 143;
y = 1043;
},
{
segmentType = curve;
smooth = 0;
x = 105;
y = 1007;
},
{
segmentType = line;
smooth = 0;
x = 150;
y = 917;
},
{
segmentType = line;
smooth = 0;
x = 151;
y = 917;
},
{
smooth = 0;
x = 216;
y = 955;
},
{
smooth = 0;
x = 352;
y = 1027;
},
{
segmentType = curve;
smooth = 1;
x = 511;
y = 1027;
},
{
smooth = 0;
x = 704;
y = 1027;
},
{
smooth = 0;
x = 757;
y = 949;
},
{
segmentType = curve;
smooth = 1;
x = 757;
y = 746;
}
);
}
);
lib = {
};
name = a;
unicodes = (
);
width = 1150;
};
};
};
},
{
glyphname = b;
lastChange = "2020-05-30 22:06:25 +0000";
layers = (
{
anchors = (
{
name = btm;
position = "{230, 0}";
},
{
name = top;
position = "{280, 413}";
}
);
layerId = "DAAEA780-4710-4479-B303-5C05B40621B2";
paths = (
{
closed = 1;
nodes = (
"72 18 LINE",
"96 8 OFFCURVE",
"150 -10 OFFCURVE",
"211 -10 CURVE SMOOTH",
"349 -10 OFFCURVE",
"423 82 OFFCURVE",
"423 225 CURVE SMOOTH",
"423 366 OFFCURVE",
"351 423 OFFCURVE",
"258 423 CURVE SMOOTH",
"189 423 OFFCURVE",
"146 391 OFFCURVE",
"115 351 CURVE",
"117 323 LINE",
"147 356 OFFCURVE",
"185 377 OFFCURVE",
"236 377 CURVE SMOOTH",
"311 377 OFFCURVE",
"359 332 OFFCURVE",
"357 206 CURVE SMOOTH",
"355 81 OFFCURVE",
"307 27 OFFCURVE",
"216 27 CURVE SMOOTH",
"179 27 OFFCURVE",
"153 37 OFFCURVE",
"132 48 CURVE",
"132 644 LINE",
"123 653 LINE",
"83 652 OFFCURVE",
"36 645 OFFCURVE",
"-4 633 CURVE",
"-4 606 LINE",
"52 598 LINE SMOOTH",
"65 596 OFFCURVE",
"72 589 OFFCURVE",
"72 576 CURVE SMOOTH"
);
}
);
width = 468;
},
{
anchors = (
{
name = btm;
position = "{206, 0}";
},
{
name = top;
position = "{313, 423}";
}
);
layerId = "925CB40E-795E-477B-BAE7-1EE7D58841B5";
paths = (
{
closed = 1;
nodes = (
"55 19 LINE",
"85 6 OFFCURVE",
"156 -9 OFFCURVE",
"220 -9 CURVE SMOOTH",
"372 -9 OFFCURVE",
"453 79 OFFCURVE",
"453 232 CURVE SMOOTH",
"453 371 OFFCURVE",
"386 433 OFFCURVE",
"299 433 CURVE SMOOTH",
"241 433 OFFCURVE",
"192 406 OFFCURVE",
"163 359 CURVE",
"174 330 LINE",
"193 349 OFFCURVE",
"217 356 OFFCURVE",
"239 356 CURVE SMOOTH",
"288 356 OFFCURVE",
"316 321 OFFCURVE",
"314 208 CURVE SMOOTH",
"312 92 OFFCURVE",
"284 42 OFFCURVE",
"229 42 CURVE SMOOTH",
"212 42 OFFCURVE",
"197 46 OFFCURVE",
"186 52 CURVE",
"186 639 LINE",
"168 655 LINE",
"117 654 OFFCURVE",
"42 645 OFFCURVE",
"-9 632 CURVE",
"-9 580 LINE",
"38 572 LINE SMOOTH",
"49 571 OFFCURVE",
"55 563 OFFCURVE",
"55 552 CURVE SMOOTH"
);
}
);
width = 483;
}
);
leftKerningGroup = b;
rightKerningGroup = b;
unicode = 0062;
userData = {
com.typemytype.robofont.layerData = {
background = {
anchors = (
{
name = btm;
x = 639;
y = -170;
},
{
name = top;
x = 777;
y = 1700;
}
);
components = (
);
contours = (
{
points = (
{
segmentType = line;
smooth = 0;
x = 206;
y = 56;
},
{
smooth = 0;
x = 232;
y = 28;
},
{
smooth = 0;
x = 400;
y = -23;
},
{
segmentType = curve;
smooth = 1;
x = 586;
y = -23;
},
{
smooth = 0;
x = 946;
y = -23;
},
{
smooth = 0;
x = 1170;
y = 261;
},
{
segmentType = curve;
smooth = 1;
x = 1170;
y = 610;
},
{
smooth = 0;
x = 1170;
y = 1003;
},
{
smooth = 0;
x = 951;
y = 1168;
},
{
segmentType = curve;
smooth = 1;
x = 722;
y = 1168;
},
{
smooth = 0;
x = 523;
y = 1168;
},
{
smooth = 0;
x = 386;
y = 1052;
},
{
segmentType = curve;
smooth = 0;
x = 324;
y = 976;
},
{
segmentType = line;
smooth = 0;
x = 369;
y = 909;
},
{
smooth = 0;
x = 415;
y = 961;
},
{
smooth = 0;
x = 524;
y = 1042;
},
{
segmentType = curve;
smooth = 1;
x = 654;
y = 1042;
},
{
smooth = 0;
x = 837;
y = 1042;
},
{
smooth = 0;
x = 994;
y = 907;
},
{
segmentType = curve;
smooth = 1;
x = 990;
y = 581;
},
{
smooth = 0;
x = 985;
y = 241;
},
{
smooth = 0;
x = 822;
y = 81;
},
{
segmentType = curve;
smooth = 1;
x = 601;
y = 81;
},
{
smooth = 0;
x = 499;
y = 81;
},
{
smooth = 0;
x = 393;
y = 106;
},
{
segmentType = curve;
smooth = 0;
x = 371;
y = 154;
},
{
segmentType = line;
smooth = 0;
x = 371;
y = 1648;
},
{
segmentType = line;
smooth = 0;
x = 333;
y = 1677;
},
{
segmentType = line;
smooth = 0;
x = 329;
y = 1677;
},
{
segmentType = line;
smooth = 0;
x = 30;
y = 1642;
},
{
segmentType = line;
smooth = 0;
x = 30;
y = 1567;
},
{
segmentType = line;
smooth = 0;
x = 206;
y = 1549;
}
);
}
);
lib = {
};
name = b;
unicodes = (
);
width = 1246;
};
};
};
},
{
glyphname = c;
lastChange = "2020-05-30 22:06:38 +0000";
layers = (
{
anchors = (
{
name = btm;
position = "{213, 0}";
},
{
name = top;
position = "{229, 413}";
}
);
layerId = "DAAEA780-4710-4479-B303-5C05B40621B2";
paths = (
{
closed = 1;
nodes = (
"44 200 CURVE SMOOTH",
"44 77 OFFCURVE",
"107 -10 OFFCURVE",
"224 -10 CURVE SMOOTH",
"291 -10 OFFCURVE",
"343 17 OFFCURVE",
"368 65 CURVE",
"348 83 LINE",
"324 56 OFFCURVE",
"286 35 OFFCURVE",
"240 35 CURVE SMOOTH",
"161 35 OFFCURVE",
"111 94 OFFCURVE",
"111 217 CURVE SMOOTH",
"111 329 OFFCURVE",
"153 387 OFFCURVE",
"231 387 CURVE SMOOTH",
"259 387 OFFCURVE",
"282 380 OFFCURVE",
"296 369 CURVE SMOOTH",
"306 361 OFFCURVE",
"308 352 OFFCURVE",
"311 339 CURVE SMOOTH",
"325 283 LINE",
"357 283 LINE",
"362 318 OFFCURVE",
"366 364 OFFCURVE",
"364 398 CURVE",
"336 412 OFFCURVE",
"285 423 OFFCURVE",
"241 423 CURVE SMOOTH",
"106 423 OFFCURVE",
"44 323 OFFCURVE"
);
}
);
width = 409;
},
{
anchors = (
{
name = btm;
position = "{215, 0}";
},
{
name = top;
position = "{228, 423}";
}
);
layerId = "925CB40E-795E-477B-BAE7-1EE7D58841B5";
paths = (
{
closed = 1;
nodes = (
"29 205 CURVE SMOOTH",
"29 84 OFFCURVE",
"88 -10 OFFCURVE",
"223 -10 CURVE SMOOTH",
"311 -10 OFFCURVE",
"369 29 OFFCURVE",
"387 82 CURVE",
"359 104 LINE",
"341 89 OFFCURVE",
"309 70 OFFCURVE",
"266 70 CURVE SMOOTH",
"196 70 OFFCURVE",
"170 121 OFFCURVE",
"170 223 CURVE SMOOTH",
"170 334 OFFCURVE",
"200 375 OFFCURVE",
"238 375 CURVE SMOOTH",
"253 375 OFFCURVE",
"265 369 OFFCURVE",
"273 362 CURVE SMOOTH",
"280 356 OFFCURVE",
"283 348 OFFCURVE",
"288 331 CURVE SMOOTH",
"309 258 LINE",
"373 258 LINE",
"381 303 OFFCURVE",
"385 352 OFFCURVE",
"381 401 CURVE",
"348 419 OFFCURVE",
"293 433 OFFCURVE",
"241 433 CURVE SMOOTH",
"118 433 OFFCURVE",
"29 354 OFFCURVE"
);
}
);
width = 414;
}
);
leftKerningGroup = o;
rightKerningGroup = c;
unicode = 0063;
userData = {
com.typemytype.robofont.layerData = {
background = {
anchors = (
{
name = btm;
x = 568;
y = -170;
},
{
name = top;
x = 559;
y = 1700;
}
);
components = (
);
contours = (
{
points = (
{
segmentType = curve;
smooth = 1;
x = 69;
y = 554;
},
{
smooth = 0;
x = 71;
y = 232;
},
{
smooth = 0;
x = 245;
y = -23;
},
{
segmentType = curve;
smooth = 1;
x = 578;
y = -23;
},
{
smooth = 0;
x = 719;
y = -23;
},
{
smooth = 0;
x = 873;
y = 47;
},
{
segmentType = curve;
smooth = 0;
x = 948;
y = 123;
},
{
segmentType = line;
smooth = 0;
x = 915;
y = 191;
},
{
smooth = 0;
x = 855;
y = 147;
},
{
smooth = 0;
x = 739;
y = 97;
},
{
segmentType = curve;
smooth = 1;
x = 614;
y = 97;
},
{
smooth = 0;
x = 406;
y = 97;
},
{
smooth = 0;
x = 244;
y = 262;
},
{
segmentType = curve;
smooth = 1;
x = 246;
y = 618;
},
{
smooth = 0;
x = 247;
y = 900;
},
{
smooth = 0;
x = 386;
y = 1071;
},
{
segmentType = curve;
smooth = 1;
x = 596;
y = 1071;
},
{
smooth = 0;
x = 680;
y = 1071;
},
{
smooth = 0;
x = 761;
y = 1058;
},
{
segmentType = curve;
smooth = 1;
x = 772;
y = 1009;
},
{
segmentType = line;
smooth = 0;
x = 815;
y = 814;
},
{
segmentType = line;
smooth = 0;
x = 917;
y = 814;
},
{
segmentType = line;
smooth = 0;
x = 926;
y = 1106;
},
{
smooth = 0;
x = 873;
y = 1129;
},
{
smooth = 0;
x = 758;
y = 1168;
},
{
segmentType = curve;
smooth = 1;
x = 638;
y = 1168;
},
{
smooth = 0;
x = 254;
y = 1168;
},
{
smooth = 0;
x = 67;
y = 878;
}
);
}
);
lib = {
};
name = c;
unicodes = (
);
width = 1084;
};
};
};
},
{
color = 11;
glyphname = d;
lastChange = "2020-05-30 22:11:16 +0000";
layers = (
{
anchors = (
{
name = btm;
position = "{244, 0}";
},
{
name = topright;
position = "{396, 413}";
}
);
layerId = "DAAEA780-4710-4479-B303-5C05B40621B2";
paths = (
{
closed = 1;
nodes = (
"208 -8 CURVE SMOOTH",
"279 -8 OFFCURVE",
"326 30 OFFCURVE",
"353 69 CURVE",
"343 86 LINE",
"314 58 OFFCURVE",
"277 39 OFFCURVE",
"231 39 CURVE SMOOTH",
"169 39 OFFCURVE",
"111 73 OFFCURVE",
"111 205 CURVE SMOOTH",
"111 343 OFFCURVE",
"173 385 OFFCURVE",
"247 385 CURVE SMOOTH",
"292 385 OFFCURVE",
"334 369 OFFCURVE",
"347 355 CURVE",
"365 404 LINE",
"344 413 OFFCURVE",
"302 423 OFFCURVE",
"256 423 CURVE SMOOTH",
"133 423 OFFCURVE",
"45 351 OFFCURVE",
"45 194 CURVE SMOOTH",
"45 50 OFFCURVE",
"121 -8 OFFCURVE"
);
},
{
closed = 1;
nodes = (
"387 653 LINE",
"349 652 OFFCURVE",
"296 646 OFFCURVE",
"258 633 CURVE",
"258 606 LINE",
"316 598 LINE SMOOTH",
"329 596 OFFCURVE",
"336 589 OFFCURVE",
"336 576 CURVE SMOOTH",
"336 63 LINE",
"339 28 OFFCURVE",
"354 -6 OFFCURVE",
"398 -6 CURVE SMOOTH",
"418 -6 OFFCURVE",
"446 1 OFFCURVE",
"462 7 CURVE",
"462 36 LINE",
"418 40 LINE SMOOTH",
"405 41 OFFCURVE",
"396 46 OFFCURVE",
"396 64 CURVE SMOOTH",
"396 643 LINE"
);
}
);
width = 490;
},
{
anchors = (
{
name = btm;
position = "{249, 0}";
},
{
name = topright;
position = "{430, 423}";
}
);
layerId = "925CB40E-795E-477B-BAE7-1EE7D58841B5";
paths = (
{
closed = 1;
nodes = (
"194 -8 CURVE SMOOTH",
"257 -8 OFFCURVE",
"303 24 OFFCURVE",
"331 72 CURVE",
"317 90 LINE",
"299 73 OFFCURVE",
"267 63 OFFCURVE",
"240 63 CURVE SMOOTH",
"193 63 OFFCURVE",
"168 105 OFFCURVE",
"168 215 CURVE SMOOTH",
"169 339 OFFCURVE",
"202 377 OFFCURVE",
"255 377 CURVE SMOOTH",
"276 377 OFFCURVE",
"299 371 OFFCURVE",
"310 360 CURVE",
"320 422 LINE",
"304 428 OFFCURVE",
"272 433 OFFCURVE",
"245 433 CURVE SMOOTH",
"107 433 OFFCURVE",
"30 351 OFFCURVE",
"30 200 CURVE SMOOTH",
"30 55 OFFCURVE",
"99 -8 OFFCURVE"
);
},
{
closed = 1;
nodes = (
"412 655 LINE",
"360 654 OFFCURVE",
"287 645 OFFCURVE",
"234 631 CURVE",
"234 580 LINE",
"282 573 LINE SMOOTH",
"293 571 OFFCURVE",
"299 564 OFFCURVE",
"299 552 CURVE SMOOTH",
"299 73 LINE",
"310 19 OFFCURVE",
"342 -7 OFFCURVE",
"396 -7 CURVE SMOOTH",
"428 -7 OFFCURVE",
"467 2 OFFCURVE",
"484 7 CURVE",
"484 56 LINE",
"448 61 LINE SMOOTH",
"437 62 OFFCURVE",
"430 67 OFFCURVE",
"430 83 CURVE SMOOTH",
"430 638 LINE"
);
}
);
width = 503;
}
);
leftKerningGroup = d;
rightKerningGroup = d;
unicode = 0064;
userData = {
com.typemytype.robofont.layerData = {
background = {
anchors = (
{
name = btm;
x = 587;
y = -170;
},
{
name = top;
x = 359;
y = 1700;
}
);
components = (
);
contours = (
{
points = (
{
segmentType = curve;
smooth = 1;
x = 990;
y = -19;
},
{
smooth = 0;
x = 1068;
y = -19;
},
{
smooth = 0;
x = 1132;
y = 0;
},
{
segmentType = curve;
smooth = 0;
x = 1185;
y = 13;
},
{
segmentType = line;
smooth = 0;
x = 1185;
y = 92;
},
{
segmentType = line;
smooth = 0;
x = 1060;
y = 92;
},
{
segmentType = line;
smooth = 0;
x = 1060;
y = 1648;
},
{
segmentType = line;
smooth = 0;
x = 1022;
y = 1677;
},
{
segmentType = line;
smooth = 0;
x = 1017;
y = 1677;
},
{
segmentType = line;
smooth = 0;
x = 682;
y = 1643;
},
{
segmentType = line;
smooth = 0;
x = 682;
y = 1568;
},
{
segmentType = line;
smooth = 0;
x = 895;
y = 1549;
},
{
segmentType = line;
smooth = 0;
x = 895;
y = 192;
},
{
segmentType = line;
smooth = 0;
x = 904;
y = 191;
},
{
segmentType = line;
smooth = 0;
x = 904;
y = 69;
},
{
smooth = 0;
x = 904;
y = -10;
},
{
smooth = 0;
x = 933;
y = -19;
}
);
},
{
points = (
{
segmentType = curve;
smooth = 1;
x = 542;
y = -23;
},
{
smooth = 0;
x = 742;
y = -23;
},
{
smooth = 0;
x = 880;
y = 100;
},
{
segmentType = curve;
smooth = 0;
x = 942;
y = 190;
},
{
segmentType = line;
smooth = 0;
x = 896;
y = 243;
},
{
smooth = 0;
x = 851;
y = 184;
},
{
smooth = 0;
x = 740;
y = 107;
},
{
segmentType = curve;
smooth = 1;
x = 610;
y = 107;
},
{
smooth = 0;
x = 428;
y = 107;
},
{
smooth = 0;
x = 270;
y = 238;
},
{
segmentType = curve;
smooth = 1;
x = 275;
y = 570;
},
{
smooth = 0;
x = 279;
y = 918;
},
{
smooth = 0;
x = 444;
y = 1064;
},
{
segmentType = curve;
smooth = 1;
x = 663;
y = 1064;
},
{
smooth = 0;
x = 767;
y = 1064;
},
{
smooth = 0;
x = 872;
y = 1033;
},
{
segmentType = curve;
smooth = 0;
x = 895;
y = 996;
},
{
segmentType = line;
smooth = 0;
x = 975;
y = 1119;
},
{
smooth = 0;
x = 912;
y = 1143;
},
{
smooth = 0;
x = 800;
y = 1168;
},
{
segmentType = curve;
smooth = 1;
x = 678;
y = 1168;
},
{
smooth = 0;
x = 318;
y = 1168;
},
{
smooth = 0;
x = 94;
y = 890;
},
{
segmentType = curve;
smooth = 1;
x = 94;
y = 541;
},
{
smooth = 0;
x = 94;
y = 156;
},
{
smooth = 0;
x = 310;
y = -23;
}
);
}
);
lib = {
};
name = d;
unicodes = (
);
width = 1308;
};
};
};
},
{
glyphname = e;
lastChange = "2020-05-30 22:07:33 +0000";
layers = (
{
anchors = (
{
name = btm;
position = "{220, 0}";
},
{
name = top;
position = "{225, 413}";
}
);
layerId = "DAAEA780-4710-4479-B303-5C05B40621B2";
paths = (
{
closed = 1;
nodes = (
"44 200 CURVE SMOOTH",
"44 80 OFFCURVE",
"103 -10 OFFCURVE",
"224 -10 CURVE SMOOTH",
"306 -10 OFFCURVE",
"363 31 OFFCURVE",
"381 88 CURVE",
"356 101 LINE",
"333 61 OFFCURVE",
"289 35 OFFCURVE",
"239 35 CURVE SMOOTH",
"171 35 OFFCURVE",
"109 77 OFFCURVE",
"109 216 CURVE SMOOTH",
"109 333 OFFCURVE",
"153 386 OFFCURVE",
"223 386 CURVE SMOOTH",
"283 386 OFFCURVE",
"319 345 OFFCURVE",
"319 284 CURVE SMOOTH",
"319 277 OFFCURVE",
"318 273 OFFCURVE",
"317 266 CURVE",
"90 266 LINE",
"90 231 LINE",
"379 231 LINE",
"381 246 OFFCURVE",
"382 267 OFFCURVE",
"382 279 CURVE SMOOTH",
"382 377 OFFCURVE",
"316 423 OFFCURVE",
"235 423 CURVE SMOOTH",
"121 423 OFFCURVE",
"44 338 OFFCURVE"
);
}
);
width = 428;
},
{
anchors = (
{
name = btm;
position = "{220, 0}";
},
{
name = top;
position = "{224, 423}";
}
);
layerId = "925CB40E-795E-477B-BAE7-1EE7D58841B5";
paths = (
{
closed = 1;
nodes = (
"30 208 CURVE SMOOTH",
"30 74 OFFCURVE",
"91 -10 OFFCURVE",
"225 -10 CURVE SMOOTH",
"313 -10 OFFCURVE",
"379 24 OFFCURVE",
"398 90 CURVE",
"370 111 LINE",
"345 83 OFFCURVE",
"305 70 OFFCURVE",
"265 70 CURVE SMOOTH",
"188 70 OFFCURVE",
"164 119 OFFCURVE",
"164 231 CURVE SMOOTH",
"164 345 OFFCURVE",
"188 380 OFFCURVE",
"227 380 CURVE SMOOTH",
"265 380 OFFCURVE",
"282 344 OFFCURVE",
"282 294 CURVE SMOOTH",
"282 286 OFFCURVE",
"282 281 OFFCURVE",
"281 275 CURVE",
"120 275 LINE",
"120 227 LINE",
"395 227 LINE",
"399 245 OFFCURVE",
"401 268 OFFCURVE",
"401 288 CURVE SMOOTH",
"401 372 OFFCURVE",
"352 433 OFFCURVE",
"236 433 CURVE SMOOTH",
"104 433 OFFCURVE",
"30 355 OFFCURVE"
);
}
);
width = 431;
}
);
leftKerningGroup = o;
rightKerningGroup = e;
unicode = 0065;
userData = {
com.typemytype.robofont.layerData = {
background = {
anchors = (
{
name = btm;
x = 608;
y = -170;
},
{
name = top;
x = 593;
y = 1700;
}
);
components = (
);
contours = (
{
points = (
{
smooth = 0;
x = 95;
y = 224;
},
{
smooth = 0;
x = 265;
y = -23;
},
{
segmentType = curve;
smooth = 1;
x = 589;
y = -23;
},
{
smooth = 0;
x = 746;
y = -23;
},
{
smooth = 0;
x = 912;
y = 43;
},
{
segmentType = curve;
smooth = 0;
x = 990;
y = 123;
},
{
segmentType = line;
smooth = 0;
x = 957;
y = 198;
},
{
smooth = 0;
x = 893;
y = 144;
},
{
smooth = 0;
x = 759;
y = 94;
},
{
segmentType = curve;
smooth = 1;
x = 642;
y = 94;
},
{
smooth = 0;
x = 445;
y = 94;
},
{
smooth = 0;
x = 282;
y = 240;
},
{
segmentType = curve;
smooth = 1;
x = 273;
y = 557;
},
{
smooth = 0;
x = 261;
y = 936;
},
{
smooth = 0;
x = 394;
y = 1062;
},
{
segmentType = curve;
smooth = 1;
x = 578;
y = 1062;
},
{
smooth = 0;
x = 760;
y = 1062;
},
{
smooth = 0;
x = 833;
y = 936;
},
{
segmentType = curve;
smooth = 1;
x = 834;
y = 769;
},
{
smooth = 0;
x = 834;
y = 739;
},
{
smooth = 0;
x = 832;
y = 707;
},
{
segmentType = curve;
smooth = 0;
x = 829;
y = 678;
},
{
segmentType = line;
smooth = 0;
x = 210;
y = 678;
},
{
segmentType = line;
smooth = 0;
x = 192;
y = 582;
},
{
segmentType = line;
smooth = 0;
x = 1001;
y = 582;
},
{
smooth = 0;
x = 1011;
y = 627;
},
{
smooth = 0;
x = 1013;
y = 684;
},
{
segmentType = curve;
smooth = 0;
x = 1012;
y = 762;
},
{
smooth = 0;
x = 1003;
y = 1027;
},
{
smooth = 0;
x = 861;
y = 1168;
},
{
segmentType = curve;
smooth = 1;
x = 620;
y = 1168;
},
{
smooth = 0;
x = 319;
y = 1168;
},
{
smooth = 0;
x = 95;
y = 925;
},
{
segmentType = curve;
smooth = 1;
x = 95;
y = 574;
}
);
}
);
lib = {
};
name = e;
unicodes = (
);
width = 1137;
};
};
};
},
{
glyphname = f;
lastChange = "2020-05-30 22:10:58 +0000";
layers = (
{
anchors = (
{
name = btm;
position = "{144, 0}";
}
);
layerId = "DAAEA780-4710-4479-B303-5C05B40621B2";
paths = (
{
closed = 1;
nodes = (
"191 653 OFFCURVE",
"106 577 OFFCURVE",
"106 463 CURVE SMOOTH",
"106 413 LINE",
"31 403 LINE",
"31 374 LINE",
"106 366 LINE",
"106 61 LINE SMOOTH",
"106 48 OFFCURVE",
"99 41 OFFCURVE",
"85 39 CURVE SMOOTH",
"39 32 LINE",
"39 0 LINE",
"265 0 LINE",
"265 32 LINE",
"187 39 LINE SMOOTH",
"173 40 OFFCURVE",
"166 48 OFFCURVE",
"166 61 CURVE SMOOTH",
"166 369 LINE",
"292 369 LINE",
"292 413 LINE",
"166 413 LINE",
"166 490 LINE SMOOTH",
"166 566 OFFCURVE",
"193 593 OFFCURVE",
"263 593 CURVE SMOOTH",
"287 593 OFFCURVE",
"320 591 OFFCURVE",
"348 585 CURVE",
"356 629 LINE",
"328 644 OFFCURVE",
"299 653 OFFCURVE",
"269 653 CURVE SMOOTH"
);
}
);
width = 316;
},
{
anchors = (
{
name = btm;
position = "{137, -62}";
},
{
name = top;
position = "{147, 750}";
}
);
associatedMasterId = "DAAEA780-4710-4479-B303-5C05B40621B2";
layerId = "FB11B1FF-0DE6-454F-9222-3B9E0EE14D80";
name = "Light Sep 18 15, 18:52";
paths = (
{
closed = 1;
nodes = (
"184 653 OFFCURVE",
"99 577 OFFCURVE",
"99 463 CURVE SMOOTH",
"99 413 LINE",
"23 403 LINE",
"23 374 LINE",
"99 366 LINE",
"99 61 LINE SMOOTH",
"99 48 OFFCURVE",
"92 41 OFFCURVE",
"78 39 CURVE SMOOTH",
"32 32 LINE",
"32 0 LINE",
"251 0 LINE",
"251 32 LINE",
"180 39 LINE SMOOTH",
"166 40 OFFCURVE",
"159 48 OFFCURVE",
"159 61 CURVE SMOOTH",
"159 369 LINE",
"281 369 LINE",
"281 413 LINE",
"159 413 LINE",
"159 490 LINE SMOOTH",
"159 566 OFFCURVE",
"186 594 OFFCURVE",
"256 594 CURVE SMOOTH",
"281 594 OFFCURVE",
"315 591 OFFCURVE",
"348 585 CURVE",
"353 629 LINE",
"323 644 OFFCURVE",
"292 653 OFFCURVE",
"262 653 CURVE SMOOTH"
);
}
);
width = 309;
},
{
anchors = (
{
name = btm;
position = "{140, 0}";
}
);
background = {
paths = (
{
closed = 1;
nodes = (
"187 654 OFFCURVE",
"88 533 OFFCURVE",
"88 429 CURVE SMOOTH",
"88 414 LINE",
"24 402 LINE",
"24 352 LINE",
"85 341 LINE",
"85 79 LINE SMOOTH",
"85 67 OFFCURVE",
"79 61 OFFCURVE",
"68 59 CURVE SMOOTH",
"29 52 LINE",
"29 0 LINE",
"309 0 LINE",
"309 52 LINE",
"235 60 LINE SMOOTH",
"223 61 OFFCURVE",
"217 68 OFFCURVE",
"217 79 CURVE SMOOTH",
"217 343 LINE",
"332 343 LINE",
"332 413 LINE",
"216 413 LINE",
"216 473 LINE SMOOTH",
"216 539 OFFCURVE",
"243 550 OFFCURVE",
"288 551 CURVE SMOOTH",
"305 552 OFFCURVE",
"339 547 OFFCURVE",
"368 541 CURVE",
"394 612 LINE",
"363 635 OFFCURVE",
"324 654 OFFCURVE",
"284 654 CURVE SMOOTH"
);
}
);
};
layerId = "925CB40E-795E-477B-BAE7-1EE7D58841B5";
paths = (
{
closed = 1;
nodes = (
"187 654 OFFCURVE",
"88 531 OFFCURVE",
"88 437 CURVE SMOOTH",
"88 424 LINE",
"24 412 LINE",
"24 362 LINE",
"85 351 LINE",
"85 79 LINE SMOOTH",
"85 67 OFFCURVE",
"79 61 OFFCURVE",
"68 59 CURVE SMOOTH",
"29 52 LINE",
"29 0 LINE",
"309 0 LINE",
"309 52 LINE",
"235 60 LINE SMOOTH",
"223 61 OFFCURVE",
"217 68 OFFCURVE",
"217 79 CURVE SMOOTH",
"217 353 LINE",
"332 353 LINE",
"332 423 LINE",
"216 423 LINE",
"216 473 LINE SMOOTH",
"216 539 OFFCURVE",
"243 550 OFFCURVE",
"288 551 CURVE SMOOTH",
"305 552 OFFCURVE",
"339 547 OFFCURVE",
"368 541 CURVE",
"394 612 LINE",
"363 635 OFFCURVE",
"324 654 OFFCURVE",
"284 654 CURVE SMOOTH"
);
}
);
width = 343;
}
);
leftKerningGroup = f;
rightKerningGroup = f;
unicode = 0066;
userData = {
com.typemytype.robofont.layerData = {
"Light Sep 18 15, 18:52" = {
anchors = (
{
name = btm;
x = 377;
y = -170;
},
{
name = top;
x = 403;
y = 2063;
}
);
components = (
);
contours = (
{
points = (
{
smooth = 0;
x = 505;
y = 1797;
},
{
smooth = 0;
x = 272;
y = 1586;
},
{
segmentType = curve;
smooth = 1;
x = 272;
y = 1273;
},
{
segmentType = line;
smooth = 0;
x = 272;
y = 1135;
},
{
segmentType = line;
smooth = 0;
x = 64;
y = 1109;
},
{
segmentType = line;
smooth = 0;
x = 64;
y = 1028;
},
{
segmentType = line;
smooth = 0;
x = 272;
y = 1006;
},
{
segmentType = line;
smooth = 1;
x = 272;
y = 169;
},
{
smooth = 0;
x = 272;
y = 132;
},
{
smooth = 0;
x = 252;
y = 113;
},
{
segmentType = curve;
smooth = 1;
x = 215;
y = 107;
},
{
segmentType = line;
smooth = 0;
x = 87;
y = 88;
},
{
segmentType = line;
smooth = 0;
x = 87;
y = 0;
},
{
segmentType = line;
smooth = 0;
x = 690;
y = 0;
},
{
segmentType = line;
smooth = 0;
x = 690;
y = 88;
},
{
segmentType = line;
smooth = 1;
x = 495;
y = 107;
},
{
smooth = 0;
x = 457;
y = 111;
},
{
smooth = 0;
x = 437;
y = 131;
},
{
segmentType = curve;
smooth = 1;
x = 437;
y = 169;
},
{
segmentType = line;
smooth = 0;
x = 437;
y = 1014;
},
{
segmentType = line;
smooth = 0;
x = 774;
y = 1014;
},
{
segmentType = line;
smooth = 0;
x = 774;
y = 1135;
},
{
segmentType = line;
smooth = 0;
x = 437;
y = 1135;
},
{
segmentType = line;
smooth = 1;
x = 437;
y = 1348;
},
{
smooth = 0;
x = 437;
y = 1556;
},
{
smooth = 0;
x = 512;
y = 1634;
},
{
segmentType = curve;
smooth = 1;
x = 703;
y = 1634;
},
{
smooth = 0;
x = 773;
y = 1634;
},
{
smooth = 0;
x = 866;
y = 1624;
},
{
segmentType = curve;
smooth = 0;
x = 956;
y = 1610;
},
{
segmentType = line;
smooth = 0;
x = 970;
y = 1730;
},
{
smooth = 0;
x = 888;
y = 1770;
},
{
smooth = 0;
x = 804;
y = 1797;
},
{
segmentType = curve;
smooth = 1;
x = 721;
y = 1797;
}
);
}
);
lib = {
};
name = f;
unicodes = (
);
width = 850;
};
background = {
anchors = (
{
name = btm;
x = 377;
y = -170;
},
{
name = top;
x = 403;
y = 2063;
}
);
components = (
);
contours = (
{
points = (
{
segmentType = line;
smooth = 0;
x = 91;
y = 0;
},
{
segmentType = line;
smooth = 0;
x = 670;
y = 0;
},
{
segmentType = line;
smooth = 0;
x = 670;
y = 88;
},
{
segmentType = line;
smooth = 0;
x = 403;
y = 106;
},
{
segmentType = line;
smooth = 0;
x = 437;
y = 63;
},
{
segmentType = line;
smooth = 0;
x = 437;
y = 1014;
},
{
segmentType = line;
smooth = 0;
x = 734;
y = 1014;
},
{
segmentType = line;
smooth = 0;
x = 734;
y = 1135;
},
{
segmentType = line;
smooth = 0;
x = 437;
y = 1135;
},
{
segmentType = line;
smooth = 0;
x = 437;
y = 1289;
},
{
smooth = 0;
x = 437;
y = 1477;
},
{
smooth = 0;
x = 502;
y = 1540;
},
{
segmentType = curve;
smooth = 1;
x = 643;
y = 1540;
},
{
smooth = 0;
x = 740;
y = 1540;
},
{
smooth = 0;
x = 806;
y = 1517;
},
{
segmentType = curve;
smooth = 0;
x = 825;
y = 1503;
},
{
segmentType = line;
smooth = 0;
x = 825;
y = 1672;
},
{
smooth = 0;
x = 801;
y = 1680;
},
{
smooth = 0;
x = 773;
y = 1688;
},
{
segmentType = curve;
smooth = 1;
x = 711;
y = 1688;
},
{
smooth = 0;
x = 489;
y = 1688;
},
{
smooth = 0;
x = 271;
y = 1487;
},
{
segmentType = curve;
smooth = 1;
x = 271;
y = 1234;
},
{
segmentType = line;
smooth = 0;
x = 271;
y = 1135;
},
{
segmentType = line;
smooth = 0;
x = 63;
y = 1095;
},
{
segmentType = line;
smooth = 0;
x = 63;
y = 1014;
},
{
segmentType = line;
smooth = 0;
x = 271;
y = 1014;
},
{
segmentType = line;
smooth = 0;
x = 271;
y = 64;
},
{
segmentType = line;
smooth = 0;
x = 301;
y = 107;
},
{
segmentType = line;
smooth = 0;
x = 91;
y = 88;
}
);
}
);
lib = {
};
name = f;
unicodes = (
);
width = 828;
};
};
};
},
{
glyphname = g;
lastChange = "2020-05-30 22:10:50 +0000";
layers = (
{
anchors = (
{
name = top;
position = "{219, 413}";
}
);
layerId = "DAAEA780-4710-4479-B303-5C05B40621B2";
paths = (
{
closed = 1;
nodes = (
"427 -50 CURVE SMOOTH",
"427 12 OFFCURVE",
"386 50 OFFCURVE",
"302 50 CURVE SMOOTH",
"207 50 LINE SMOOTH",
"149 50 OFFCURVE",
"125 62 OFFCURVE",
"125 93 CURVE SMOOTH",
"125 119 OFFCURVE",
"141 134 OFFCURVE",
"162 142 CURVE",
"149 160 LINE",
"112 145 OFFCURVE",
"71 122 OFFCURVE",
"71 71 CURVE SMOOTH",
"71 17 OFFCURVE",
"116 -2 OFFCURVE",
"187 -2 CURVE SMOOTH",
"287 -2 LINE SMOOTH",
"354 -2 OFFCURVE",
"370 -26 OFFCURVE",
"370 -61 CURVE SMOOTH",
"370 -131 OFFCURVE",
"307 -163 OFFCURVE",
"218 -163 CURVE SMOOTH",
"124 -163 OFFCURVE",
"97 -126 OFFCURVE",
"97 -76 CURVE SMOOTH",
"97 -30 OFFCURVE",
"121 -4 OFFCURVE",
"148 17 CURVE",
"130 26 LINE",
"80 7 OFFCURVE",
"37 -26 OFFCURVE",
"37 -85 CURVE SMOOTH",
"37 -156 OFFCURVE",
"96 -201 OFFCURVE",
"206 -201 CURVE SMOOTH",
"333 -201 OFFCURVE",
"427 -142 OFFCURVE"
);
},
{
closed = 1;
nodes = (
"375 283 CURVE SMOOTH",
"375 370 OFFCURVE",
"312 423 OFFCURVE",
"220 423 CURVE SMOOTH",
"135 423 OFFCURVE",
"52 377 OFFCURVE",
"52 272 CURVE SMOOTH",
"52 176 OFFCURVE",
"122 131 OFFCURVE",
"207 131 CURVE SMOOTH",
"304 131 OFFCURVE",
"375 190 OFFCURVE"
);
},
{
closed = 1;
nodes = (
"115 281 CURVE SMOOTH",
"115 368 OFFCURVE",
"159 386 OFFCURVE",
"210 386 CURVE SMOOTH",
"280 386 OFFCURVE",
"312 352 OFFCURVE",
"312 275 CURVE SMOOTH",
"312 197 OFFCURVE",
"278 168 OFFCURVE",
"217 168 CURVE SMOOTH",
"145 168 OFFCURVE",
"115 209 OFFCURVE"
);
},
{
closed = 1;
nodes = (
"439 367 LINE",
"439 416 LINE",
"425 419 OFFCURVE",
"409 423 OFFCURVE",
"397 423 CURVE SMOOTH",
"369 423 OFFCURVE",
"345 406 OFFCURVE",
"313 380 CURVE",
"329 367 LINE"
);
}
);
width = 458;
},
{
anchors = (
{
name = top;
position = "{223, 423}";
}
);
layerId = "925CB40E-795E-477B-BAE7-1EE7D58841B5";
paths = (
{
closed = 1;
nodes = (
"459 -31 CURVE SMOOTH",
"459 47 OFFCURVE",
"404 84 OFFCURVE",
"303 84 CURVE SMOOTH",
"229 84 LINE SMOOTH",
"172 84 OFFCURVE",
"150 92 OFFCURVE",
"150 118 CURVE SMOOTH",
"150 132 OFFCURVE",
"156 148 OFFCURVE",
"178 163 CURVE",
"140 168 LINE",
"92 155 OFFCURVE",
"59 128 OFFCURVE",
"59 81 CURVE SMOOTH",
"59 34 OFFCURVE",
"92 -1 OFFCURVE",
"185 -1 CURVE SMOOTH",
"260 -1 LINE SMOOTH",
"307 -1 OFFCURVE",
"324 -17 OFFCURVE",
"324 -56 CURVE SMOOTH",
"324 -110 OFFCURVE",
"290 -139 OFFCURVE",
"231 -139 CURVE SMOOTH",
"170 -139 OFFCURVE",
"148 -106 OFFCURVE",
"148 -61 CURVE SMOOTH",
"148 -21 OFFCURVE",
"165 6 OFFCURVE",
"184 19 CURVE",
"144 20 LINE",
"71 6 OFFCURVE",
"23 -22 OFFCURVE",
"23 -84 CURVE SMOOTH",
"23 -149 OFFCURVE",
"77 -198 OFFCURVE",
"209 -198 CURVE SMOOTH",
"362 -198 OFFCURVE",
"459 -133 OFFCURVE"
);
},
{
closed = 1;
nodes = (
"406 294 CURVE SMOOTH",
"406 388 OFFCURVE",
"343 433 OFFCURVE",
"230 433 CURVE SMOOTH",
"103 433 OFFCURVE",
"36 377 OFFCURVE",
"36 283 CURVE SMOOTH",
"36 207 OFFCURVE",
"80 145 OFFCURVE",
"216 145 CURVE SMOOTH",
"351 145 OFFCURVE",
"406 206 OFFCURVE"
);
},
{
closed = 1;
nodes = (
"167 290 CURVE SMOOTH",
"167 355 OFFCURVE",
"186 383 OFFCURVE",
"224 383 CURVE SMOOTH",
"262 383 OFFCURVE",
"278 357 OFFCURVE",
"278 290 CURVE SMOOTH",
"278 229 OFFCURVE",
"264 197 OFFCURVE",
"224 197 CURVE SMOOTH",
"186 197 OFFCURVE",
"167 224 OFFCURVE"
);
},
{
closed = 1;
nodes = (
"475 337 LINE",
"475 426 LINE",
"465 429 OFFCURVE",
"450 433 OFFCURVE",
"437 433 CURVE SMOOTH",
"404 433 OFFCURVE",
"369 406 OFFCURVE",
"351 362 CURVE",
"383 337 LINE"
);
}
);
width = 485;
}
);
leftKerningGroup = g;
rightKerningGroup = g;
unicode = 0067;
userData = {
com.typemytype.robofont.layerData = {
background = {
anchors = (
{
name = top;
x = 596;
y = 1700;
}
);
components = (
);
contours = (
{
points = (
{
segmentType = curve;
smooth = 1;
x = 95;
y = -246;
},
{
smooth = 0;
x = 95;
y = -425;
},
{
smooth = 0;
x = 221;
y = -552;
},
{
segmentType = curve;
smooth = 1;
x = 578;
y = -552;
},
{
segmentType = line;
smooth = 0;
x = 579;
y = -552;
},
{
smooth = 0;
x = 914;
y = -552;
},
{
smooth = 0;
x = 1177;
y = -360;
},
{
segmentType = curve;
smooth = 1;
x = 1177;
y = -137;
},
{
smooth = 0;
x = 1177;
y = 33;
},
{
smooth = 0;
x = 1066;
y = 143;
},
{
segmentType = curve;
smooth = 1;
x = 804;
y = 143;
},
{
segmentType = line;
smooth = 0;
x = 564;
y = 143;
},
{
smooth = 0;
x = 399;
y = 143;
},
{
smooth = 0;
x = 338;
y = 176;
},
{
segmentType = curve;
smooth = 1;
x = 338;
y = 283;
},
{
smooth = 0;
x = 338;
y = 343;
},
{
smooth = 0;
x = 383;
y = 409;
},
{
segmentType = curve;
smooth = 0;
x = 449;
y = 448;
},
{
segmentType = line;
smooth = 0;
x = 364;
y = 466;
},
{
smooth = 0;
x = 270;
y = 426;
},
{
smooth = 0;
x = 188;
y = 326;
},
{
segmentType = curve;
smooth = 1;
x = 188;
y = 211;
},
{
smooth = 0;
x = 188;
y = 53;
},
{
smooth = 0;
x = 317;
y = -1;
},
{
segmentType = curve;
smooth = 1;
x = 509;
y = -1;
},
{
segmentType = line;
smooth = 0;
x = 763;
y = -1;
},
{
smooth = 0;
x = 986;
y = -1;
},
{
smooth = 0;
x = 1021;
y = -70;
},
{
segmentType = curve;
smooth = 1;
x = 1021;
y = -184;
},
{
smooth = 0;
x = 1021;
y = -350;
},
{
smooth = 0;
x = 804;
y = -448;
},
{
segmentType = curve;
smooth = 1;
x = 589;
y = -448;
},
{
segmentType = line;
smooth = 0;
x = 587;
y = -448;
},
{
smooth = 0;
x = 335;
y = -448;
},
{
smooth = 0;
x = 261;
y = -361;
},
{
segmentType = curve;
smooth = 1;
x = 261;
y = -213;
},
{
smooth = 0;
x = 261;
y = -95;
},
{
smooth = 0;
x = 327;
y = -10;
},
{
segmentType = curve;
smooth = 0;
x = 400;
y = 47;
},
{
segmentType = line;
smooth = 0;
x = 331;
y = 63;
},
{
smooth = 0;
x = 235;
y = 28;
},
{
smooth = 0;
x = 95;
y = -89;
}
);
},
{
points = (
{
segmentType = curve;
smooth = 1;
x = 852;
y = 795;
},
{
smooth = 0;
x = 852;
y = 609;
},
{
smooth = 0;
x = 770;
y = 508;
},
{
segmentType = curve;
smooth = 1;
x = 592;
y = 508;
},
{
segmentType = line;
smooth = 0;
x = 591;
y = 508;
},
{
smooth = 0;
x = 394;
y = 508;
},
{
smooth = 0;
x = 311;
y = 636;
},
{
segmentType = curve;
smooth = 1;
x = 311;
y = 798;
},
{
smooth = 0;
x = 311;
y = 1005;
},
{
smooth = 0;
x = 432;
y = 1067;
},
{
segmentType = curve;
smooth = 1;
x = 582;
y = 1067;
},
{
segmentType = line;
smooth = 0;
x = 583;
y = 1067;
},
{
smooth = 0;
x = 755;
y = 1067;
},
{
smooth = 0;
x = 852;
y = 985;
}
);
},
{
points = (
{
segmentType = curve;
smooth = 1;
x = 1026;
y = 817;
},
{
smooth = 0;
x = 1026;
y = 1059;
},
{
smooth = 0;
x = 833;
y = 1168;
},
{
segmentType = curve;
smooth = 1;
x = 594;
y = 1168;
},
{
segmentType = line;
smooth = 0;
x = 593;
y = 1168;
},
{
smooth = 0;
x = 369;
y = 1168;
},
{
smooth = 0;
x = 138;
y = 1027;
},
{
segmentType = curve;
smooth = 1;
x = 138;
y = 777;
},
{
smooth = 0;
x = 138;
y = 545;
},
{
smooth = 0;
x = 325;
y = 407;
},
{
segmentType = curve;
smooth = 1;
x = 571;
y = 407;
},
{
segmentType = line;
smooth = 0;
x = 572;
y = 407;
},
{
smooth = 0;
x = 819;
y = 407;
},
{
smooth = 0;
x = 1026;
y = 569;
}
);
},
{
points = (
{
segmentType = line;
smooth = 0;
x = 1200;
y = 1016;
},
{
segmentType = line;
smooth = 0;
x = 1200;
y = 1168;
},
{
segmentType = line;
smooth = 0;
x = 1133;
y = 1168;
},
{
smooth = 0;
x = 1007;
y = 1168;
},
{
smooth = 0;
x = 904;
y = 1092;
},
{
segmentType = curve;
smooth = 0;
x = 892;
y = 1075;
},
{
segmentType = line;
smooth = 0;
x = 898;
y = 1016;
}
);
}
);
lib = {
};
name = g;
unicodes = (
);
width = 1221;
};
};
};
},
{
color = 11;
glyphname = h;
lastChange = "2020-05-30 22:10:10 +0000";
layers = (
{
anchors = (
{
name = btm;
position = "{262, 0}";
},
{
name = top;
position = "{142, 642}";
}
);
layerId = "DAAEA780-4710-4479-B303-5C05B40621B2";
paths = (
{
closed = 1;
nodes = (
"220 0 LINE",
"220 32 LINE",
"176 39 LINE SMOOTH",
"162 41 OFFCURVE",
"155 48 OFFCURVE",
"155 62 CURVE SMOOTH",
"155 643 LINE",
"145 653 LINE",
"108 652 OFFCURVE",
"56 646 OFFCURVE",
"19 633 CURVE",
"19 606 LINE",
"74 598 LINE SMOOTH",
"87 596 OFFCURVE",
"95 589 OFFCURVE",
"95 576 CURVE SMOOTH",
"95 61 LINE SMOOTH",
"95 48 OFFCURVE",
"88 41 OFFCURVE",
"74 39 CURVE SMOOTH",
"28 32 LINE",
"28 0 LINE"
);
},
{
closed = 1;
nodes = (
"492 0 LINE",
"492 32 LINE",
"446 39 LINE SMOOTH",
"433 41 OFFCURVE",
"425 48 OFFCURVE",
"425 62 CURVE SMOOTH",
"425 263 LINE SMOOTH",
"425 364 OFFCURVE",
"397 423 OFFCURVE",
"301 423 CURVE SMOOTH",
"243 423 OFFCURVE",
"182 405 OFFCURVE",
"137 345 CURVE",
"134 315 LINE",
"173 357 OFFCURVE",
"225 377 OFFCURVE",
"279 377 CURVE SMOOTH",
"349 377 OFFCURVE",
"365 333 OFFCURVE",
"365 249 CURVE SMOOTH",
"365 62 LINE SMOOTH",
"365 47 OFFCURVE",
"356 41 OFFCURVE",
"344 39 CURVE SMOOTH",
"300 32 LINE",
"300 0 LINE"
);
}
);
width = 514;
},
{
anchors = (
{
name = btm;
position = "{271, 0}";
},
{
name = top;
position = "{167, 643}";
}
);
layerId = "925CB40E-795E-477B-BAE7-1EE7D58841B5";
paths = (
{
closed = 1;
nodes = (
"247 0 LINE",
"247 52 LINE",
"222 59 LINE SMOOTH",
"211 63 OFFCURVE",
"206 68 OFFCURVE",
"206 80 CURVE SMOOTH",
"206 637 LINE",
"188 655 LINE",
"136 655 OFFCURVE",
"63 649 OFFCURVE",
"11 635 CURVE",
"11 584 LINE",
"58 576 LINE SMOOTH",
"69 575 OFFCURVE",
"75 567 OFFCURVE",
"75 556 CURVE SMOOTH",
"75 80 LINE SMOOTH",
"75 68 OFFCURVE",
"68 61 OFFCURVE",
"57 59 CURVE SMOOTH",
"18 52 LINE",
"18 0 LINE"
);
},
{
closed = 1;
nodes = (
"518 0 LINE",
"518 52 LINE",
"479 59 LINE SMOOTH",
"468 61 OFFCURVE",
"462 68 OFFCURVE",
"462 80 CURVE SMOOTH",
"462 276 LINE SMOOTH",
"462 376 OFFCURVE",
"433 433 OFFCURVE",
"335 433 CURVE SMOOTH",
"271 433 OFFCURVE",
"219 409 OFFCURVE",
"183 358 CURVE",
"183 321 LINE",
"208 344 OFFCURVE",
"240 355 OFFCURVE",
"268 355 CURVE SMOOTH",
"312 355 OFFCURVE",
"331 330 OFFCURVE",
"331 262 CURVE SMOOTH",
"331 80 LINE SMOOTH",
"331 68 OFFCURVE",
"325 63 OFFCURVE",
"314 59 CURVE SMOOTH",
"290 52 LINE",
"290 0 LINE"
);
}
);
width = 533;
}
);
leftKerningGroup = h;
rightKerningGroup = n;
unicode = 0068;
userData = {
com.typemytype.robofont.layerData = {
background = {
anchors = (
{
name = btm;
x = 771;
y = -170;
},
{
name = top;
x = 845;
y = 1700;
}
);
components = (
);
contours = (
{
points = (
{
segmentType = line;
smooth = 0;
x = 167;
y = 0;
},
{
segmentType = line;
smooth = 0;
x = 612;
y = 0;
},
{
segmentType = line;
smooth = 0;
x = 612;
y = 88;
},
{
segmentType = line;
smooth = 0;
x = 433;
y = 107;
},
{
segmentType = line;
smooth = 0;
x = 460;
y = 67;
},
{
segmentType = line;
smooth = 0;
x = 460;
y = 901;
},
{
smooth = 0;
x = 546;
y = 966;
},
{
smooth = 0;
x = 686;
y = 1036;
},
{
segmentType = curve;
smooth = 1;
x = 802;
y = 1036;
},
{
smooth = 0;
x = 1004;
y = 1036;
},
{
smooth = 0;
x = 1038;
y = 923;
},
{
segmentType = curve;
smooth = 1;
x = 1038;
y = 684;
},
{
segmentType = line;
smooth = 0;
x = 1038;
y = 65;
},
{
segmentType = line;
smooth = 0;
x = 1076;
y = 108;
},
{
segmentType = line;
smooth = 0;
x = 894;
y = 88;
},
{
segmentType = line;
smooth = 0;
x = 894;
y = 0;
},
{
segmentType = line;
smooth = 0;
x = 1353;
y = 0;
},
{
segmentType = line;
smooth = 0;
x = 1353;
y = 88;
},
{
segmentType = line;
smooth = 0;
x = 1165;
y = 108;
},
{
segmentType = line;
smooth = 0;
x = 1203;
y = 65;
},
{
segmentType = line;
smooth = 0;
x = 1203;
y = 683;
},
{
smooth = 0;
x = 1203;
y = 1020;
},
{
smooth = 0;
x = 1133;
y = 1164;
},
{
segmentType = curve;
smooth = 1;
x = 874;
y = 1164;
},
{
smooth = 0;
x = 703;
y = 1164;
},
{
smooth = 0;
x = 524;
y = 1054;
},
{
segmentType = curve;
smooth = 0;
x = 455;
y = 993;
},
{
segmentType = line;
smooth = 0;
x = 460;
y = 1164;
},
{
segmentType = line;
smooth = 0;
x = 460;
y = 1650;
},
{
segmentType = line;
smooth = 0;
x = 421;
y = 1677;
},
{
segmentType = line;
smooth = 0;
x = 416;
y = 1677;
},
{
segmentType = line;
smooth = 0;
x = 114;
y = 1642;
},
{
segmentType = line;
smooth = 0;
x = 114;
y = 1567;
},
{
segmentType = line;
smooth = 0;
x = 295;
y = 1549;
},
{
segmentType = line;
smooth = 0;
x = 295;
y = 67;
},
{
segmentType = line;
smooth = 0;
x = 334;
y = 108;
},
{
segmentType = line;
smooth = 0;
x = 167;
y = 88;
}
);
}
);
lib = {
};
name = h;
unicodes = (
);
width = 1374;
};
};
};
},
{
glyphname = i;
lastChange = "2020-05-31 15:45:33 +0000";
layers = (
{
anchors = (
{
name = btm;
position = "{135, 0}";
},
{
name = top;
position = "{118, 413}";
}
);
layerId = "DAAEA780-4710-4479-B303-5C05B40621B2";
paths = (
{
closed = 1;
nodes = (
"165 412 LINE",
"156 422 LINE",
"117 421 OFFCURVE",
"71 416 OFFCURVE",
"32 403 CURVE",
"32 373 LINE",
"85 367 LINE SMOOTH",
"98 366 OFFCURVE",
"105 357 OFFCURVE",
"105 344 CURVE SMOOTH",
"105 62 LINE SMOOTH",
"105 49 OFFCURVE",
"98 41 OFFCURVE",
"84 39 CURVE SMOOTH",
"38 32 LINE",
"38 0 LINE",
"232 0 LINE",
"232 32 LINE",
"186 39 LINE SMOOTH",
"172 41 OFFCURVE",
"165 49 OFFCURVE",
"165 63 CURVE SMOOTH"
);
},
{
closed = 1;
nodes = (
"173 534 CURVE SMOOTH",
"173 562 OFFCURVE",
"153 582 OFFCURVE",
"125 582 CURVE SMOOTH",
"97 582 OFFCURVE",
"77 562 OFFCURVE",
"77 534 CURVE SMOOTH",
"77 506 OFFCURVE",
"97 486 OFFCURVE",
"125 486 CURVE SMOOTH",
"153 486 OFFCURVE",
"173 506 OFFCURVE"
);
}
);
width = 260;
},
{
anchors = (
{
name = btm;
position = "{151, 0}";
},
{
name = top;
position = "{136, 423}";
}
);
layerId = "925CB40E-795E-477B-BAE7-1EE7D58841B5";
paths = (
{
closed = 1;
nodes = (
"217 416 LINE",
"199 432 LINE",
"147 432 OFFCURVE",
"77 425 OFFCURVE",
"25 411 CURVE",
"25 357 LINE",
"69 348 LINE SMOOTH",
"80 346 OFFCURVE",
"85 338 OFFCURVE",
"85 327 CURVE SMOOTH",
"85 80 LINE SMOOTH",
"85 68 OFFCURVE",
"79 61 OFFCURVE",
"68 59 CURVE SMOOTH",
"29 52 LINE",
"29 0 LINE",
"273 0 LINE",
"273 52 LINE",
"234 59 LINE SMOOTH",
"223 61 OFFCURVE",
"217 68 OFFCURVE",
"217 80 CURVE SMOOTH"
);
},
{
closed = 1;
nodes = (
"216 547 CURVE SMOOTH",
"216 587 OFFCURVE",
"188 612 OFFCURVE",
"145 612 CURVE SMOOTH",
"101 612 OFFCURVE",
"73 587 OFFCURVE",
"73 547 CURVE SMOOTH",
"73 507 OFFCURVE",
"101 481 OFFCURVE",
"145 481 CURVE SMOOTH",
"188 481 OFFCURVE",
"216 507 OFFCURVE"
);
}
);
width = 291;
}
);
leftKerningGroup = i;
rightKerningGroup = i;
unicode = 0069;
userData = {
com.schriftgestaltung.Glyphs.ColorIndex = 6;
com.typemytype.robofont.layerData = {
background = {
anchors = (
);
components = (
{
baseGlyph = dotlessi;
transformation = (
1,
0,
0,
1,
0,
0
);
},
{
baseGlyph = dotaccentcomb;
transformation = (
1,
0,
0,
1,
50,
0
);
}
);
contours = (
);
lib = {
};
name = i;
unicodes = (
);
width = 675;
};
};
};
},
{
glyphname = j;
lastChange = "2020-05-30 22:12:00 +0000";
layers = (
{
anchors = (
{
name = top;
position = "{102, 413}";
}
);
layerId = "DAAEA780-4710-4479-B303-5C05B40621B2";
paths = (
{
closed = 1;
nodes = (
"147 422 LINE",
"109 421 OFFCURVE",
"62 416 OFFCURVE",
"24 403 CURVE",
"24 373 LINE",
"76 367 LINE SMOOTH",
"89 365 OFFCURVE",
"96 357 OFFCURVE",
"96 344 CURVE SMOOTH",
"96 49 LINE SMOOTH",
"96 -65 OFFCURVE",
"75 -104 OFFCURVE",
"-13 -164 CURVE",
"3 -193 LINE",
"37 -179 OFFCURVE",
"73 -163 OFFCURVE",
"101 -139 CURVE SMOOTH",
"144 -102 OFFCURVE",
"156 -63 OFFCURVE",
"156 46 CURVE SMOOTH",
"156 412 LINE"
);
},
{
closed = 1;
nodes = (
"157 534 CURVE SMOOTH",
"157 562 OFFCURVE",
"137 582 OFFCURVE",
"109 582 CURVE SMOOTH",
"81 582 OFFCURVE",
"61 562 OFFCURVE",
"61 534 CURVE SMOOTH",
"61 506 OFFCURVE",
"81 486 OFFCURVE",
"109 486 CURVE SMOOTH",
"137 486 OFFCURVE",
"157 506 OFFCURVE"
);
}
);
width = 233;
},
{
anchors = (
{
name = top;
position = "{122, 423}";
}
);
layerId = "925CB40E-795E-477B-BAE7-1EE7D58841B5";
paths = (
{
closed = 1;
nodes = (
"191 432 LINE",
"139 432 OFFCURVE",
"69 425 OFFCURVE",
"17 411 CURVE",
"17 357 LINE",
"62 348 LINE SMOOTH",
"73 346 OFFCURVE",
"78 338 OFFCURVE",
"78 327 CURVE SMOOTH",
"78 29 LINE SMOOTH",
"78 -56 OFFCURVE",
"55 -99 OFFCURVE",
"-30 -141 CURVE",
"-7 -196 LINE",
"51 -181 OFFCURVE",
"107 -162 OFFCURVE",
"146 -130 CURVE SMOOTH",
"187 -97 OFFCURVE",
"208 -52 OFFCURVE",
"208 36 CURVE SMOOTH",
"208 416 LINE"
);
},
{
closed = 1;
nodes = (
"202 547 CURVE SMOOTH",
"202 587 OFFCURVE",
"174 612 OFFCURVE",
"131 612 CURVE SMOOTH",
"87 612 OFFCURVE",
"59 587 OFFCURVE",
"59 547 CURVE SMOOTH",
"59 507 OFFCURVE",
"87 481 OFFCURVE",
"131 481 CURVE SMOOTH",
"174 481 OFFCURVE",
"202 507 OFFCURVE"
);
}
);
width = 268;
}
);
leftKerningGroup = j;
rightKerningGroup = j;
unicode = 006A;
userData = {
com.schriftgestaltung.Glyphs.ColorIndex = 6;
com.typemytype.robofont.layerData = {
background = {
anchors = (
);
components = (
{
baseGlyph = dotlessj;
transformation = (
1,
0,
0,
1,
0,
0
);
},
{
baseGlyph = dotaccentcomb;
transformation = (
1,
0,
0,
1,
42,
0
);
}
);
contours = (
);
lib = {
};
name = j;
unicodes = (
);
width = 601;
};
};
};
},
{
glyphname = k;
lastChange = "2020-05-30 22:12:17 +0000";
layers = (
{
anchors = (
{
name = btm;
position = "{261, 0}";
},
{
name = top;
position = "{277, 413}";
}
);
layerId = "DAAEA780-4710-4479-B303-5C05B40621B2";
paths = (
{
closed = 1;
nodes = (
"222 0 LINE",
"222 32 LINE",
"176 39 LINE SMOOTH",
"163 41 OFFCURVE",
"155 48 OFFCURVE",
"155 62 CURVE SMOOTH",
"155 644 LINE",
"145 653 LINE",
"107 652 OFFCURVE",
"57 645 OFFCURVE",
"19 633 CURVE",
"19 606 LINE",
"74 598 LINE SMOOTH",
"88 596 OFFCURVE",
"95 589 OFFCURVE",
"95 576 CURVE SMOOTH",
"95 62 LINE SMOOTH",
"95 49 OFFCURVE",
"88 41 OFFCURVE",
"75 39 CURVE SMOOTH",
"28 32 LINE",
"28 0 LINE"
);
},
{
closed = 1;
nodes = (
"465 0 LINE",
"465 32 LINE",
"417 42 LINE SMOOTH",
"407 44 OFFCURVE",
"397 51 OFFCURVE",
"389 65 CURVE SMOOTH",
"307 197 LINE SMOOTH",
"292 223 OFFCURVE",
"280 240 OFFCURVE",
"262 265 CURVE",
"221 225 LINE",
"237 202 OFFCURVE",
"252 174 OFFCURVE",
"271 140 CURVE SMOOTH",
"315 60 LINE SMOOTH",
"336 23 OFFCURVE",
"350 0 OFFCURVE",
"368 0 CURVE SMOOTH"
);
},
{
closed = 1;
nodes = (
"373 360 LINE SMOOTH",
"381 368 OFFCURVE",
"389 371 OFFCURVE",
"402 373 CURVE SMOOTH",
"446 383 LINE",
"446 413 LINE",
"254 413 LINE",
"254 383 LINE",
"347 368 LINE",
"340 384 LINE",
"140 163 LINE",
"144 117 LINE"
);
}
);
width = 478;
},
{
anchors = (
{
name = btm;
position = "{246, -62}";
},
{
name = top;
position = "{273, 618}";
}
);
associatedMasterId = "DAAEA780-4710-4479-B303-5C05B40621B2";
layerId = "05C9DFAD-82E3-42E1-890F-166E40FBC743";
name = "Light Sep 15 15, 14:29";
paths = (
{
closed = 1;
nodes = (
"151 644 LINE",
"141 653 LINE",
"102 652 OFFCURVE",
"55 645 OFFCURVE",
"15 633 CURVE",
"15 606 LINE",
"70 598 LINE SMOOTH",
"83 596 OFFCURVE",
"91 589 OFFCURVE",
"91 575 CURVE SMOOTH",
"91 62 LINE SMOOTH",
"91 49 OFFCURVE",
"83 41 OFFCURVE",
"70 39 CURVE SMOOTH",
"27 32 LINE",
"27 0 LINE",
"223 0 LINE",
"223 32 LINE",
"172 39 LINE SMOOTH",
"159 41 OFFCURVE",
"151 49 OFFCURVE",
"151 62 CURVE SMOOTH"
);
},
{
closed = 1;
nodes = (
"218 231 LINE",
"352 0 LINE",
"465 0 LINE",
"465 32 LINE",
"417 42 LINE SMOOTH",
"406 44 OFFCURVE",
"398 49 OFFCURVE",
"392 58 CURVE SMOOTH",
"260 270 LINE"
);
},
{
closed = 1;
nodes = (
"140 117 LINE",
"370 363 LINE SMOOTH",
"377 371 OFFCURVE",
"386 374 OFFCURVE",
"399 376 CURVE SMOOTH",
"442 384 LINE",
"442 413 LINE",
"250 413 LINE",
"250 384 LINE",
"343 371 LINE",
"337 386 LINE",
"136 162 LINE"
);
}
);
width = 461;
},
{
anchors = (
{
name = btm;
position = "{283, 0}";
},
{
name = top;
position = "{276, 423}";
}
);
layerId = "925CB40E-795E-477B-BAE7-1EE7D58841B5";
paths = (
{
closed = 1;
nodes = (
"260 0 LINE",
"260 52 LINE",
"222 59 LINE SMOOTH",
"211 61 OFFCURVE",
"205 68 OFFCURVE",
"205 80 CURVE SMOOTH",
"205 639 LINE",
"188 655 LINE",
"135 654 OFFCURVE",
"63 645 OFFCURVE",
"11 631 CURVE",
"11 580 LINE",
"58 573 LINE SMOOTH",
"69 571 OFFCURVE",
"75 564 OFFCURVE",
"75 552 CURVE SMOOTH",
"75 80 LINE SMOOTH",
"75 69 OFFCURVE",
"68 61 OFFCURVE",
"57 59 CURVE SMOOTH",
"18 52 LINE",
"18 0 LINE"
);
},
{
closed = 1;
nodes = (
"511 0 LINE",
"511 52 LINE",
"472 63 LINE SMOOTH",
"459 66 OFFCURVE",
"453 70 OFFCURVE",
"447 83 CURVE SMOOTH",
"389 194 LINE SMOOTH",
"367 237 OFFCURVE",
"351 263 OFFCURVE",
"324 288 CURVE",
"238 206 LINE",
"252 188 OFFCURVE",
"263 167 OFFCURVE",
"273 144 CURVE SMOOTH",
"305 71 LINE SMOOTH",
"322 33 OFFCURVE",
"335 0 OFFCURVE",
"360 0 CURVE SMOOTH"
);
},
{
closed = 1;
nodes = (
"409 346 LINE SMOOTH",
"421 357 OFFCURVE",
"428 358 OFFCURVE",
"448 363 CURVE SMOOTH",
"490 374 LINE",
"490 423 LINE",
"273 423 LINE",
"273 374 LINE",
"368 357 LINE",
"367 391 LINE",
"181 194 LINE",
"187 128 LINE"
);
}
);
width = 519;
}
);
leftKerningGroup = h;
rightKerningGroup = k;
unicode = 006B;
userData = {
com.typemytype.robofont.layerData = {
"Light Sep 15 15, 14:29" = {
anchors = (
{
name = btm;
x = 676;
y = -170;
},
{
name = top;
x = 752;
y = 1700;
}
);
components = (
);
contours = (
{
points = (
{
segmentType = line;
smooth = 0;
x = 415;
y = 1770;
},
{
segmentType = line;
smooth = 0;
x = 389;
y = 1797;
},
{
smooth = 0;
x = 280;
y = 1794;
},
{
smooth = 0;
x = 150;
y = 1775;
},
{
segmentType = curve;
smooth = 0;
x = 41;
y = 1742;
},
{
segmentType = line;
smooth = 0;
x = 41;
y = 1667;
},
{
segmentType = line;
smooth = 1;
x = 192;
y = 1644;
},
{
smooth = 0;
x = 229;
y = 1638;
},
{
smooth = 0;
x = 249;
y = 1619;
},
{
segmentType = curve;
smooth = 1;
x = 249;
y = 1582;
},
{
segmentType = line;
smooth = 1;
x = 249;
y = 171;
},
{
smooth = 0;
x = 249;
y = 134;
},
{
smooth = 0;
x = 229;
y = 113;
},
{
segmentType = curve;
smooth = 1;
x = 193;
y = 107;
},
{
segmentType = line;
smooth = 0;
x = 73;
y = 88;
},
{
segmentType = line;
smooth = 0;
x = 73;
y = 0;
},
{
segmentType = line;
smooth = 0;
x = 612;
y = 0;
},
{
segmentType = line;
smooth = 0;
x = 612;
y = 88;
},
{
segmentType = line;
smooth = 1;
x = 472;
y = 108;
},
{
smooth = 0;
x = 436;
y = 113;
},
{
smooth = 0;
x = 415;
y = 134;
},
{
segmentType = curve;
smooth = 1;
x = 415;
y = 171;
}
);
},
{
points = (
{
segmentType = line;
smooth = 0;
x = 600;
y = 635;
},
{
segmentType = line;
smooth = 0;
x = 969;
y = 0;
},
{
segmentType = line;
smooth = 0;
x = 1279;
y = 0;
},
{
segmentType = line;
smooth = 0;
x = 1279;
y = 88;
},
{
segmentType = line;
smooth = 1;
x = 1146;
y = 115;
},
{
smooth = 0;
x = 1117;
y = 121;
},
{
smooth = 0;
x = 1094;
y = 134;
},
{
segmentType = curve;
smooth = 1;
x = 1078;
y = 159;
},
{
segmentType = line;
smooth = 0;
x = 716;
y = 743;
}
);
},
{
points = (
{
segmentType = line;
smooth = 0;
x = 384;
y = 322;
},
{
segmentType = line;
smooth = 1;
x = 1017;
y = 997;
},
{
smooth = 0;
x = 1038;
y = 1019;
},
{
smooth = 0;
x = 1061;
y = 1029;
},
{
segmentType = curve;
smooth = 1;
x = 1096;
y = 1035;
},
{
segmentType = line;
smooth = 0;
x = 1215;
y = 1055;
},
{
segmentType = line;
smooth = 0;
x = 1215;
y = 1136;
},
{
segmentType = line;
smooth = 0;
x = 687;
y = 1136;
},
{
segmentType = line;
smooth = 0;
x = 687;
y = 1055;
},
{
segmentType = line;
smooth = 0;
x = 944;
y = 1021;
},
{
segmentType = line;
smooth = 0;
x = 926;
y = 1062;
},
{
segmentType = line;
smooth = 0;
x = 374;
y = 445;
}
);
}
);
lib = {
};
name = k;
unicodes = (
);
width = 1269;
};
background = {
anchors = (
{
name = btm;
x = 382;
y = -170;
},
{
name = top;
x = 353;
y = 1700;
}
);
components = (
);
contours = (
{
points = (
{
segmentType = line;
smooth = 0;
x = 159;
y = 0;
},
{
segmentType = line;
smooth = 0;
x = 618;
y = 0;
},
{
segmentType = line;
smooth = 0;
x = 618;
y = 88;
},
{
segmentType = line;
smooth = 0;
x = 442;
y = 106;
},
{
segmentType = line;
smooth = 0;
x = 461;
y = 67;
},
{
segmentType = line;
smooth = 0;
x = 461;
y = 278;
},
{
segmentType = line;
smooth = 0;
x = 456;
y = 411;
},
{
segmentType = line;
smooth = 0;
x = 441;
y = 368;
},
{
segmentType = line;
smooth = 0;
x = 702;
y = 623;
},
{
segmentType = line;
smooth = 0;
x = 675;
y = 629;
},
{
segmentType = line;
smooth = 0;
x = 1038;
y = 58;
},
{
segmentType = line;
smooth = 0;
x = 1040;
y = 109;
},
{
segmentType = line;
smooth = 0;
x = 866;
y = 88;
},
{
segmentType = line;
smooth = 0;
x = 866;
y = 0;
},
{
segmentType = line;
smooth = 0;
x = 1335;
y = 0;
},
{
segmentType = line;
smooth = 0;
x = 1335;
y = 88;
},
{
segmentType = line;
smooth = 0;
x = 1163;
y = 107;
},
{
segmentType = line;
smooth = 0;
x = 1230;
y = 61;
},
{
segmentType = line;
smooth = 0;
x = 777;
y = 723;
},
{
segmentType = line;
smooth = 0;
x = 759;
y = 668;
},
{
segmentType = line;
smooth = 0;
x = 1190;
y = 1090;
},
{
segmentType = line;
smooth = 0;
x = 1084;
y = 1019;
},
{
segmentType = line;
smooth = 0;
x = 1283;
y = 1055;
},
{
segmentType = line;
smooth = 0;
x = 1283;
y = 1136;
},
{
segmentType = line;
smooth = 0;
x = 810;
y = 1136;
},
{
segmentType = line;
smooth = 0;
x = 810;
y = 1055;
},
{
segmentType = line;
smooth = 0;
x = 1004;
y = 1020;
},
{
segmentType = line;
smooth = 0;
x = 1020;
y = 1083;
},
{
segmentType = line;
smooth = 0;
x = 431;
y = 477;
},
{
segmentType = line;
smooth = 0;
x = 455;
y = 456;
},
{
segmentType = line;
smooth = 0;
x = 461;
y = 632;
},
{
segmentType = line;
smooth = 0;
x = 461;
y = 1650;
},
{
segmentType = line;
smooth = 0;
x = 422;
y = 1677;
},
{
segmentType = line;
smooth = 0;
x = 420;
y = 1677;
},
{
segmentType = line;
smooth = 0;
x = 127;
y = 1642;
},
{
segmentType = line;
smooth = 0;
x = 127;
y = 1567;
},
{
segmentType = line;
smooth = 0;
x = 295;
y = 1549;
},
{
segmentType = line;
smooth = 0;
x = 295;
y = 67;
},
{
segmentType = line;
smooth = 0;
x = 326;
y = 108;
},
{
segmentType = line;
smooth = 0;
x = 159;
y = 88;
}
);
}
);
lib = {
};
name = k;
unicodes = (
);
width = 1271;
};
};
};
},
{
glyphname = l;
lastChange = "2020-05-30 22:12:24 +0000";
layers = (
{
anchors = (
{
name = btm;
position = "{123, 0}";
},
{
name = top;
position = "{113, 648}";
},
{
name = topright;
position = "{157, 413}";
}
);
layerId = "DAAEA780-4710-4479-B303-5C05B40621B2";
paths = (
{
closed = 1;
nodes = (
"157 643 LINE",
"147 653 LINE",
"109 652 OFFCURVE",
"56 646 OFFCURVE",
"18 633 CURVE",
"18 606 LINE",
"76 598 LINE SMOOTH",
"89 596 OFFCURVE",
"97 589 OFFCURVE",
"97 576 CURVE SMOOTH",
"97 61 LINE SMOOTH",
"97 48 OFFCURVE",
"89 41 OFFCURVE",
"76 39 CURVE SMOOTH",
"20 32 LINE",
"20 0 LINE",
"233 0 LINE",
"233 31 LINE",
"177 39 LINE SMOOTH",
"164 41 OFFCURVE",
"157 48 OFFCURVE",
"157 62 CURVE SMOOTH"
);
}
);
width = 253;
},
{
anchors = (
{
name = btm;
position = "{139, 0}";
},
{
name = top;
position = "{135, 648}";
},
{
name = topright;
position = "{208, 423}";
}
);
layerId = "925CB40E-795E-477B-BAE7-1EE7D58841B5";
paths = (
{
closed = 1;
nodes = (
"208 638 LINE",
"191 655 LINE",
"138 654 OFFCURVE",
"65 645 OFFCURVE",
"13 631 CURVE",
"13 580 LINE",
"60 573 LINE SMOOTH",
"71 571 OFFCURVE",
"77 564 OFFCURVE",
"77 552 CURVE SMOOTH",
"77 79 LINE SMOOTH",
"77 68 OFFCURVE",
"71 61 OFFCURVE",
"60 59 CURVE SMOOTH",
"16 52 LINE",
"16 0 LINE",
"269 0 LINE",
"269 52 LINE",
"225 59 LINE SMOOTH",
"214 61 OFFCURVE",
"208 68 OFFCURVE",
"208 80 CURVE SMOOTH"
);
}
);
width = 285;
}
);
leftKerningGroup = l;
rightKerningGroup = l;
unicode = 006C;
userData = {
com.typemytype.robofont.layerData = {
background = {
anchors = (
{
name = btm;
x = 381;
y = -170;
},
{
name = top;
x = 352;
y = 1700;
}
);
components = (
);
contours = (
{
points = (
{
segmentType = line;
smooth = 0;
x = 114;
y = 0;
},
{
segmentType = line;
smooth = 0;
x = 652;
y = 0;
},
{
segmentType = line;
smooth = 0;
x = 652;
y = 88;
},
{
segmentType = line;
smooth = 0;
x = 433;
y = 106;
},
{
segmentType = line;
smooth = 0;
x = 461;
y = 67;
},
{
segmentType = line;
smooth = 0;
x = 461;
y = 1650;
},
{
segmentType = line;
smooth = 0;
x = 421;
y = 1678;
},
{
segmentType = line;
smooth = 0;
x = 420;
y = 1678;
},
{
segmentType = line;
smooth = 0;
x = 119;
y = 1642;
},
{
segmentType = line;
smooth = 0;
x = 119;
y = 1567;
},
{
segmentType = line;
smooth = 0;
x = 295;
y = 1549;
},
{
segmentType = line;
smooth = 0;
x = 295;
y = 67;
},
{
segmentType = line;
smooth = 0;
x = 328;
y = 107;
},
{
segmentType = line;
smooth = 0;
x = 114;
y = 88;
}
);
}
);
lib = {
};
name = l;
unicodes = (
);
width = 657;
};
};
};
},
{
glyphname = m;
lastChange = "2020-05-30 22:05:55 +0000";
layers = (
{
anchors = (
{
name = btm;
position = "{386, 0}";
},
{
name = top;
position = "{386, 413}";
}
);
layerId = "DAAEA780-4710-4479-B303-5C05B40621B2";
paths = (
{
closed = 1;
nodes = (
"748 0 LINE",
"748 32 LINE",
"701 39 LINE SMOOTH",
"688 41 OFFCURVE",
"681 48 OFFCURVE",
"681 62 CURVE SMOOTH",
"681 259 LINE SMOOTH",
"681 368 OFFCURVE",
"652 423 OFFCURVE",
"552 423 CURVE SMOOTH",
"504 423 OFFCURVE",
"446 410 OFFCURVE",
"398 352 CURVE",
"399 321 LINE",
"439 362 OFFCURVE",
"486 377 OFFCURVE",
"530 377 CURVE SMOOTH",
"603 377 OFFCURVE",
"621 337 OFFCURVE",
"621 249 CURVE SMOOTH",
"621 62 LINE SMOOTH",
"621 47 OFFCURVE",
"612 41 OFFCURVE",
"600 39 CURVE SMOOTH",
"555 32 LINE",
"555 0 LINE"
);
},
{
closed = 1;
nodes = (
"231 0 LINE",
"231 32 LINE",
"185 39 LINE SMOOTH",
"172 41 OFFCURVE",
"165 48 OFFCURVE",
"165 62 CURVE SMOOTH",
"165 340 LINE",
"159 411 LINE",
"147 422 LINE",
"112 421 OFFCURVE",
"68 415 OFFCURVE",
"32 403 CURVE",
"32 373 LINE",
"85 367 LINE SMOOTH",
"98 366 OFFCURVE",
"105 357 OFFCURVE",
"105 344 CURVE SMOOTH",
"105 62 LINE SMOOTH",
"105 49 OFFCURVE",
"98 41 OFFCURVE",
"85 39 CURVE SMOOTH",
"38 32 LINE",
"38 0 LINE"
);
},
{
closed = 1;
nodes = (
"488 0 LINE",
"488 32 LINE",
"444 39 LINE SMOOTH",
"431 41 OFFCURVE",
"423 48 OFFCURVE",
"423 62 CURVE SMOOTH",
"423 263 LINE SMOOTH",
"423 364 OFFCURVE",
"397 423 OFFCURVE",
"301 423 CURVE SMOOTH",
"248 423 OFFCURVE",
"187 405 OFFCURVE",
"148 345 CURVE",
"144 317 LINE",
"178 357 OFFCURVE",
"236 377 OFFCURVE",
"283 377 CURVE SMOOTH",
"353 377 OFFCURVE",
"363 333 OFFCURVE",
"363 249 CURVE SMOOTH",
"363 62 LINE SMOOTH",
"363 47 OFFCURVE",
"354 41 OFFCURVE",
"342 39 CURVE SMOOTH",
"297 32 LINE",
"297 0 LINE"
);
}
);
width = 770;
},
{
anchors = (
{
name = btm;
position = "{397, 0}";
},
{
name = top;
position = "{397, 423}";
}
);
layerId = "925CB40E-795E-477B-BAE7-1EE7D58841B5";
paths = (
{
closed = 1;
nodes = (
"774 0 LINE",
"774 52 LINE",
"734 59 LINE SMOOTH",
"723 61 OFFCURVE",
"717 68 OFFCURVE",
"717 80 CURVE SMOOTH",
"717 273 LINE SMOOTH",
"717 374 OFFCURVE",
"689 433 OFFCURVE",
"590 433 CURVE SMOOTH",
"528 433 OFFCURVE",
"474 410 OFFCURVE",
"438 361 CURVE",
"439 321 LINE",
"467 345 OFFCURVE",
"497 355 OFFCURVE",
"523 355 CURVE SMOOTH",
"567 355 OFFCURVE",
"586 327 OFFCURVE",
"586 258 CURVE SMOOTH",
"586 80 LINE SMOOTH",
"586 68 OFFCURVE",
"581 63 OFFCURVE",
"569 59 CURVE SMOOTH",
"547 52 LINE",
"547 0 LINE"
);
},
{
closed = 1;
nodes = (
"256 0 LINE",
"256 52 LINE",
"232 59 LINE SMOOTH",
"221 63 OFFCURVE",
"217 68 OFFCURVE",
"217 80 CURVE SMOOTH",
"217 342 LINE",
"203 416 LINE",
"184 432 LINE",
"135 431 OFFCURVE",
"76 424 OFFCURVE",
"25 411 CURVE",
"25 357 LINE",
"69 348 LINE SMOOTH",
"80 346 OFFCURVE",
"85 338 OFFCURVE",
"85 327 CURVE SMOOTH",
"85 80 LINE SMOOTH",
"85 68 OFFCURVE",
"79 61 OFFCURVE",
"69 59 CURVE SMOOTH",
"29 52 LINE",
"29 0 LINE"
);
},
{
closed = 1;
nodes = (
"506 0 LINE",
"506 52 LINE",
"483 59 LINE SMOOTH",
"472 63 OFFCURVE",
"467 68 OFFCURVE",
"467 80 CURVE SMOOTH",
"467 276 LINE SMOOTH",
"467 376 OFFCURVE",
"438 433 OFFCURVE",
"340 433 CURVE SMOOTH",
"277 433 OFFCURVE",
"226 409 OFFCURVE",
"193 358 CURVE",
"193 322 LINE",
"215 344 OFFCURVE",
"248 355 OFFCURVE",
"274 355 CURVE SMOOTH",
"318 355 OFFCURVE",
"336 330 OFFCURVE",
"336 262 CURVE SMOOTH",
"336 80 LINE SMOOTH",
"336 68 OFFCURVE",
"330 63 OFFCURVE",
"319 59 CURVE SMOOTH",
"297 52 LINE",
"297 0 LINE"
);
}
);
width = 789;
}
);
leftKerningGroup = n;
rightKerningGroup = n;
unicode = 006D;
userData = {
com.typemytype.robofont.layerData = {
background = {
anchors = (
{
name = btm;
x = 1052;
y = -170;
},
{
name = top;
x = 1052;
y = 1700;
}
);
components = (
);
contours = (
{
points = (
{
segmentType = line;
smooth = 0;
x = 149;
y = 0;
},
{
segmentType = line;
smooth = 0;
x = 590;
y = 0;
},
{
segmentType = line;
smooth = 0;
x = 590;
y = 88;
},
{
segmentType = line;
smooth = 0;
x = 409;
y = 108;
},
{
segmentType = line;
smooth = 0;
x = 445;
y = 72;
},
{
segmentType = line;
smooth = 0;
x = 445;
y = 901;
},
{
smooth = 0;
x = 529;
y = 966;
},
{
smooth = 0;
x = 666;
y = 1036;
},
{
segmentType = curve;
smooth = 1;
x = 781;
y = 1036;
},
{
smooth = 0;
x = 979;
y = 1036;
},
{
smooth = 0;
x = 1007;
y = 921;
},
{
segmentType = curve;
smooth = 1;
x = 1007;
y = 684;
},
{
segmentType = line;
smooth = 0;
x = 1007;
y = 73;
},
{
segmentType = line;
smooth = 0;
x = 1054;
y = 109;
},
{
segmentType = line;
smooth = 0;
x = 859;
y = 88;
},
{
segmentType = line;
smooth = 0;
x = 859;
y = 0;
},
{
segmentType = line;
smooth = 0;
x = 1327;
y = 0;
},
{
segmentType = line;
smooth = 0;
x = 1327;
y = 88;
},
{
segmentType = line;
smooth = 0;
x = 1127;
y = 109;
},
{
segmentType = line;
smooth = 0;
x = 1172;
y = 67;
},
{
segmentType = line;
smooth = 0;
x = 1172;
y = 683;
},
{
smooth = 0;
x = 1172;
y = 1018;
},
{
smooth = 0;
x = 1102;
y = 1164;
},
{
segmentType = curve;
smooth = 1;
x = 847;
y = 1164;
},
{
smooth = 0;
x = 701;
y = 1164;
},
{
smooth = 0;
x = 514;
y = 1065;
},
{
segmentType = curve;
smooth = 0;
x = 425;
y = 987;
},
{
segmentType = line;
smooth = 0;
x = 427;
y = 1038;
},
{
segmentType = line;
smooth = 0;
x = 427;
y = 1129;
},
{
segmentType = line;
smooth = 0;
x = 387;
y = 1161;
},
{
segmentType = line;
smooth = 0;
x = 382;
y = 1161;
},
{
segmentType = line;
smooth = 0;
x = 121;
y = 1129;
},
{
segmentType = line;
smooth = 0;
x = 121;
y = 1037;
},
{
segmentType = line;
smooth = 0;
x = 280;
y = 1001;
},
{
segmentType = line;
smooth = 0;
x = 280;
y = 72;
},
{
segmentType = line;
smooth = 0;
x = 330;
y = 110;
},
{
segmentType = line;
smooth = 0;
x = 149;
y = 88;
}
);
},
{
points = (
{
segmentType = line;
smooth = 0;
x = 1139;
y = 919;
},
{
smooth = 0;
x = 1205;
y = 972;
},
{
smooth = 0;
x = 1339;
y = 1038;
},
{
segmentType = curve;
smooth = 1;
x = 1453;
y = 1038;
},
{
smooth = 0;
x = 1661;
y = 1038;
},
{
smooth = 0;
x = 1698;
y = 916;
},
{
segmentType = curve;
smooth = 1;
x = 1698;
y = 680;
},
{
segmentType = line;
smooth = 0;
x = 1698;
y = 65;
},
{
segmentType = line;
smooth = 0;
x = 1743;
y = 109;
},
{
segmentType = line;
smooth = 0;
x = 1560;
y = 88;
},
{
segmentType = line;
smooth = 0;
x = 1560;
y = 0;
},
{
segmentType = line;
smooth = 0;
x = 2018;
y = 0;
},
{
segmentType = line;
smooth = 0;
x = 2018;
y = 88;
},
{
segmentType = line;
smooth = 0;
x = 1809;
y = 110;
},
{
segmentType = line;
smooth = 0;
x = 1863;
y = 65;
},
{
segmentType = line;
smooth = 0;
x = 1863;
y = 686;
},
{
smooth = 0;
x = 1863;
y = 1017;
},
{
smooth = 0;
x = 1794;
y = 1164;
},
{
segmentType = curve;
smooth = 1;
x = 1534;
y = 1164;
},
{
smooth = 0;
x = 1380;
y = 1164;
},
{
smooth = 0;
x = 1177;
y = 1063;
},
{
segmentType = curve;
smooth = 0;
x = 1113;
y = 1002;
}
);
}
);
lib = {
};
name = m;
unicodes = (
);
width = 2077;
};
};
};
},
{
glyphname = n;
lastChange = "2020-05-30 22:12:54 +0000";
layers = (
{
anchors = (
{
name = apostrophe;
position = "{32, 413}";
},
{
name = btm;
position = "{270, 0}";
},
{
name = top;
position = "{264, 413}";
}
);
layerId = "DAAEA780-4710-4479-B303-5C05B40621B2";
paths = (
{
closed = 1;
nodes = (
"502 0 LINE",
"502 32 LINE",
"456 39 LINE SMOOTH",
"443 41 OFFCURVE",
"435 48 OFFCURVE",
"435 62 CURVE SMOOTH",
"435 263 LINE SMOOTH",
"435 364 OFFCURVE",
"407 423 OFFCURVE",
"311 423 CURVE SMOOTH",
"253 423 OFFCURVE",
"192 405 OFFCURVE",
"147 345 CURVE",
"144 315 LINE",
"183 357 OFFCURVE",
"234 377 OFFCURVE",
"289 377 CURVE SMOOTH",
"359 377 OFFCURVE",
"375 333 OFFCURVE",
"375 249 CURVE SMOOTH",
"375 62 LINE SMOOTH",
"375 47 OFFCURVE",
"366 41 OFFCURVE",
"354 39 CURVE SMOOTH",
"309 32 LINE",
"309 0 LINE"
);
},
{
closed = 1;
nodes = (
"231 0 LINE",
"231 32 LINE",
"185 39 LINE SMOOTH",
"172 41 OFFCURVE",
"165 49 OFFCURVE",
"165 62 CURVE SMOOTH",
"165 340 LINE",
"159 411 LINE",
"147 422 LINE",
"112 421 OFFCURVE",
"68 415 OFFCURVE",
"32 403 CURVE",
"32 373 LINE",
"85 367 LINE SMOOTH",
"98 365 OFFCURVE",
"105 357 OFFCURVE",
"105 344 CURVE SMOOTH",
"105 62 LINE SMOOTH",
"105 49 OFFCURVE",
"98 41 OFFCURVE",
"84 39 CURVE SMOOTH",
"38 32 LINE",
"38 0 LINE"
);
}
);
width = 524;
},
{
anchors = (
{
name = apostrophe;
position = "{25, 423}";
},
{
name = btm;
position = "{279, 0}";
},
{
name = top;
position = "{274, 423}";
}
);
layerId = "925CB40E-795E-477B-BAE7-1EE7D58841B5";
paths = (
{
closed = 1;
nodes = (
"529 0 LINE",
"529 52 LINE",
"489 59 LINE SMOOTH",
"478 61 OFFCURVE",
"472 68 OFFCURVE",
"472 80 CURVE SMOOTH",
"472 275 LINE SMOOTH",
"472 376 OFFCURVE",
"443 433 OFFCURVE",
"345 433 CURVE SMOOTH",
"281 433 OFFCURVE",
"230 409 OFFCURVE",
"194 358 CURVE",
"193 321 LINE",
"219 344 OFFCURVE",
"251 355 OFFCURVE",
"279 355 CURVE SMOOTH",
"322 355 OFFCURVE",
"341 330 OFFCURVE",
"341 261 CURVE SMOOTH",
"341 80 LINE SMOOTH",
"341 68 OFFCURVE",
"336 63 OFFCURVE",
"325 59 CURVE SMOOTH",
"300 52 LINE",
"300 0 LINE"
);
},
{
closed = 1;
nodes = (
"257 0 LINE",
"257 52 LINE",
"233 59 LINE SMOOTH",
"223 63 OFFCURVE",
"217 68 OFFCURVE",
"217 80 CURVE SMOOTH",
"217 341 LINE",
"203 416 LINE",
"184 432 LINE",
"135 431 OFFCURVE",
"76 424 OFFCURVE",
"25 411 CURVE",
"25 357 LINE",
"69 348 LINE SMOOTH",
"80 346 OFFCURVE",
"85 338 OFFCURVE",
"85 327 CURVE SMOOTH",
"85 80 LINE SMOOTH",
"85 68 OFFCURVE",
"79 61 OFFCURVE",
"69 59 CURVE SMOOTH",
"29 52 LINE",
"29 0 LINE"
);
}
);
width = 544;
}
);
leftKerningGroup = n;
rightKerningGroup = n;
unicode = 006E;
userData = {
com.typemytype.robofont.layerData = {
background = {
anchors = (
{
name = btm;
x = 720;
y = -170;
},
{
name = top;
x = 686;
y = 1700;
}
);
components = (
);
contours = (
{
points = (
{
segmentType = line;
smooth = 0;
x = 143;
y = 0;
},
{
segmentType = line;
smooth = 0;
x = 595;
y = 0;
},
{
segmentType = line;
smooth = 0;
x = 595;
y = 88;
},
{
segmentType = line;
smooth = 0;
x = 411;
y = 108;
},
{
segmentType = line;
smooth = 0;
x = 446;
y = 72;
},
{
segmentType = line;
smooth = 0;
x = 446;
y = 900;
},
{
smooth = 0;
x = 530;
y = 965;
},
{
smooth = 0;
x = 671;
y = 1036;
},
{
segmentType = curve;
smooth = 1;
x = 788;
y = 1036;
},
{
smooth = 0;
x = 986;
y = 1036;
},
{
smooth = 0;
x = 1020;
y = 922;
},
{
segmentType = curve;
smooth = 1;
x = 1020;
y = 684;
},
{
segmentType = line;
smooth = 0;
x = 1020;
y = 73;
},
{
segmentType = line;
smooth = 0;
x = 1068;
y = 109;
},
{
segmentType = line;
smooth = 0;
x = 879;
y = 88;
},
{
segmentType = line;
smooth = 0;
x = 879;
y = 0;
},
{
segmentType = line;
smooth = 0;
x = 1339;
y = 0;
},
{
segmentType = line;
smooth = 0;
x = 1339;
y = 88;
},
{
segmentType = line;
smooth = 0;
x = 1140;
y = 108;
},
{
segmentType = line;
smooth = 0;
x = 1185;
y = 67;
},
{
segmentType = line;
smooth = 0;
x = 1185;
y = 683;
},
{
smooth = 0;
x = 1185;
y = 1011;
},
{
smooth = 0;
x = 1123;
y = 1164;
},
{
segmentType = curve;
smooth = 1;
x = 858;
y = 1164;
},
{
smooth = 0;
x = 705;
y = 1164;
},
{
smooth = 0;
x = 515;
y = 1065;
},
{
segmentType = curve;
smooth = 0;
x = 426;
y = 987;
},
{
segmentType = line;
smooth = 0;
x = 428;
y = 1038;
},
{
segmentType = line;
smooth = 0;
x = 428;
y = 1129;
},
{
segmentType = line;
smooth = 0;
x = 388;
y = 1161;
},
{
segmentType = line;
smooth = 0;
x = 383;
y = 1161;
},
{
segmentType = line;
smooth = 0;
x = 122;
y = 1129;
},
{
segmentType = line;
smooth = 0;
x = 122;
y = 1037;
},
{
segmentType = line;
smooth = 0;
x = 281;
y = 1001;
},
{
segmentType = line;
smooth = 0;
x = 281;
y = 72;
},
{
segmentType = line;
smooth = 0;
x = 330;
y = 110;
},
{
segmentType = line;
smooth = 0;
x = 143;
y = 88;
}
);
}
);
lib = {
};
name = n;
unicodes = (
);
width = 1401;
};
};
};
},
{
glyphname = o;
lastChange = "2020-05-30 22:05:11 +0000";
layers = (
{
anchors = (
{
name = btm;
position = "{232, 0}";
},
{
name = top;
position = "{232, 413}";
}
);
layerId = "DAAEA780-4710-4479-B303-5C05B40621B2";
paths = (
{
closed = 1;
nodes = (
"352 201 CURVE SMOOTH",
"352 81 OFFCURVE",
"315 27 OFFCURVE",
"236 27 CURVE SMOOTH",
"140 27 OFFCURVE",
"112 106 OFFCURVE",
"112 211 CURVE SMOOTH",
"112 331 OFFCURVE",
"149 386 OFFCURVE",
"229 386 CURVE SMOOTH",
"324 386 OFFCURVE",
"352 307 OFFCURVE"
);
},
{
closed = 1;
nodes = (
"45 204 CURVE SMOOTH",
"45 81 OFFCURVE",
"95 -10 OFFCURVE",
"225 -10 CURVE SMOOTH",
"332 -10 OFFCURVE",
"420 58 OFFCURVE",
"420 207 CURVE SMOOTH",
"420 331 OFFCURVE",
"370 423 OFFCURVE",
"239 423 CURVE SMOOTH",
"133 423 OFFCURVE",
"45 355 OFFCURVE"
);
}
);
width = 465;
},
{
anchors = (
{
name = btm;
position = "{239, 0}";
},
{
name = top;
position = "{239, 423}";
}
);
layerId = "925CB40E-795E-477B-BAE7-1EE7D58841B5";
paths = (
{
closed = 1;
nodes = (
"307 206 CURVE SMOOTH",
"307 84 OFFCURVE",
"285 44 OFFCURVE",
"241 44 CURVE SMOOTH",
"187 44 OFFCURVE",
"171 91 OFFCURVE",
"171 217 CURVE SMOOTH",
"171 338 OFFCURVE",
"193 378 OFFCURVE",
"237 378 CURVE SMOOTH",
"291 378 OFFCURVE",
"307 332 OFFCURVE"
);
},
{
closed = 1;
nodes = (
"29 207 CURVE SMOOTH",
"29 59 OFFCURVE",
"106 -10 OFFCURVE",
"233 -10 CURVE SMOOTH",
"356 -10 OFFCURVE",
"448 48 OFFCURVE",
"448 216 CURVE SMOOTH",
"448 364 OFFCURVE",
"372 433 OFFCURVE",
"245 433 CURVE SMOOTH",
"123 433 OFFCURVE",
"29 373 OFFCURVE"
);
}
);
width = 478;
}
);
leftKerningGroup = o;
rightKerningGroup = o;
unicode = 006F;
userData = {
com.typemytype.robofont.layerData = {
background = {
anchors = (
{
name = btm;
x = 601;
y = -170;
},
{
name = top;
x = 617;
y = 1700;
}
);
components = (
);
contours = (
{
points = (
{
segmentType = curve;
smooth = 1;
x = 608;
y = 84;
},
{
smooth = 0;
x = 370;
y = 84;
},
{
smooth = 0;
x = 279;
y = 314;
},
{
segmentType = curve;
smooth = 1;
x = 279;
y = 587;
},
{
smooth = 0;
x = 279;
y = 901;
},
{
smooth = 0;
x = 402;
y = 1061;
},
{
segmentType = curve;
smooth = 1;
x = 610;
y = 1061;
},
{
smooth = 0;
x = 850;
y = 1061;
},
{
smooth = 0;
x = 938;
y = 828;
},
{
segmentType = curve;
smooth = 1;
x = 938;
y = 558;
},
{
smooth = 0;
x = 938;
y = 245;
},
{
smooth = 0;
x = 816;
y = 84;
}
);
},
{
points = (
{
segmentType = curve;
smooth = 1;
x = 93;
y = 576;
},
{
smooth = 0;
x = 93;
y = 254;
},
{
smooth = 0;
x = 231;
y = -23;
},
{
segmentType = curve;
smooth = 1;
x = 599;
y = -23;
},
{
smooth = 0;
x = 860;
y = -23;
},
{
smooth = 0;
x = 1125;
y = 196;
},
{
segmentType = curve;
smooth = 1;
x = 1125;
y = 569;
},
{
smooth = 0;
x = 1125;
y = 891;
},
{
smooth = 0;
x = 986;
y = 1168;
},
{
segmentType = curve;
smooth = 1;
x = 618;
y = 1168;
},
{
smooth = 0;
x = 357;
y = 1168;
},
{
smooth = 0;
x = 93;
y = 948;
}
);
}
);
lib = {
};
name = o;
unicodes = (
);
width = 1238;
};
};
};
},
{
glyphname = p;
lastChange = "2020-05-31 14:46:25 +0000";
layers = (
{
anchors = (
{
name = btm;
position = "{259, 0}";
},
{
name = top;
position = "{277, 413}";
}
);
layerId = "DAAEA780-4710-4479-B303-5C05B40621B2";
paths = (
{
closed = 1;
nodes = (
"239 -180 LINE",
"239 -148 LINE",
"177 -141 LINE SMOOTH",
"164 -140 OFFCURVE",
"156 -132 OFFCURVE",
"156 -119 CURVE SMOOTH",
"156 348 LINE",
"150 411 LINE",
"139 422 LINE",
"100 421 OFFCURVE",
"62 415 OFFCURVE",
"24 403 CURVE",
"24 373 LINE",
"77 367 LINE SMOOTH",
"90 365 OFFCURVE",
"96 356 OFFCURVE",
"96 343 CURVE SMOOTH",
"96 -119 LINE SMOOTH",
"96 -132 OFFCURVE",
"89 -140 OFFCURVE",
"76 -141 CURVE SMOOTH",
"29 -148 LINE",
"29 -180 LINE"
);
},
{
closed = 1;
nodes = (
"370 -8 OFFCURVE",
"447 82 OFFCURVE",
"447 227 CURVE SMOOTH",
"447 366 OFFCURVE",
"376 423 OFFCURVE",
"283 423 CURVE SMOOTH",
"211 423 OFFCURVE",
"169 389 OFFCURVE",
"143 349 CURVE",
"153 331 LINE",
"175 354 OFFCURVE",
"210 377 OFFCURVE",
"261 377 CURVE SMOOTH",
"345 377 OFFCURVE",
"383 320 OFFCURVE",
"381 208 CURVE SMOOTH",
"380 77 OFFCURVE",
"325 29 OFFCURVE",
"241 29 CURVE SMOOTH",
"199 29 OFFCURVE",
"164 42 OFFCURVE",
"149 56 CURVE",
"139 13 LINE",
"164 -3 OFFCURVE",
"207 -8 OFFCURVE",
"239 -8 CURVE SMOOTH"
);
}
);
width = 491;
},
{
anchors = (
{
name = btm;
position = "{241, 0}";
},
{
name = top;
position = "{260, 423}";
}
);
layerId = "925CB40E-795E-477B-BAE7-1EE7D58841B5";
paths = (
{
closed = 1;
nodes = (
"283 -180 LINE",
"283 -129 LINE",
"226 -121 LINE SMOOTH",
"215 -120 OFFCURVE",
"209 -112 OFFCURVE",
"209 -101 CURVE SMOOTH",
"209 349 LINE",
"195 416 LINE",
"176 432 LINE",
"128 432 OFFCURVE",
"65 423 OFFCURVE",
"17 411 CURVE",
"17 357 LINE",
"62 348 LINE SMOOTH",
"72 346 OFFCURVE",
"77 338 OFFCURVE",
"77 327 CURVE SMOOTH",
"77 -101 LINE SMOOTH",
"77 -112 OFFCURVE",
"72 -119 OFFCURVE",
"61 -121 CURVE SMOOTH",
"21 -129 LINE",
"21 -180 LINE"
);
},
{
closed = 1;
nodes = (
"388 -8 OFFCURVE",
"476 75 OFFCURVE",
"476 232 CURVE SMOOTH",
"476 370 OFFCURVE",
"409 433 OFFCURVE",
"321 433 CURVE SMOOTH",
"256 433 OFFCURVE",
"212 400 OFFCURVE",
"182 354 CURVE",
"193 331 LINE",
"204 343 OFFCURVE",
"231 356 OFFCURVE",
"262 356 CURVE SMOOTH",
"314 356 OFFCURVE",
"338 315 OFFCURVE",
"337 212 CURVE SMOOTH",
"337 83 OFFCURVE",
"303 43 OFFCURVE",
"251 43 CURVE SMOOTH",
"228 43 OFFCURVE",
"205 47 OFFCURVE",
"189 66 CURVE",
"183 1 LINE",
"207 -6 OFFCURVE",
"231 -8 OFFCURVE",
"251 -8 CURVE SMOOTH"
);
}
);
width = 505;
}
);
rightKerningGroup = b;
unicode = 0070;
userData = {
com.typemytype.robofont.layerData = {
background = {
anchors = (
{
name = btm;
x = 666;
y = -170;
},
{
name = top;
x = 717;
y = 1700;
}
);
components = (
);
contours = (
{
points = (
{
segmentType = line;
smooth = 0;
x = 63;
y = -405;
},
{
segmentType = line;
smooth = 0;
x = 63;
y = -496;
},
{
segmentType = line;
smooth = 0;
x = 612;
y = -496;
},
{
segmentType = line;
smooth = 0;
x = 612;
y = -405;
},
{
segmentType = line;
smooth = 0;
x = 343;
y = -381;
},
{
segmentType = line;
smooth = 0;
x = 385;
y = -423;
},
{
segmentType = line;
smooth = 0;
x = 385;
y = -164;
},
{
segmentType = line;
smooth = 0;
x = 381;
y = 10;
},
{
segmentType = line;
smooth = 0;
x = 385;
y = 68;
},
{
segmentType = line;
smooth = 0;
x = 385;
y = 963;
},
{
segmentType = line;
smooth = 0;
x = 365;
y = 986;
},
{
segmentType = line;
smooth = 0;
x = 365;
y = 1129;
},
{
segmentType = line;
smooth = 0;
x = 328;
y = 1161;
},
{
segmentType = line;
smooth = 0;
x = 323;
y = 1161;
},
{
segmentType = line;
smooth = 0;
x = 61;
y = 1129;
},
{
segmentType = line;
smooth = 0;
x = 61;
y = 1037;
},
{
segmentType = line;
smooth = 0;
x = 221;
y = 1001;
},
{
segmentType = line;
smooth = 0;
x = 221;
y = -421;
},
{
segmentType = line;
smooth = 0;
x = 263;
y = -380;
}
);
},
{
points = (
{
segmentType = curve;
smooth = 1;
x = 1183;
y = 610;
},
{
smooth = 0;
x = 1183;
y = 1003;
},
{
smooth = 0;
x = 963;
y = 1168;
},
{
segmentType = curve;
smooth = 1;
x = 735;
y = 1168;
},
{
smooth = 0;
x = 535;
y = 1168;
},
{
smooth = 0;
x = 397;
y = 1047;
},
{
segmentType = curve;
smooth = 0;
x = 334;
y = 970;
},
{
segmentType = line;
smooth = 0;
x = 382;
y = 920;
},
{
smooth = 0;
x = 429;
y = 972;
},
{
smooth = 0;
x = 536;
y = 1042;
},
{
segmentType = curve;
smooth = 1;
x = 667;
y = 1042;
},
{
smooth = 0;
x = 850;
y = 1042;
},
{
smooth = 0;
x = 1008;
y = 908;
},
{
segmentType = curve;
smooth = 1;
x = 1005;
y = 581;
},
{
smooth = 0;
x = 1000;
y = 232;
},
{
smooth = 0;
x = 834;
y = 74;
},
{
segmentType = curve;
smooth = 1;
x = 615;
y = 74;
},
{
smooth = 0;
x = 502;
y = 74;
},
{
smooth = 0;
x = 405;
y = 111;
},
{
segmentType = curve;
smooth = 0;
x = 385;
y = 144;
},
{
segmentType = line;
smooth = 0;
x = 318;
y = 84;
},
{
segmentType = line;
smooth = 0;
x = 381;
y = 10;
},
{
smooth = 0;
x = 437;
y = -10;
},
{
smooth = 0;
x = 533;
y = -23;
},
{
segmentType = curve;
smooth = 1;
x = 606;
y = -23;
},
{
smooth = 0;
x = 957;
y = -23;
},
{
smooth = 0;
x = 1183;
y = 259;
}
);
}
);
lib = {
};
name = p;
unicodes = (
);
width = 1311;
};
};
};
},
{
glyphname = q;
lastChange = "2020-05-30 22:13:10 +0000";
layers = (
{
anchors = (
{
name = btm;
position = "{237, 0}";
},
{
name = top;
position = "{229, 413}";
}
);
layerId = "DAAEA780-4710-4479-B303-5C05B40621B2";
paths = (
{
closed = 1;
nodes = (
"44 51 OFFCURVE",
"119 -8 OFFCURVE",
"211 -8 CURVE SMOOTH",
"277 -8 OFFCURVE",
"327 31 OFFCURVE",
"353 69 CURVE",
"343 86 LINE",
"313 58 OFFCURVE",
"276 39 OFFCURVE",
"231 39 CURVE SMOOTH",
"168 39 OFFCURVE",
"110 73 OFFCURVE",
"110 208 CURVE SMOOTH",
"110 342 OFFCURVE",
"173 385 OFFCURVE",
"251 385 CURVE SMOOTH",
"289 385 OFFCURVE",
"328 373 OFFCURVE",
"347 346 CURVE",
"372 388 LINE",
"345 407 OFFCURVE",
"300 423 OFFCURVE",
"251 423 CURVE SMOOTH",
"133 423 OFFCURVE",
"44 346 OFFCURVE",
"44 196 CURVE SMOOTH"
);
},
{
closed = 1;
nodes = (
"395 412 LINE",
"382 423 LINE",
"335 396 LINE",
"335 -119 LINE SMOOTH",
"335 -132 OFFCURVE",
"328 -140 OFFCURVE",
"314 -141 CURVE SMOOTH",
"252 -148 LINE",
"252 -180 LINE",
"447 -180 LINE",
"447 -148 LINE",
"415 -142 LINE SMOOTH",
"403 -140 OFFCURVE",
"395 -132 OFFCURVE",
"395 -119 CURVE SMOOTH"
);
}
);
width = 472;
},
{
anchors = (
{
name = btm;
position = "{236, 0}";
},
{
name = top;
position = "{228, 423}";
}
);
layerId = "925CB40E-795E-477B-BAE7-1EE7D58841B5";
paths = (
{
closed = 1;
nodes = (
"30 55 OFFCURVE",
"99 -8 OFFCURVE",
"194 -8 CURVE SMOOTH",
"260 -8 OFFCURVE",
"303 25 OFFCURVE",
"327 75 CURVE",
"313 89 LINE",
"295 73 OFFCURVE",
"267 63 OFFCURVE",
"240 63 CURVE SMOOTH",
"193 63 OFFCURVE",
"168 105 OFFCURVE",
"168 220 CURVE SMOOTH",
"168 334 OFFCURVE",
"200 377 OFFCURVE",
"251 377 CURVE SMOOTH",
"279 377 OFFCURVE",
"297 368 OFFCURVE",
"310 349 CURVE",
"383 389 LINE",
"350 414 OFFCURVE",
"293 433 OFFCURVE",
"242 433 CURVE SMOOTH",
"107 433 OFFCURVE",
"30 345 OFFCURVE",
"30 200 CURVE SMOOTH"
);
},
{
closed = 1;
nodes = (
"429 415 LINE",
"409 431 LINE",
"298 385 LINE",
"298 -101 LINE SMOOTH",
"298 -113 OFFCURVE",
"292 -120 OFFCURVE",
"281 -121 CURVE SMOOTH",
"219 -129 LINE",
"219 -180 LINE",
"481 -180 LINE",
"481 -129 LINE",
"447 -121 LINE SMOOTH",
"436 -119 OFFCURVE",
"429 -112 OFFCURVE",
"429 -101 CURVE SMOOTH"
);
}
);
width = 489;
}
);
leftKerningGroup = d;
unicode = 0071;
userData = {
com.typemytype.robofont.layerData = {
background = {
anchors = (
{
name = btm;
x = 624;
y = -170;
},
{
name = top;
x = 601;
y = 1700;
}
);
components = (
);
contours = (
{
points = (
{
segmentType = line;
smooth = 0;
x = 664;
y = -412;
},
{
segmentType = line;
smooth = 0;
x = 664;
y = -496;
},
{
segmentType = line;
smooth = 0;
x = 1202;
y = -496;
},
{
segmentType = line;
smooth = 0;
x = 1202;
y = -412;
},
{
segmentType = line;
smooth = 0;
x = 1011;
y = -385;
},
{
segmentType = line;
smooth = 0;
x = 1058;
y = -425;
},
{
segmentType = line;
smooth = 0;
x = 1058;
y = 1129;
},
{
segmentType = line;
smooth = 0;
x = 1024;
y = 1162;
},
{
segmentType = line;
smooth = 0;
x = 1023;
y = 1162;
},
{
segmentType = line;
smooth = 0;
x = 892;
y = 1119;
},
{
segmentType = line;
smooth = 0;
x = 892;
y = 202;
},
{
segmentType = line;
smooth = 0;
x = 899;
y = 136;
},
{
segmentType = line;
smooth = 0;
x = 893;
y = -48;
},
{
segmentType = line;
smooth = 0;
x = 893;
y = -425;
},
{
segmentType = line;
smooth = 0;
x = 938;
y = -387;
}
);
},
{
points = (
{
segmentType = curve;
smooth = 1;
x = 544;
y = -23;
},
{
smooth = 0;
x = 743;
y = -23;
},
{
smooth = 0;
x = 877;
y = 99;
},
{
segmentType = curve;
smooth = 0;
x = 941;
y = 176;
},
{
segmentType = line;
smooth = 0;
x = 895;
y = 222;
},
{
smooth = 0;
x = 852;
y = 175;
},
{
smooth = 0;
x = 748;
y = 97;
},
{
segmentType = curve;
smooth = 1;
x = 612;
y = 97;
},
{
smooth = 0;
x = 427;
y = 97;
},
{
smooth = 0;
x = 271;
y = 249;
},
{
segmentType = curve;
smooth = 1;
x = 274;
y = 576;
},
{
smooth = 0;
x = 279;
y = 924;
},
{
smooth = 0;
x = 444;
y = 1078;
},
{
segmentType = curve;
smooth = 1;
x = 662;
y = 1078;
},
{
smooth = 0;
x = 770;
y = 1078;
},
{
smooth = 0;
x = 877;
y = 1038;
},
{
segmentType = curve;
smooth = 0;
x = 892;
y = 1005;
},
{
segmentType = line;
smooth = 0;
x = 973;
y = 1118;
},
{
smooth = 0;
x = 906;
y = 1143;
},
{
smooth = 0;
x = 791;
y = 1168;
},
{
segmentType = curve;
smooth = 1;
x = 678;
y = 1168;
},
{
smooth = 0;
x = 318;
y = 1168;
},
{
smooth = 0;
x = 95;
y = 896;
},
{
segmentType = curve;
smooth = 1;
x = 95;
y = 547;
},
{
smooth = 0;
x = 95;
y = 155;
},
{
smooth = 0;
x = 316;
y = -23;
}
);
}
);
lib = {
};
name = q;
unicodes = (
);
width = 1258;
};
};
};
},
